NotoSansArabic-Black.ufo
<glyph name="parenleft" format="2">
  <advance width="443"/>
  <unicode hex="0028"/>
  <outline>
    <contour>
      <point x="214" y="-172" type="curve"/>
      <point x="373" y="-172" type="line"/>
      <point x="289" y="-28"/>
      <point x="239" y="141"/>
      <point x="239" y="309" type="curve" smooth="yes"/>
      <point x="239" y="472"/>
      <point x="279" y="641"/>
      <point x="373" y="785" type="curve"/>
      <point x="214" y="785" type="line"/>
      <point x="125" y="648"/>
      <point x="80" y="490"/>
      <point x="80" y="317" type="curve" smooth="yes"/>
      <point x="80" y="128"/>
      <point x="121" y="-29"/>
    </contour>
  </outline>
</glyph>
<glyph name="period" format="2">
  <advance width="288"/>
  <unicode hex="002E"/>
  <outline>
    <contour>
      <point x="146" y="-12" type="curve" smooth="yes"/>
      <point x="200" y="-12"/>
      <point x="246" y="15"/>
      <point x="246" y="81" type="curve" smooth="yes"/>
      <point x="246" y="150"/>
      <point x="200" y="175"/>
      <point x="146" y="175" type="curve" smooth="yes"/>
      <point x="89" y="175"/>
      <point x="42" y="150"/>
      <point x="42" y="81" type="curve" smooth="yes"/>
      <point x="42" y="15"/>
      <point x="89" y="-12"/>
    </contour>
  </outline>
</glyph>
<glyph name="guillemotleft" format="2">
  <advance width="641"/>
  <unicode hex="00AB"/>
  <outline>
    <contour>
      <point x="486" y="39" type="line"/>
      <point x="624" y="111" type="line"/>
      <point x="490" y="281" type="line"/>
      <point x="624" y="450" type="line"/>
      <point x="486" y="523" type="line"/>
      <point x="297" y="287" type="line"/>
      <point x="297" y="274" type="line"/>
    </contour>
    <contour>
      <point x="206" y="39" type="line"/>
      <point x="343" y="111" type="line"/>
      <point x="210" y="281" type="line"/>
      <point x="343" y="450" type="line"/>
      <point x="206" y="523" type="line"/>
      <point x="16" y="287" type="line"/>
      <point x="16" y="274" type="line"/>
    </contour>
  </outline>
</glyph>
<glyph name="guillemotright" format="2">
  <advance width="641"/>
  <unicode hex="00BB"/>
  <outline>
    <contour>
      <point x="436" y="39" type="line"/>
      <point x="625" y="274" type="line"/>
      <point x="625" y="287" type="line"/>
      <point x="436" y="523" type="line"/>
      <point x="297" y="450" type="line"/>
      <point x="431" y="281" type="line"/>
      <point x="297" y="111" type="line"/>
    </contour>
    <contour>
      <point x="155" y="39" type="line"/>
      <point x="344" y="274" type="line"/>
      <point x="344" y="287" type="line"/>
      <point x="155" y="523" type="line"/>
      <point x="17" y="450" type="line"/>
      <point x="150" y="281" type="line"/>
      <point x="17" y="111" type="line"/>
    </contour>
  </outline>
</glyph>
<glyph name="number-ar" format="2">
  <advance width="1178"/>
  <unicode hex="0600"/>
  <outline>
    <contour>
      <point x="44" y="-289" type="line"/>
      <point x="793" y="-289" type="line" smooth="yes"/>
      <point x="957" y="-289"/>
      <point x="1093" y="-268"/>
      <point x="1148" y="-249" type="curve"/>
      <point x="1132" y="-110" type="line"/>
      <point x="1106" y="-117"/>
      <point x="1077" y="-121"/>
      <point x="1045" y="-121" type="curve" smooth="yes"/>
      <point x="995" y="-121"/>
      <point x="973" y="-103"/>
      <point x="973" y="-77" type="curve" smooth="yes"/>
      <point x="973" y="-46"/>
      <point x="994" y="-34"/>
      <point x="1041" y="-34" type="curve" smooth="yes"/>
      <point x="1066" y="-34"/>
      <point x="1081" y="-37"/>
      <point x="1108" y="-42" type="curve"/>
      <point x="1122" y="89" type="line"/>
      <point x="1090" y="101"/>
      <point x="1055" y="108"/>
      <point x="1022" y="108" type="curve" smooth="yes"/>
      <point x="894" y="108"/>
      <point x="845" y="14"/>
      <point x="845" y="-83" type="curve" smooth="yes"/>
      <point x="845" y="-113"/>
      <point x="851" y="-143"/>
      <point x="863" y="-164" type="curve"/>
      <point x="885" y="-121" type="line"/>
      <point x="30" y="-121" type="line"/>
    </contour>
  </outline>
</glyph>
<glyph name="year-ar" format="2">
  <advance width="1524"/>
  <unicode hex="0601"/>
  <outline>
    <contour>
      <point x="144" y="-379" type="curve" smooth="yes"/>
      <point x="202" y="-379"/>
      <point x="230" y="-360"/>
      <point x="260" y="-315" type="curve" smooth="yes"/>
      <point x="290" y="-270"/>
      <point x="294" y="-250"/>
      <point x="311" y="-250" type="curve" smooth="yes"/>
      <point x="338" y="-250"/>
      <point x="373" y="-329"/>
      <point x="433" y="-329" type="curve" smooth="yes"/>
      <point x="459" y="-329"/>
      <point x="482" y="-322"/>
      <point x="502" y="-276" type="curve"/>
      <point x="567" y="-283"/>
      <point x="751" y="-288"/>
      <point x="895" y="-288" type="curve" smooth="yes"/>
      <point x="1117" y="-288"/>
      <point x="1291" y="-271"/>
      <point x="1336" y="-271" type="curve" smooth="yes"/>
      <point x="1367" y="-271"/>
      <point x="1374" y="-282"/>
      <point x="1374" y="-303" type="curve" smooth="yes"/>
      <point x="1374" y="-321"/>
      <point x="1370" y="-329"/>
      <point x="1364" y="-350" type="curve"/>
      <point x="1466" y="-376" type="line"/>
      <point x="1488" y="-335"/>
      <point x="1504" y="-281"/>
      <point x="1504" y="-224" type="curve" smooth="yes"/>
      <point x="1504" y="-136"/>
      <point x="1463" y="-97"/>
      <point x="1368" y="-102" type="curve" smooth="yes"/>
      <point x="1308" y="-105"/>
      <point x="1150" y="-120"/>
      <point x="894" y="-120" type="curve" smooth="yes"/>
      <point x="731" y="-120"/>
      <point x="544" y="-115"/>
      <point x="478" y="-106" type="curve"/>
      <point x="468" y="-136"/>
      <point x="455" y="-157"/>
      <point x="431" y="-157" type="curve" smooth="yes"/>
      <point x="387" y="-157"/>
      <point x="379" y="-75"/>
      <point x="315" y="-75" type="curve" smooth="yes"/>
      <point x="275" y="-75"/>
      <point x="256" y="-93"/>
      <point x="229" y="-143" type="curve" smooth="yes"/>
      <point x="200" y="-197"/>
      <point x="192" y="-215"/>
      <point x="174" y="-215" type="curve" smooth="yes"/>
      <point x="156" y="-215"/>
      <point x="148" y="-195"/>
      <point x="148" y="-166" type="curve" smooth="yes"/>
      <point x="148" y="-149"/>
      <point x="151" y="-128"/>
      <point x="158" y="-107" type="curve"/>
      <point x="42" y="-106" type="line"/>
      <point x="32" y="-135"/>
      <point x="19" y="-179"/>
      <point x="20" y="-233" type="curve" smooth="yes"/>
      <point x="22" y="-332"/>
      <point x="80" y="-379"/>
    </contour>
  </outline>
</glyph>
<glyph name="footnotemarker-ar" format="2">
  <advance width="1165"/>
  <unicode hex="0602"/>
  <outline>
    <contour>
      <point x="285" y="-292" type="curve" smooth="yes"/>
      <point x="1131" y="-292" type="line"/>
      <point x="1145" y="-125" type="line"/>
      <point x="268" y="-124" type="line" smooth="yes"/>
      <point x="177" y="-124"/>
      <point x="150" y="-108"/>
      <point x="150" y="-73" type="curve" smooth="yes"/>
      <point x="150" y="-46"/>
      <point x="175" y="-25"/>
      <point x="205" y="-25" type="curve" smooth="yes"/>
      <point x="235" y="-25"/>
      <point x="250" y="-44"/>
      <point x="250" y="-81" type="curve" smooth="yes"/>
      <point x="250" y="-109"/>
      <point x="246" y="-131"/>
      <point x="236" y="-164" type="curve"/>
      <point x="354" y="-189" type="line"/>
      <point x="369" y="-143"/>
      <point x="381" y="-98"/>
      <point x="381" y="-43" type="curve" smooth="yes"/>
      <point x="381" y="59"/>
      <point x="325" y="120"/>
      <point x="230" y="120" type="curve" smooth="yes"/>
      <point x="114" y="120"/>
      <point x="20" y="24"/>
      <point x="20" y="-107" type="curve" smooth="yes"/>
      <point x="20" y="-224"/>
      <point x="104" y="-292"/>
    </contour>
  </outline>
</glyph>
<glyph name="pagenumber-ar" format="2">
  <advance width="1368"/>
  <unicode hex="0603"/>
  <outline>
    <contour>
      <point x="34" y="-289" type="line"/>
      <point x="646" y="-289" type="line" smooth="yes"/>
      <point x="750" y="-289"/>
      <point x="816" y="-268"/>
      <point x="850" y="-190" type="curve"/>
      <point x="814" y="-189" type="line"/>
      <point x="839" y="-264"/>
      <point x="947" y="-292"/>
      <point x="1046" y="-292" type="curve" smooth="yes"/>
      <point x="1249" y="-292"/>
      <point x="1348" y="-222"/>
      <point x="1348" y="-79" type="curve" smooth="yes"/>
      <point x="1348" y="34"/>
      <point x="1282" y="110"/>
      <point x="1181" y="110" type="curve" smooth="yes"/>
      <point x="1077" y="110"/>
      <point x="989" y="32"/>
      <point x="907" y="-134" type="curve"/>
      <point x="1030" y="-157" type="line"/>
      <point x="1068" y="-85"/>
      <point x="1103" y="-46"/>
      <point x="1146" y="-46" type="curve" smooth="yes"/>
      <point x="1176" y="-46"/>
      <point x="1195" y="-65"/>
      <point x="1195" y="-89" type="curve" smooth="yes"/>
      <point x="1195" y="-120"/>
      <point x="1155" y="-131"/>
      <point x="1037" y="-131" type="curve" smooth="yes"/>
      <point x="915" y="-131"/>
      <point x="903" y="-121"/>
      <point x="897" y="-84" type="curve" smooth="yes"/>
      <point x="894" y="-66"/>
      <point x="893" y="-49"/>
      <point x="892" y="-12" type="curve"/>
      <point x="791" y="-14" type="line"/>
      <point x="789" y="-48"/>
      <point x="788" y="-69"/>
      <point x="783" y="-88" type="curve" smooth="yes"/>
      <point x="776" y="-114"/>
      <point x="758" y="-121"/>
      <point x="714" y="-121" type="curve" smooth="yes"/>
      <point x="20" y="-121" type="line"/>
    </contour>
  </outline>
</glyph>
<glyph name="samvat-ar" format="2">
  <advance width="2065"/>
  <unicode hex="0604"/>
  <outline>
    <contour>
      <point x="1230" y="-100" type="curve"/>
      <point x="1311" y="60" type="line"/>
      <point x="1215" y="102"/>
      <point x="1175" y="140"/>
      <point x="1175" y="196" type="curve" smooth="yes"/>
      <point x="1175" y="241"/>
      <point x="1200" y="271"/>
      <point x="1239" y="271" type="curve" smooth="yes"/>
      <point x="1275" y="271"/>
      <point x="1294" y="250"/>
      <point x="1328" y="185" type="curve" smooth="yes"/>
      <point x="1375" y="94"/>
      <point x="1419" y="69"/>
      <point x="1491" y="69" type="curve" smooth="yes"/>
      <point x="1573" y="69"/>
      <point x="1653" y="103"/>
      <point x="1678" y="220" type="curve"/>
      <point x="1642" y="220" type="line"/>
      <point x="1660" y="105"/>
      <point x="1727" y="69"/>
      <point x="1804" y="69" type="curve" smooth="yes"/>
      <point x="1947" y="69"/>
      <point x="2010" y="165"/>
      <point x="2010" y="310" type="curve" smooth="yes"/>
      <point x="2010" y="374"/>
      <point x="1998" y="457"/>
      <point x="1963" y="545" type="curve"/>
      <point x="1819" y="499" type="line"/>
      <point x="1837" y="431"/>
      <point x="1849" y="378"/>
      <point x="1849" y="325" type="curve" smooth="yes"/>
      <point x="1849" y="271"/>
      <point x="1833" y="249"/>
      <point x="1784" y="249" type="curve" smooth="yes"/>
      <point x="1745" y="249"/>
      <point x="1729" y="261"/>
      <point x="1722" y="310" type="curve" smooth="yes"/>
      <point x="1717" y="347"/>
      <point x="1716" y="384"/>
      <point x="1713" y="460" type="curve"/>
      <point x="1570" y="447" type="line"/>
      <point x="1571" y="385"/>
      <point x="1569" y="342"/>
      <point x="1563" y="312" type="curve" smooth="yes"/>
      <point x="1552" y="261"/>
      <point x="1530" y="249"/>
      <point x="1497" y="249" type="curve" smooth="yes"/>
      <point x="1460" y="249"/>
      <point x="1449" y="266"/>
      <point x="1419" y="317" type="curve" smooth="yes"/>
      <point x="1372" y="397"/>
      <point x="1324" y="445"/>
      <point x="1220" y="445" type="curve" smooth="yes"/>
      <point x="1104" y="445"/>
      <point x="1004" y="356"/>
      <point x="1004" y="219" type="curve" smooth="yes"/>
      <point x="1004" y="124"/>
      <point x="1034" y="90"/>
      <point x="1101" y="33" type="curve"/>
      <point x="1141" y="135" type="line"/>
      <point x="995" y="160"/>
      <point x="834" y="174"/>
      <point x="643" y="174" type="curve" smooth="yes"/>
      <point x="435" y="174"/>
      <point x="215" y="161"/>
      <point x="30" y="132" type="curve"/>
      <point x="44" y="-38" type="line"/>
      <point x="223" y="-19"/>
      <point x="432" y="-6"/>
      <point x="620" y="-6" type="curve" smooth="yes"/>
      <point x="828" y="-6"/>
      <point x="945" y="-8"/>
      <point x="1052" y="-22" type="curve"/>
      <point x="1117" y="-52"/>
      <point x="1170" y="-80"/>
    </contour>
  </outline>
</glyph>
<glyph name="numbermark-ar" format="2">
  <advance width="1250"/>
  <unicode hex="0605"/>
  <outline>
    <contour>
      <point x="132" y="547" type="line"/>
      <point x="170" y="620"/>
      <point x="189" y="644"/>
      <point x="232" y="644" type="curve" smooth="yes"/>
      <point x="297" y="644"/>
      <point x="428" y="575"/>
      <point x="729" y="575" type="curve" smooth="yes"/>
      <point x="920" y="575"/>
      <point x="1102" y="599"/>
      <point x="1235" y="646" type="curve"/>
      <point x="1199" y="800" type="line"/>
      <point x="1083" y="764"/>
      <point x="931" y="743"/>
      <point x="760" y="743" type="curve" smooth="yes"/>
      <point x="488" y="743"/>
      <point x="313" y="814"/>
      <point x="232" y="814" type="curve" smooth="yes"/>
      <point x="124" y="814"/>
      <point x="69" y="717"/>
      <point x="20" y="602" type="curve"/>
    </contour>
  </outline>
</glyph>
<glyph name="ray-ar" format="2">
  <advance width="1033"/>
  <unicode hex="0608"/>
  <outline>
    <contour>
      <point x="566" y="-264" type="curve" smooth="yes"/>
      <point x="831" y="-264"/>
      <point x="970" y="-179"/>
      <point x="970" y="71" type="curve" smooth="yes"/>
      <point x="970" y="328"/>
      <point x="880" y="441"/>
      <point x="748" y="441" type="curve" smooth="yes"/>
      <point x="621" y="441"/>
      <point x="536" y="323"/>
      <point x="536" y="179" type="curve" smooth="yes"/>
      <point x="536" y="47"/>
      <point x="612" y="-10"/>
      <point x="775" y="-10" type="curve" smooth="yes"/>
      <point x="1033" y="-10" type="line" smooth="yes"/>
      <point x="1099" y="-10"/>
      <point x="1133" y="30"/>
      <point x="1133" y="81" type="curve" smooth="yes"/>
      <point x="1133" y="126"/>
      <point x="1107" y="170"/>
      <point x="1043" y="170" type="curve" smooth="yes"/>
      <point x="902" y="170" type="line"/>
      <point x="853" y="165"/>
      <point x="811" y="152"/>
      <point x="759" y="152" type="curve" smooth="yes"/>
      <point x="701" y="152"/>
      <point x="676" y="163"/>
      <point x="676" y="203" type="curve" smooth="yes"/>
      <point x="676" y="244"/>
      <point x="699" y="280"/>
      <point x="743" y="280" type="curve" smooth="yes"/>
      <point x="790" y="280"/>
      <point x="833" y="243"/>
      <point x="833" y="82" type="curve" smooth="yes"/>
      <point x="833" y="-58"/>
      <point x="796" y="-86"/>
      <point x="592" y="-86" type="curve" smooth="yes"/>
      <point x="430" y="-86"/>
      <point x="369" y="-49"/>
      <point x="369" y="59" type="curve" smooth="yes"/>
      <point x="369" y="111"/>
      <point x="377" y="155"/>
      <point x="393" y="224" type="curve"/>
      <point x="292" y="273" type="line"/>
      <point x="30" y="201" type="line"/>
      <point x="57" y="50" type="line"/>
      <point x="256" y="108" type="line"/>
      <point x="230" y="149" type="line"/>
      <point x="218" y="103"/>
      <point x="212" y="50"/>
      <point x="212" y="11" type="curve" smooth="yes"/>
      <point x="212" y="-170"/>
      <point x="323" y="-264"/>
    </contour>
  </outline>
</glyph>
<glyph name="perthousand-ar" format="2">
  <advance width="819"/>
  <unicode hex="0609"/>
  <outline>
    <contour>
      <point x="698" y="-24" type="curve"/>
      <point x="799" y="77" type="line"/>
      <point x="768" y="115"/>
      <point x="726" y="158"/>
      <point x="681" y="193" type="curve"/>
      <point x="582" y="87" type="line"/>
      <point x="628" y="49"/>
      <point x="653" y="22"/>
    </contour>
    <component base="percent-ar"/>
  </outline>
</glyph>
<glyph name="pertenthousand-ar" format="2">
  <advance width="1054"/>
  <unicode hex="060A"/>
  <outline>
    <contour>
      <point x="698" y="-24" type="curve"/>
      <point x="799" y="77" type="line"/>
      <point x="768" y="115"/>
      <point x="726" y="158"/>
      <point x="681" y="193" type="curve"/>
      <point x="582" y="87" type="line"/>
      <point x="628" y="49"/>
      <point x="653" y="22"/>
    </contour>
    <contour>
      <point x="933" y="-24" type="curve"/>
      <point x="1034" y="77" type="line"/>
      <point x="1003" y="115"/>
      <point x="961" y="158"/>
      <point x="916" y="193" type="curve"/>
      <point x="817" y="87" type="line"/>
      <point x="863" y="49"/>
      <point x="888" y="22"/>
    </contour>
    <component base="percent-ar"/>
  </outline>
</glyph>
<glyph name="comma-ar" format="2">
  <advance width="329"/>
  <unicode hex="060C"/>
  <outline>
    <contour>
      <point x="178" y="-15" type="curve" smooth="yes"/>
      <point x="231" y="-15"/>
      <point x="269" y="15"/>
      <point x="269" y="62" type="curve" smooth="yes"/>
      <point x="269" y="97"/>
      <point x="245" y="124"/>
      <point x="204" y="137" type="curve"/>
      <point x="215" y="171"/>
      <point x="235" y="204"/>
      <point x="263" y="242" type="curve"/>
      <point x="179" y="292" type="line"/>
      <point x="124" y="234"/>
      <point x="76" y="169"/>
      <point x="76" y="93" type="curve" smooth="yes"/>
      <point x="76" y="34"/>
      <point x="110" y="-15"/>
    </contour>
  </outline>
</glyph>
<glyph name="dateseparator-ar" format="2">
  <advance width="419"/>
  <unicode hex="060D"/>
  <outline>
    <contour>
      <point x="158" y="-192" type="line"/>
      <point x="221" y="-73"/>
      <point x="292" y="34"/>
      <point x="362" y="111" type="curve"/>
      <point x="228" y="224" type="line"/>
      <point x="165" y="159"/>
      <point x="71" y="5"/>
      <point x="20" y="-121" type="curve"/>
    </contour>
  </outline>
</glyph>
<glyph name="verseComma-ar" format="2">
  <advance width="1036"/>
  <unicode hex="060E"/>
  <outline>
    <contour>
      <point x="403" y="-21" type="curve" smooth="yes"/>
      <point x="634" y="-21"/>
      <point x="874" y="-6"/>
      <point x="1014" y="11" type="curve"/>
      <point x="1016" y="171" type="line"/>
      <point x="874" y="160"/>
      <point x="622" y="144"/>
      <point x="388" y="144" type="curve" smooth="yes"/>
      <point x="227" y="144"/>
      <point x="193" y="171"/>
      <point x="193" y="226" type="curve" smooth="yes"/>
      <point x="193" y="276"/>
      <point x="229" y="316"/>
      <point x="278" y="316" type="curve" smooth="yes"/>
      <point x="319" y="316"/>
      <point x="335" y="285"/>
      <point x="335" y="225" type="curve" smooth="yes"/>
      <point x="335" y="187"/>
      <point x="332" y="154"/>
      <point x="323" y="117" type="curve"/>
      <point x="457" y="72" type="line"/>
      <point x="474" y="119"/>
      <point x="485" y="180"/>
      <point x="485" y="244" type="curve" smooth="yes"/>
      <point x="485" y="385"/>
      <point x="430" y="484"/>
      <point x="294" y="484" type="curve" smooth="yes"/>
      <point x="158" y="484"/>
      <point x="30" y="377"/>
      <point x="30" y="212" type="curve" smooth="yes"/>
      <point x="30" y="65"/>
      <point x="133" y="-21"/>
    </contour>
  </outline>
</glyph>
<glyph name="misraComma-ar" format="2">
  <advance width="613"/>
  <unicode hex="060F"/>
  <outline>
    <contour>
      <point x="164" y="-438" type="line"/>
      <point x="272" y="-208"/>
      <point x="362" y="-124"/>
      <point x="445" y="-124" type="curve" smooth="yes"/>
      <point x="482" y="-124"/>
      <point x="501" y="-140"/>
      <point x="501" y="-167" type="curve" smooth="yes"/>
      <point x="501" y="-211"/>
      <point x="452" y="-234"/>
      <point x="354" y="-234" type="curve" smooth="yes"/>
      <point x="246" y="-234"/>
      <point x="174" y="-195"/>
      <point x="174" y="-113" type="curve" smooth="yes"/>
      <point x="174" y="-54"/>
      <point x="210" y="7"/>
      <point x="295" y="52" type="curve" smooth="yes"/>
      <point x="352" y="82"/>
      <point x="449" y="103"/>
      <point x="558" y="126" type="curve"/>
      <point x="542" y="290" type="line"/>
      <point x="468" y="278"/>
      <point x="406" y="264"/>
      <point x="355" y="264" type="curve" smooth="yes"/>
      <point x="274" y="264"/>
      <point x="232" y="286"/>
      <point x="232" y="340" type="curve" smooth="yes"/>
      <point x="232" y="384"/>
      <point x="265" y="415"/>
      <point x="346" y="415" type="curve" smooth="yes"/>
      <point x="386" y="415"/>
      <point x="431" y="408"/>
      <point x="474" y="397" type="curve"/>
      <point x="489" y="559" type="line"/>
      <point x="449" y="582"/>
      <point x="391" y="595"/>
      <point x="334" y="595" type="curve" smooth="yes"/>
      <point x="166" y="595"/>
      <point x="68" y="489"/>
      <point x="68" y="343" type="curve" smooth="yes"/>
      <point x="68" y="230"/>
      <point x="146" y="146"/>
      <point x="239" y="112" type="curve"/>
      <point x="261" y="192" type="line"/>
      <point x="135" y="143"/>
      <point x="10" y="28"/>
      <point x="10" y="-132" type="curve" smooth="yes"/>
      <point x="10" y="-312"/>
      <point x="176" y="-394"/>
      <point x="349" y="-394" type="curve" smooth="yes"/>
      <point x="525" y="-394"/>
      <point x="663" y="-312"/>
      <point x="663" y="-151" type="curve" smooth="yes"/>
      <point x="663" y="-30"/>
      <point x="584" y="32"/>
      <point x="463" y="32" type="curve" smooth="yes"/>
      <point x="316" y="32"/>
      <point x="173" y="-78"/>
      <point x="26" y="-372" type="curve"/>
    </contour>
  </outline>
</glyph>
<glyph name="sadabove-ar" format="2">
  <unicode hex="0610"/>
  <anchor x="174" y="550" name="_top"/>
  <anchor x="180" y="860" name="top"/>
  <outline>
    <contour>
      <point x="39" y="575" type="curve"/>
      <point x="94" y="567" type="line"/>
      <point x="102" y="605"/>
      <point x="107" y="654"/>
      <point x="107" y="691" type="curve"/>
      <point x="89" y="692" type="line"/>
      <point x="96" y="672"/>
      <point x="118" y="656"/>
      <point x="196" y="656" type="curve" smooth="yes"/>
      <point x="284" y="656"/>
      <point x="337" y="689"/>
      <point x="337" y="754" type="curve" smooth="yes"/>
      <point x="337" y="803"/>
      <point x="305" y="835"/>
      <point x="255" y="835" type="curve" smooth="yes"/>
      <point x="190" y="835"/>
      <point x="139" y="768"/>
      <point x="108" y="714" type="curve"/>
      <point x="162" y="693" type="line"/>
      <point x="178" y="729"/>
      <point x="208" y="772"/>
      <point x="243" y="772" type="curve" smooth="yes"/>
      <point x="262" y="772"/>
      <point x="274" y="761"/>
      <point x="274" y="746" type="curve" smooth="yes"/>
      <point x="274" y="726"/>
      <point x="261" y="718"/>
      <point x="188" y="718" type="curve" smooth="yes"/>
      <point x="116" y="718"/>
      <point x="113" y="724"/>
      <point x="106" y="739" type="curve" smooth="yes"/>
      <point x="101" y="750"/>
      <point x="98" y="768"/>
      <point x="92" y="793" type="curve"/>
      <point x="36" y="780" type="line"/>
      <point x="45" y="743"/>
      <point x="50" y="710"/>
      <point x="50" y="684" type="curve" smooth="yes"/>
      <point x="50" y="655"/>
      <point x="47" y="613"/>
    </contour>
  </outline>
</glyph>
<glyph name="ainabove-ar" format="2">
  <unicode hex="0611"/>
  <anchor x="164" y="550" name="_top"/>
  <anchor x="170" y="860" name="top"/>
  <outline>
    <contour>
      <point x="39" y="575" type="curve"/>
      <point x="94" y="567" type="line"/>
      <point x="102" y="605"/>
      <point x="107" y="654"/>
      <point x="107" y="691" type="curve"/>
      <point x="89" y="692" type="line"/>
      <point x="96" y="672"/>
      <point x="129" y="656"/>
      <point x="189" y="656" type="curve" smooth="yes"/>
      <point x="219" y="656"/>
      <point x="257" y="663"/>
      <point x="290" y="679" type="curve"/>
      <point x="281" y="735" type="line"/>
      <point x="263" y="729"/>
      <point x="249" y="724"/>
      <point x="231" y="724" type="curve" smooth="yes"/>
      <point x="211" y="724"/>
      <point x="198" y="734"/>
      <point x="198" y="754" type="curve" smooth="yes"/>
      <point x="198" y="770"/>
      <point x="210" y="779"/>
      <point x="229" y="779" type="curve" smooth="yes"/>
      <point x="240" y="779"/>
      <point x="250" y="777"/>
      <point x="261" y="774" type="curve"/>
      <point x="268" y="827" type="line"/>
      <point x="255" y="832"/>
      <point x="238" y="837"/>
      <point x="216" y="837" type="curve" smooth="yes"/>
      <point x="167" y="837"/>
      <point x="136" y="807"/>
      <point x="136" y="761" type="curve" smooth="yes"/>
      <point x="136" y="729"/>
      <point x="150" y="709"/>
      <point x="170" y="699" type="curve"/>
      <point x="173" y="718" type="line"/>
      <point x="124" y="718"/>
      <point x="112" y="726"/>
      <point x="104" y="747" type="curve" smooth="yes"/>
      <point x="101" y="756"/>
      <point x="97" y="769"/>
      <point x="92" y="793" type="curve"/>
      <point x="36" y="780" type="line"/>
      <point x="45" y="743"/>
      <point x="50" y="710"/>
      <point x="50" y="684" type="curve" smooth="yes"/>
      <point x="50" y="655"/>
      <point x="47" y="613"/>
    </contour>
  </outline>
</glyph>
<glyph name="rehHahabove-ar" format="2">
  <unicode hex="0612"/>
  <anchor x="155" y="550" name="_top"/>
  <anchor x="161" y="860" name="top"/>
  <outline>
    <contour>
      <point x="19" y="602" type="curve"/>
      <point x="79" y="602" type="line"/>
      <point x="79" y="678"/>
      <point x="132" y="733"/>
      <point x="210" y="733" type="curve"/>
      <point x="214" y="790" type="line"/>
      <point x="154" y="790"/>
      <point x="114" y="821"/>
      <point x="64" y="821" type="curve" smooth="yes"/>
      <point x="46" y="821"/>
      <point x="32" y="819"/>
      <point x="18" y="813" type="curve"/>
      <point x="15" y="760" type="line"/>
      <point x="30" y="763"/>
      <point x="41" y="765"/>
      <point x="56" y="765" type="curve" smooth="yes"/>
      <point x="87" y="765"/>
      <point x="123" y="756"/>
      <point x="149" y="740" type="curve"/>
      <point x="152" y="770" type="line"/>
      <point x="76" y="747"/>
      <point x="19" y="685"/>
    </contour>
    <contour>
      <point x="203" y="600" type="curve" smooth="yes"/>
      <point x="283" y="600"/>
      <point x="322" y="645"/>
      <point x="322" y="711" type="curve" smooth="yes"/>
      <point x="322" y="749"/>
      <point x="314" y="775"/>
      <point x="300" y="806" type="curve"/>
      <point x="242" y="787" type="line"/>
      <point x="252" y="760"/>
      <point x="261" y="737"/>
      <point x="261" y="712" type="curve" smooth="yes"/>
      <point x="261" y="677"/>
      <point x="241" y="659"/>
      <point x="196" y="659" type="curve" smooth="yes"/>
      <point x="183" y="659"/>
      <point x="175" y="660"/>
      <point x="163" y="662" type="curve"/>
      <point x="159" y="607" type="line"/>
      <point x="173" y="602"/>
      <point x="187" y="600"/>
    </contour>
  </outline>
</glyph>
<glyph name="rehDadabove-ar" format="2">
  <unicode hex="0613"/>
  <anchor x="224" y="550" name="_top"/>
  <anchor x="230" y="860" name="top"/>
  <outline>
    <contour>
      <point x="342" y="600" type="curve" smooth="yes"/>
      <point x="422" y="600"/>
      <point x="461" y="645"/>
      <point x="461" y="711" type="curve" smooth="yes"/>
      <point x="461" y="749"/>
      <point x="453" y="775"/>
      <point x="439" y="806" type="curve"/>
      <point x="381" y="787" type="line"/>
      <point x="391" y="760"/>
      <point x="400" y="737"/>
      <point x="400" y="712" type="curve" smooth="yes"/>
      <point x="400" y="677"/>
      <point x="380" y="659"/>
      <point x="335" y="659" type="curve" smooth="yes"/>
      <point x="322" y="659"/>
      <point x="314" y="660"/>
      <point x="302" y="662" type="curve"/>
      <point x="298" y="607" type="line"/>
      <point x="312" y="602"/>
      <point x="326" y="600"/>
    </contour>
    <contour>
      <point x="117" y="818" type="curve" smooth="yes"/>
      <point x="136" y="818"/>
      <point x="151" y="833"/>
      <point x="151" y="852" type="curve" smooth="yes"/>
      <point x="151" y="870"/>
      <point x="136" y="886"/>
      <point x="117" y="886" type="curve" smooth="yes"/>
      <point x="99" y="886"/>
      <point x="83" y="870"/>
      <point x="83" y="852" type="curve" smooth="yes"/>
      <point x="83" y="833"/>
      <point x="99" y="818"/>
    </contour>
    <component base="sadabove-ar"/>
  </outline>
</glyph>
<glyph name="takhallusabove-ar" format="2">
  <unicode hex="0614"/>
  <anchor x="224" y="550" name="_top"/>
  <anchor x="221" y="809" name="top"/>
  <outline>
    <contour>
      <point x="191" y="614" type="curve" smooth="yes"/>
      <point x="240" y="614"/>
      <point x="280" y="627"/>
      <point x="288" y="671" type="curve"/>
      <point x="274" y="671" type="line"/>
      <point x="281" y="628"/>
      <point x="305" y="614"/>
      <point x="335" y="614" type="curve" smooth="yes"/>
      <point x="389" y="614"/>
      <point x="412" y="651"/>
      <point x="412" y="705" type="curve" smooth="yes"/>
      <point x="412" y="728"/>
      <point x="407" y="759"/>
      <point x="394" y="792" type="curve"/>
      <point x="341" y="776" type="line"/>
      <point x="348" y="750"/>
      <point x="352" y="730"/>
      <point x="352" y="710" type="curve" smooth="yes"/>
      <point x="352" y="689"/>
      <point x="346" y="681"/>
      <point x="328" y="681" type="curve" smooth="yes"/>
      <point x="314" y="681"/>
      <point x="305" y="687"/>
      <point x="305" y="705" type="curve" smooth="yes"/>
      <point x="305" y="718"/>
      <point x="303" y="732"/>
      <point x="301" y="760" type="curve"/>
      <point x="248" y="756" type="line"/>
      <point x="248" y="730"/>
      <point x="248" y="714"/>
      <point x="245" y="703" type="curve" smooth="yes"/>
      <point x="241" y="688"/>
      <point x="225" y="681"/>
      <point x="194" y="681" type="curve" smooth="yes"/>
      <point x="142" y="681"/>
      <point x="98" y="687"/>
      <point x="38" y="697" type="curve"/>
      <point x="31" y="635" type="line"/>
      <point x="88" y="618"/>
      <point x="143" y="614"/>
    </contour>
  </outline>
</glyph>
<glyph name="alefLamYehabove-ar" format="2">
  <unicode hex="0616"/>
  <anchor x="193" y="550" name="_top"/>
  <anchor x="211" y="945" name="top"/>
  <outline>
    <contour>
      <point x="197" y="591" type="curve" smooth="yes"/>
      <point x="256" y="591"/>
      <point x="319" y="600"/>
      <point x="357" y="609" type="curve"/>
      <point x="358" y="667" type="line"/>
      <point x="315" y="660"/>
      <point x="263" y="652"/>
      <point x="199" y="652" type="curve" smooth="yes"/>
      <point x="114" y="652"/>
      <point x="100" y="658"/>
      <point x="100" y="672" type="curve" smooth="yes"/>
      <point x="100" y="681"/>
      <point x="106" y="688"/>
      <point x="141" y="696" type="curve" smooth="yes"/>
      <point x="219" y="714"/>
      <point x="242" y="738"/>
      <point x="238" y="803" type="curve" smooth="yes"/>
      <point x="232" y="913" type="line"/>
      <point x="171" y="913" type="line"/>
      <point x="176" y="803" type="line" smooth="yes"/>
      <point x="177" y="775"/>
      <point x="171" y="765"/>
      <point x="145" y="758" type="curve" smooth="yes"/>
      <point x="69" y="738"/>
      <point x="30" y="717"/>
      <point x="30" y="665" type="curve" smooth="yes"/>
      <point x="30" y="616"/>
      <point x="76" y="591"/>
    </contour>
    <contour>
      <point x="280" y="700" type="line"/>
      <point x="341" y="701" type="line"/>
      <point x="331" y="913" type="line"/>
      <point x="270" y="913" type="line"/>
    </contour>
  </outline>
</glyph>
<glyph name="zainabove-ar" format="2">
  <unicode hex="0617"/>
  <anchor x="90" y="550" name="_top"/>
  <anchor x="82" y="907" name="top"/>
  <outline>
    <contour>
      <point x="59" y="600" type="curve" smooth="yes"/>
      <point x="139" y="600"/>
      <point x="178" y="645"/>
      <point x="178" y="711" type="curve" smooth="yes"/>
      <point x="178" y="749"/>
      <point x="170" y="775"/>
      <point x="156" y="806" type="curve"/>
      <point x="98" y="787" type="line"/>
      <point x="108" y="760"/>
      <point x="117" y="737"/>
      <point x="117" y="712" type="curve" smooth="yes"/>
      <point x="117" y="677"/>
      <point x="97" y="659"/>
      <point x="52" y="659" type="curve" smooth="yes"/>
      <point x="39" y="659"/>
      <point x="31" y="660"/>
      <point x="19" y="662" type="curve"/>
      <point x="15" y="607" type="line"/>
      <point x="29" y="602"/>
      <point x="43" y="600"/>
    </contour>
    <contour>
      <point x="115" y="830" type="curve" smooth="yes"/>
      <point x="134" y="830"/>
      <point x="149" y="845"/>
      <point x="149" y="864" type="curve" smooth="yes"/>
      <point x="149" y="882"/>
      <point x="134" y="898"/>
      <point x="115" y="898" type="curve" smooth="yes"/>
      <point x="97" y="898"/>
      <point x="81" y="882"/>
      <point x="81" y="864" type="curve" smooth="yes"/>
      <point x="81" y="845"/>
      <point x="97" y="830"/>
    </contour>
  </outline>
</glyph>
<glyph name="fathasmall-ar" format="2">
  <unicode hex="0618"/>
  <anchor x="144" y="590" name="_top"/>
  <anchor x="144" y="744" name="top"/>
  <outline>
    <contour>
      <point x="42" y="627" type="line"/>
      <point x="246" y="668" type="line"/>
      <point x="235" y="737" type="line"/>
      <point x="30" y="694" type="line"/>
    </contour>
  </outline>
</glyph>
<glyph name="dammasmall-ar" format="2">
  <unicode hex="0619"/>
  <anchor x="129" y="590" name="_top"/>
  <anchor x="136" y="879" name="top"/>
  <outline>
    <contour>
      <point x="31" y="602" type="line"/>
      <point x="170" y="612"/>
      <point x="251" y="677"/>
      <point x="251" y="764" type="curve" smooth="yes"/>
      <point x="251" y="816"/>
      <point x="219" y="863"/>
      <point x="154" y="863" type="curve" smooth="yes"/>
      <point x="96" y="863"/>
      <point x="52" y="825"/>
      <point x="52" y="769" type="curve" smooth="yes"/>
      <point x="52" y="721"/>
      <point x="81" y="688"/>
      <point x="120" y="672" type="curve"/>
      <point x="168" y="712" type="line"/>
      <point x="141" y="720"/>
      <point x="122" y="741"/>
      <point x="122" y="764" type="curve" smooth="yes"/>
      <point x="122" y="784"/>
      <point x="136" y="796"/>
      <point x="154" y="796" type="curve" smooth="yes"/>
      <point x="172" y="796"/>
      <point x="182" y="781"/>
      <point x="182" y="760" type="curve" smooth="yes"/>
      <point x="182" y="713"/>
      <point x="128" y="679"/>
      <point x="19" y="667" type="curve"/>
    </contour>
  </outline>
</glyph>
<glyph name="semicolon-ar" format="2">
  <advance width="352"/>
  <unicode hex="061B"/>
  <outline>
    <contour>
      <point x="83" y="294" type="curve"/>
      <point x="247" y="294" type="line"/>
      <point x="257" y="384"/>
      <point x="272" y="466"/>
      <point x="292" y="559" type="curve"/>
      <point x="159" y="559" type="line"/>
      <point x="118" y="467"/>
      <point x="96" y="386"/>
    </contour>
    <contour>
      <point x="161" y="-14" type="curve" smooth="yes"/>
      <point x="218" y="-14"/>
      <point x="264" y="11"/>
      <point x="264" y="79" type="curve" smooth="yes"/>
      <point x="264" y="146"/>
      <point x="218" y="173"/>
      <point x="161" y="173" type="curve" smooth="yes"/>
      <point x="107" y="173"/>
      <point x="60" y="146"/>
      <point x="60" y="79" type="curve" smooth="yes"/>
      <point x="60" y="11"/>
      <point x="107" y="-14"/>
    </contour>
  </outline>
</glyph>
<glyph name="question-ar" format="2">
  <advance width="508"/>
  <unicode hex="061F"/>
  <outline>
    <contour>
      <point x="206" y="249" type="curve"/>
      <point x="358" y="249" type="line"/>
      <point x="358" y="338"/>
      <point x="343" y="372"/>
      <point x="270" y="432" type="curve" smooth="yes"/>
      <point x="221" y="472"/>
      <point x="203" y="490"/>
      <point x="203" y="519" type="curve" smooth="yes"/>
      <point x="203" y="552"/>
      <point x="238" y="571"/>
      <point x="289" y="571" type="curve" smooth="yes"/>
      <point x="343" y="571"/>
      <point x="389" y="554"/>
      <point x="440" y="526" type="curve"/>
      <point x="488" y="663" type="line"/>
      <point x="447" y="689"/>
      <point x="371" y="721"/>
      <point x="282" y="721" type="curve" smooth="yes"/>
      <point x="125" y="721"/>
      <point x="26" y="644"/>
      <point x="26" y="535" type="curve" smooth="yes"/>
      <point x="26" y="464"/>
      <point x="58" y="412"/>
      <point x="135" y="348" type="curve" smooth="yes"/>
      <point x="187" y="305"/>
      <point x="206" y="281"/>
    </contour>
    <contour>
      <point x="274" y="-15" type="curve" smooth="yes"/>
      <point x="331" y="-15"/>
      <point x="377" y="12"/>
      <point x="377" y="78" type="curve" smooth="yes"/>
      <point x="377" y="147"/>
      <point x="331" y="172"/>
      <point x="274" y="172" type="curve" smooth="yes"/>
      <point x="219" y="172"/>
      <point x="173" y="147"/>
      <point x="173" y="78" type="curve" smooth="yes"/>
      <point x="173" y="12"/>
      <point x="219" y="-15"/>
    </contour>
  </outline>
</glyph>
<glyph name="hamza-ar" format="2">
  <advance width="493"/>
  <unicode hex="0621"/>
  <anchor x="258" y="-51" name="bottom"/>
  <anchor x="248" y="533" name="top"/>
  <outline>
    <contour>
      <point x="46" y="-38" type="line"/>
      <point x="179" y="-9"/>
      <point x="341" y="17"/>
      <point x="475" y="39" type="curve"/>
      <point x="467" y="189" type="line"/>
      <point x="414" y="184"/>
      <point x="359" y="176"/>
      <point x="305" y="176" type="curve" smooth="yes"/>
      <point x="243" y="176"/>
      <point x="215" y="204"/>
      <point x="215" y="237" type="curve" smooth="yes"/>
      <point x="215" y="279"/>
      <point x="248" y="300"/>
      <point x="299" y="300" type="curve" smooth="yes"/>
      <point x="335" y="300"/>
      <point x="372" y="293"/>
      <point x="407" y="282" type="curve"/>
      <point x="425" y="419" type="line"/>
      <point x="387" y="440"/>
      <point x="339" y="455"/>
      <point x="280" y="455" type="curve" smooth="yes"/>
      <point x="152" y="455"/>
      <point x="64" y="372"/>
      <point x="64" y="256" type="curve" smooth="yes"/>
      <point x="64" y="156"/>
      <point x="123" y="109"/>
      <point x="198" y="69" type="curve"/>
      <point x="209" y="153" type="line"/>
      <point x="155" y="142"/>
      <point x="79" y="125"/>
      <point x="24" y="110" type="curve"/>
    </contour>
  </outline>
</glyph>
<glyph name="alef-ar" format="2">
  <advance width="302"/>
  <unicode hex="0627"/>
  <anchor x="158" y="-111" name="bottom"/>
  <anchor x="158" y="-10" name="bottom.dot"/>
  <anchor x="143" y="788" name="top"/>
  <outline>
    <contour>
      <point x="81" y="0" type="line"/>
      <point x="242" y="0" type="line"/>
      <point x="221" y="760" type="line"/>
      <point x="60" y="760" type="line"/>
    </contour>
  </outline>
</glyph>
<glyph name="hah-ar" format="2">
  <advance width="722"/>
  <unicode hex="062D"/>
  <anchor x="333" y="-435" name="bottom"/>
  <anchor x="435" y="-6" name="center"/>
  <anchor x="331" y="630" name="top"/>
  <anchor x="327" y="544" name="top.dot"/>
  <outline>
    <contour>
      <point x="412" y="-394" type="curve" smooth="yes"/>
      <point x="508" y="-394"/>
      <point x="621" y="-369"/>
      <point x="677" y="-349" type="curve"/>
      <point x="679" y="-187" type="line"/>
      <point x="611" y="-202"/>
      <point x="535" y="-214"/>
      <point x="437" y="-214" type="curve" smooth="yes"/>
      <point x="309" y="-214"/>
      <point x="188" y="-173"/>
      <point x="188" y="-51" type="curve" smooth="yes"/>
      <point x="188" y="147"/>
      <point x="534" y="266"/>
      <point x="683" y="286" type="curve"/>
      <point x="692" y="441" type="line"/>
      <point x="653" y="441"/>
      <point x="620" y="443"/>
      <point x="584" y="447" type="curve" smooth="yes"/>
      <point x="431" y="465"/>
      <point x="319" y="555"/>
      <point x="184" y="555" type="curve" smooth="yes"/>
      <point x="140" y="555"/>
      <point x="99" y="547"/>
      <point x="61" y="528" type="curve"/>
      <point x="51" y="371" type="line"/>
      <point x="89" y="379"/>
      <point x="123" y="384"/>
      <point x="166" y="384" type="curve" smooth="yes"/>
      <point x="262" y="384"/>
      <point x="347" y="345"/>
      <point x="507" y="315" type="curve"/>
      <point x="513" y="365" type="line"/>
      <point x="284" y="326"/>
      <point x="24" y="173"/>
      <point x="24" y="-77" type="curve" smooth="yes"/>
      <point x="24" y="-270"/>
      <point x="148" y="-394"/>
    </contour>
  </outline>
</glyph>
<glyph name="dal-ar" format="2">
  <advance width="522"/>
  <unicode hex="062F"/>
  <anchor x="232" y="-111" name="bottom"/>
  <anchor x="235" y="-21" name="bottom.dot"/>
  <anchor x="265" y="642" name="top"/>
  <anchor x="265" y="536" name="top.dot"/>
  <outline>
    <contour>
      <point x="195" y="-10" type="curve" smooth="yes"/>
      <point x="357" y="-10"/>
      <point x="477" y="47"/>
      <point x="477" y="177" type="curve" smooth="yes"/>
      <point x="477" y="292"/>
      <point x="417" y="419"/>
      <point x="301" y="564" type="curve"/>
      <point x="174" y="452" type="line"/>
      <point x="260" y="346"/>
      <point x="317" y="257"/>
      <point x="317" y="215" type="curve" smooth="yes"/>
      <point x="317" y="181"/>
      <point x="269" y="170"/>
      <point x="199" y="170" type="curve" smooth="yes"/>
      <point x="144" y="170"/>
      <point x="85" y="179"/>
      <point x="38" y="195" type="curve"/>
      <point x="34" y="29" type="line"/>
      <point x="65" y="4"/>
      <point x="132" y="-10"/>
    </contour>
  </outline>
</glyph>
<glyph name="reh-ar" format="2">
  <advance width="490"/>
  <unicode hex="0631"/>
  <anchor x="148" y="-308" name="bottom"/>
  <anchor x="148" y="-252" name="bottom.dot"/>
  <anchor x="211" y="31" name="center"/>
  <anchor x="237" y="513" name="top"/>
  <anchor x="241" y="360" name="top.dot"/>
  <outline>
    <contour>
      <point x="107" y="-266" type="curve" smooth="yes"/>
      <point x="320" y="-266"/>
      <point x="442" y="-143"/>
      <point x="442" y="66" type="curve" smooth="yes"/>
      <point x="442" y="183"/>
      <point x="389" y="293"/>
      <point x="321" y="394" type="curve"/>
      <point x="180" y="305" type="line"/>
      <point x="242" y="202"/>
      <point x="282" y="125"/>
      <point x="282" y="52" type="curve" smooth="yes"/>
      <point x="282" y="-53"/>
      <point x="206" y="-102"/>
      <point x="82" y="-102" type="curve" smooth="yes"/>
      <point x="41" y="-102"/>
      <point x="2" y="-98"/>
      <point x="-42" y="-89" type="curve"/>
      <point x="-35" y="-238" type="line"/>
      <point x="1" y="-257"/>
      <point x="53" y="-266"/>
    </contour>
  </outline>
</glyph>
<glyph name="sad-ar" format="2">
  <advance width="1383"/>
  <unicode hex="0635"/>
  <anchor x="939" y="-112" name="bottom"/>
  <anchor x="939" y="-20" name="bottom.dot"/>
  <anchor x="707" y="569" name="top"/>
  <anchor x="1049" y="499" name="top.dot"/>
  <outline>
    <contour>
      <point x="328" y="-232" type="curve" smooth="yes"/>
      <point x="526" y="-232"/>
      <point x="708" y="-127"/>
      <point x="689" y="113" type="curve"/>
      <point x="627" y="91" type="line"/>
      <point x="682" y="12"/>
      <point x="783" y="-10"/>
      <point x="932" y="-10" type="curve" smooth="yes"/>
      <point x="1216" y="-10"/>
      <point x="1338" y="88"/>
      <point x="1338" y="252" type="curve" smooth="yes"/>
      <point x="1338" y="389"/>
      <point x="1248" y="502"/>
      <point x="1104" y="502" type="curve" smooth="yes"/>
      <point x="950" y="502"/>
      <point x="790" y="378"/>
      <point x="660" y="142" type="curve"/>
      <point x="798" y="96" type="line"/>
      <point x="869" y="225"/>
      <point x="959" y="322"/>
      <point x="1064" y="322" type="curve" smooth="yes"/>
      <point x="1131" y="322"/>
      <point x="1174" y="280"/>
      <point x="1174" y="237" type="curve" smooth="yes"/>
      <point x="1174" y="183"/>
      <point x="1116" y="170"/>
      <point x="940" y="170" type="curve" smooth="yes"/>
      <point x="728" y="170"/>
      <point x="693" y="181"/>
      <point x="682" y="231" type="curve" smooth="yes"/>
      <point x="674" y="266"/>
      <point x="668" y="300"/>
      <point x="655" y="370" type="curve"/>
      <point x="508" y="335" type="line"/>
      <point x="522" y="254"/>
      <point x="536" y="177"/>
      <point x="536" y="108" type="curve" smooth="yes"/>
      <point x="536" y="-10"/>
      <point x="464" y="-52"/>
      <point x="344" y="-52" type="curve" smooth="yes"/>
      <point x="252" y="-52"/>
      <point x="201" y="-27"/>
      <point x="201" y="71" type="curve" smooth="yes"/>
      <point x="201" y="123"/>
      <point x="209" y="167"/>
      <point x="225" y="236" type="curve"/>
      <point x="99" y="263" type="line"/>
      <point x="60" y="176"/>
      <point x="44" y="99"/>
      <point x="44" y="33" type="curve" smooth="yes"/>
      <point x="44" y="-148"/>
      <point x="155" y="-232"/>
    </contour>
  </outline>
</glyph>
<glyph name="tah-ar" format="2">
  <advance width="894"/>
  <unicode hex="0637"/>
  <anchor x="398" y="-111" name="bottom"/>
  <anchor x="397" y="-20" name="bottom.dot"/>
  <anchor x="585" y="642" name="top"/>
  <anchor x="582" y="494" name="top.dot"/>
  <outline>
    <contour>
      <point x="405" y="-10" type="curve" smooth="yes"/>
      <point x="709" y="-10"/>
      <point x="849" y="88"/>
      <point x="849" y="252" type="curve" smooth="yes"/>
      <point x="849" y="389"/>
      <point x="759" y="502"/>
      <point x="615" y="502" type="curve" smooth="yes"/>
      <point x="481" y="502"/>
      <point x="321" y="378"/>
      <point x="171" y="142" type="curve"/>
      <point x="302" y="96" type="line"/>
      <point x="373" y="225"/>
      <point x="470" y="322"/>
      <point x="575" y="322" type="curve" smooth="yes"/>
      <point x="652" y="322"/>
      <point x="685" y="280"/>
      <point x="685" y="237" type="curve" smooth="yes"/>
      <point x="685" y="183"/>
      <point x="609" y="170"/>
      <point x="423" y="170" type="curve" smooth="yes"/>
      <point x="340" y="170"/>
      <point x="197" y="169"/>
      <point x="40" y="179" type="curve"/>
      <point x="30" y="3" type="line"/>
      <point x="151" y="-7"/>
      <point x="283" y="-10"/>
    </contour>
    <contour>
      <point x="229" y="99" type="line"/>
      <point x="381" y="308" type="line"/>
      <point x="365" y="760" type="line"/>
      <point x="208" y="760" type="line"/>
    </contour>
  </outline>
</glyph>
<glyph name="kashida-ar" format="2">
  <advance width="300"/>
  <unicode hex="0640"/>
  <outline>
    <contour>
      <point x="0" y="-10" type="line"/>
      <point x="300" y="-10" type="line" smooth="yes"/>
      <point x="366" y="-10"/>
      <point x="400" y="30"/>
      <point x="400" y="81" type="curve" smooth="yes"/>
      <point x="400" y="126"/>
      <point x="374" y="170"/>
      <point x="310" y="170" type="curve" smooth="yes"/>
      <point x="10" y="170" type="line"/>
    </contour>
  </outline>
</glyph>
<glyph name="kaf-ar" format="2">
  <advance width="965"/>
  <unicode hex="0643"/>
  <anchor x="460" y="-111" name="bottom"/>
  <anchor x="461" y="-20" name="bottom.dot"/>
  <anchor x="484" y="667" name="top"/>
  <anchor x="806" y="744" name="top.dot"/>
  <outline>
    <contour>
      <point x="450" y="-15" type="line"/>
      <point x="802" y="-15"/>
      <point x="913" y="76"/>
      <point x="905" y="332" type="curve" smooth="yes"/>
      <point x="891" y="760" type="line"/>
      <point x="730" y="760" type="line"/>
      <point x="746" y="319" type="line" smooth="yes"/>
      <point x="750" y="198"/>
      <point x="705" y="165"/>
      <point x="476" y="165" type="curve"/>
    </contour>
    <contour>
      <point x="366" y="304" type="line"/>
      <point x="503" y="299"/>
      <point x="606" y="336"/>
      <point x="606" y="413" type="curve" smooth="yes"/>
      <point x="606" y="450"/>
      <point x="584" y="472"/>
      <point x="542" y="491" type="curve" smooth="yes"/>
      <point x="512" y="504"/>
      <point x="495" y="510"/>
      <point x="495" y="522" type="curve" smooth="yes"/>
      <point x="495" y="537"/>
      <point x="536" y="551"/>
      <point x="594" y="553" type="curve"/>
      <point x="586" y="659" type="line"/>
      <point x="425" y="631"/>
      <point x="378" y="571"/>
      <point x="378" y="516" type="curve" smooth="yes"/>
      <point x="378" y="479"/>
      <point x="395" y="458"/>
      <point x="424" y="442" type="curve" smooth="yes"/>
      <point x="452" y="426"/>
      <point x="466" y="421"/>
      <point x="466" y="412" type="curve" smooth="yes"/>
      <point x="466" y="394"/>
      <point x="430" y="392"/>
      <point x="355" y="394" type="curve"/>
    </contour>
    <component base="_part.beh.fina" xOffset="6"/>
  </outline>
</glyph>
<glyph name="lam-ar" format="2">
  <advance width="730"/>
  <unicode hex="0644"/>
  <anchor x="338" y="-274" name="bottom"/>
  <anchor x="338" y="-214" name="bottom.dot"/>
  <anchor x="583" y="463" name="center"/>
  <anchor x="225" y="504" name="top"/>
  <anchor x="573" y="744" name="top.dot"/>
  <outline>
    <contour>
      <point x="338" y="-232" type="curve" smooth="yes"/>
      <point x="563" y="-232"/>
      <point x="678" y="-108"/>
      <point x="670" y="177" type="curve" smooth="yes"/>
      <point x="654" y="760" type="line"/>
      <point x="492" y="760" type="line"/>
      <point x="512" y="162" type="line" smooth="yes"/>
      <point x="517" y="4"/>
      <point x="476" y="-52"/>
      <point x="354" y="-52" type="curve" smooth="yes"/>
      <point x="262" y="-52"/>
      <point x="201" y="-27"/>
      <point x="201" y="71" type="curve" smooth="yes"/>
      <point x="201" y="123"/>
      <point x="209" y="167"/>
      <point x="225" y="236" type="curve"/>
      <point x="99" y="263" type="line"/>
      <point x="60" y="176"/>
      <point x="44" y="99"/>
      <point x="44" y="33" type="curve" smooth="yes"/>
      <point x="44" y="-148"/>
      <point x="165" y="-232"/>
    </contour>
  </outline>
</glyph>
<glyph name="meem-ar" format="2">
  <advance width="600"/>
  <unicode hex="0645"/>
  <anchor x="372" y="-111" name="bottom"/>
  <anchor x="372" y="-20" name="bottom.dot"/>
  <anchor x="302" y="587" name="top"/>
  <anchor x="304" y="477" name="top.dot"/>
  <outline>
    <contour>
      <point x="53" y="-383" type="curve"/>
      <point x="217" y="-379" type="line"/>
      <point x="210" y="-273"/>
      <point x="201" y="-151"/>
      <point x="201" y="-90" type="curve" smooth="yes"/>
      <point x="201" y="2"/>
      <point x="242" y="28"/>
      <point x="348" y="28" type="curve" smooth="yes"/>
      <point x="409" y="28"/>
      <point x="472" y="20"/>
      <point x="531" y="10" type="curve"/>
      <point x="576" y="167" type="line"/>
      <point x="528" y="335"/>
      <point x="439" y="487"/>
      <point x="303" y="487" type="curve" smooth="yes"/>
      <point x="204" y="487"/>
      <point x="123" y="423"/>
      <point x="83" y="297" type="curve"/>
      <point x="207" y="241" type="line"/>
      <point x="232" y="288"/>
      <point x="257" y="307"/>
      <point x="292" y="307" type="curve" smooth="yes"/>
      <point x="343" y="307"/>
      <point x="388" y="258"/>
      <point x="419" y="154" type="curve"/>
      <point x="482" y="185" type="line"/>
      <point x="441" y="191"/>
      <point x="381" y="200"/>
      <point x="315" y="200" type="curve" smooth="yes"/>
      <point x="140" y="200"/>
      <point x="36" y="115"/>
      <point x="36" y="-72" type="curve" smooth="yes"/>
      <point x="36" y="-174"/>
      <point x="44" y="-278"/>
    </contour>
  </outline>
</glyph>
<glyph name="heh-ar" format="2">
  <advance width="549"/>
  <unicode hex="0647"/>
  <anchor x="269" y="-111" name="bottom"/>
  <anchor x="257" y="630" name="top"/>
  <anchor x="257" y="561" name="top.dot"/>
  <outline>
    <contour>
      <point x="272" y="-10" type="curve" smooth="yes"/>
      <point x="431" y="-10"/>
      <point x="514" y="92"/>
      <point x="514" y="221" type="curve" smooth="yes"/>
      <point x="514" y="360"/>
      <point x="426" y="476"/>
      <point x="237" y="594" type="curve"/>
      <point x="144" y="464" type="line"/>
      <point x="324" y="343"/>
      <point x="357" y="291"/>
      <point x="357" y="237" type="curve" smooth="yes"/>
      <point x="357" y="195"/>
      <point x="333" y="170"/>
      <point x="282" y="170" type="curve" smooth="yes"/>
      <point x="237" y="170"/>
      <point x="205" y="192"/>
      <point x="205" y="236" type="curve" smooth="yes"/>
      <point x="205" y="283"/>
      <point x="244" y="339"/>
      <point x="311" y="393" type="curve"/>
      <point x="228" y="489" type="line"/>
      <point x="105" y="384"/>
      <point x="45" y="293"/>
      <point x="45" y="192" type="curve" smooth="yes"/>
      <point x="45" y="73"/>
      <point x="120" y="-10"/>
    </contour>
  </outline>
</glyph>
<glyph name="alefMaksura-ar" format="2">
  <advance width="845"/>
  <unicode hex="0649"/>
  <anchor x="357" y="-261" name="bottom"/>
  <anchor x="357" y="-221" name="bottom.dot"/>
  <anchor x="251" y="376" name="top"/>
  <anchor x="168" y="235" name="top.dot"/>
  <outline>
    <contour>
      <point x="356" y="-232" type="curve" smooth="yes"/>
      <point x="623" y="-232"/>
      <point x="771" y="-80"/>
      <point x="771" y="60" type="curve" smooth="yes"/>
      <point x="771" y="151"/>
      <point x="717" y="179"/>
      <point x="589" y="206" type="curve" smooth="yes"/>
      <point x="514" y="222"/>
      <point x="494" y="232"/>
      <point x="494" y="254" type="curve" smooth="yes"/>
      <point x="494" y="293"/>
      <point x="546" y="343"/>
      <point x="642" y="343" type="curve" smooth="yes"/>
      <point x="691" y="343"/>
      <point x="727" y="333"/>
      <point x="769" y="316" type="curve"/>
      <point x="805" y="481" type="line"/>
      <point x="771" y="505"/>
      <point x="716" y="521"/>
      <point x="657" y="521" type="curve" smooth="yes"/>
      <point x="481" y="521"/>
      <point x="342" y="377"/>
      <point x="342" y="223" type="curve" smooth="yes"/>
      <point x="342" y="137"/>
      <point x="378" y="80"/>
      <point x="517" y="49" type="curve" smooth="yes"/>
      <point x="590" y="33"/>
      <point x="601" y="30"/>
      <point x="601" y="15" type="curve" smooth="yes"/>
      <point x="601" y="-14"/>
      <point x="528" y="-52"/>
      <point x="382" y="-52" type="curve" smooth="yes"/>
      <point x="263" y="-52"/>
      <point x="201" y="-27"/>
      <point x="201" y="71" type="curve" smooth="yes"/>
      <point x="201" y="123"/>
      <point x="209" y="167"/>
      <point x="225" y="236" type="curve"/>
      <point x="99" y="263" type="line"/>
      <point x="60" y="176"/>
      <point x="44" y="99"/>
      <point x="44" y="33" type="curve" smooth="yes"/>
      <point x="44" y="-148"/>
      <point x="163" y="-232"/>
    </contour>
  </outline>
</glyph>
<glyph name="fathatan-ar" format="2">
  <unicode hex="064B"/>
  <guideline x="33" y="743" angle="90"/>
  <anchor x="165" y="578" name="_top"/>
  <anchor x="169" y="800" name="top"/>
  <outline>
    <contour>
      <point x="43" y="696" type="line"/>
      <point x="287" y="746" type="line"/>
      <point x="274" y="814" type="line"/>
      <point x="30" y="763" type="line"/>
    </contour>
    <contour>
      <point x="43" y="586" type="line"/>
      <point x="287" y="636" type="line"/>
      <point x="274" y="704" type="line"/>
      <point x="30" y="653" type="line"/>
    </contour>
  </outline>
</glyph>
<glyph name="dammatan-ar" format="2">
  <unicode hex="064C"/>
  <guideline x="100" y="742" angle="90"/>
  <anchor x="205" y="590" name="_top"/>
  <anchor x="204" y="858" name="top"/>
  <outline>
    <contour>
      <point x="60" y="616" type="line"/>
      <point x="299" y="626"/>
      <point x="370" y="706"/>
      <point x="370" y="793" type="curve" smooth="yes"/>
      <point x="370" y="852"/>
      <point x="333" y="888"/>
      <point x="281" y="888" type="curve" smooth="yes"/>
      <point x="224" y="888"/>
      <point x="183" y="847"/>
      <point x="183" y="788" type="curve" smooth="yes"/>
      <point x="183" y="750"/>
      <point x="206" y="710"/>
      <point x="245" y="694" type="curve"/>
      <point x="291" y="734" type="line"/>
      <point x="264" y="745"/>
      <point x="250" y="766"/>
      <point x="250" y="789" type="curve" smooth="yes"/>
      <point x="250" y="809"/>
      <point x="260" y="821"/>
      <point x="276" y="821" type="curve" smooth="yes"/>
      <point x="294" y="821"/>
      <point x="302" y="808"/>
      <point x="302" y="787" type="curve" smooth="yes"/>
      <point x="302" y="737"/>
      <point x="235" y="698"/>
      <point x="134" y="690" type="curve"/>
      <point x="128" y="660" type="line"/>
      <point x="155" y="667"/>
      <point x="170" y="699"/>
      <point x="170" y="733" type="curve" smooth="yes"/>
      <point x="170" y="779"/>
      <point x="148" y="811"/>
      <point x="102" y="811" type="curve" smooth="yes"/>
      <point x="74" y="811"/>
      <point x="48" y="800"/>
      <point x="30" y="785" type="curve"/>
      <point x="49" y="733" type="line"/>
      <point x="60" y="739"/>
      <point x="70" y="742"/>
      <point x="80" y="742" type="curve" smooth="yes"/>
      <point x="93" y="742"/>
      <point x="101" y="734"/>
      <point x="101" y="718" type="curve" smooth="yes"/>
      <point x="101" y="695"/>
      <point x="86" y="684"/>
      <point x="50" y="680" type="curve"/>
    </contour>
  </outline>
</glyph>
<glyph name="fatha-ar" format="2">
  <unicode hex="064E"/>
  <anchor x="158" y="590" name="_top"/>
  <anchor x="160" y="550" name="_top.dot"/>
  <anchor x="145" y="724" name="top"/>
  <outline>
    <contour>
      <point x="43" y="596" type="line"/>
      <point x="287" y="646" type="line"/>
      <point x="274" y="714" type="line"/>
      <point x="30" y="663" type="line"/>
    </contour>
  </outline>
</glyph>
<glyph name="damma-ar" format="2">
  <unicode hex="064F"/>
  <anchor x="160" y="587" name="_top"/>
  <anchor x="160" y="550" name="_top.dot"/>
  <anchor x="170" y="876" name="top"/>
  <outline>
    <contour>
      <point x="42" y="599" type="line"/>
      <point x="201" y="609"/>
      <point x="292" y="674"/>
      <point x="292" y="761" type="curve" smooth="yes"/>
      <point x="292" y="813"/>
      <point x="260" y="860"/>
      <point x="195" y="860" type="curve" smooth="yes"/>
      <point x="137" y="860"/>
      <point x="93" y="822"/>
      <point x="93" y="766" type="curve" smooth="yes"/>
      <point x="93" y="718"/>
      <point x="122" y="685"/>
      <point x="161" y="669" type="curve"/>
      <point x="209" y="709" type="line"/>
      <point x="182" y="717"/>
      <point x="163" y="738"/>
      <point x="163" y="761" type="curve" smooth="yes"/>
      <point x="163" y="781"/>
      <point x="177" y="793"/>
      <point x="195" y="793" type="curve" smooth="yes"/>
      <point x="213" y="793"/>
      <point x="223" y="778"/>
      <point x="223" y="757" type="curve" smooth="yes"/>
      <point x="223" y="710"/>
      <point x="159" y="676"/>
      <point x="30" y="664" type="curve"/>
    </contour>
  </outline>
</glyph>
<glyph name="shadda-ar" format="2">
  <unicode hex="0651"/>
  <guideline x="30" y="572" angle="90"/>
  <anchor x="186" y="590" name="_top"/>
  <anchor x="181" y="818" name="top"/>
  <outline>
    <contour>
      <point x="105" y="604" type="curve" smooth="yes"/>
      <point x="145" y="604"/>
      <point x="186" y="638"/>
      <point x="186" y="704" type="curve"/>
      <point x="163" y="713" type="line"/>
      <point x="163" y="662"/>
      <point x="198" y="637"/>
      <point x="229" y="637" type="curve" smooth="yes"/>
      <point x="293" y="637"/>
      <point x="317" y="682"/>
      <point x="317" y="743" type="curve" smooth="yes"/>
      <point x="317" y="770"/>
      <point x="308" y="806"/>
      <point x="295" y="832" type="curve"/>
      <point x="232" y="814" type="line"/>
      <point x="237" y="791"/>
      <point x="241" y="771"/>
      <point x="241" y="748" type="curve" smooth="yes"/>
      <point x="241" y="727"/>
      <point x="237" y="715"/>
      <point x="221" y="715" type="curve" smooth="yes"/>
      <point x="208" y="715"/>
      <point x="203" y="721"/>
      <point x="203" y="744" type="curve" smooth="yes"/>
      <point x="203" y="805" type="line"/>
      <point x="143" y="787" type="line"/>
      <point x="143" y="757" type="line" smooth="yes"/>
      <point x="143" y="698"/>
      <point x="134" y="686"/>
      <point x="119" y="686" type="curve" smooth="yes"/>
      <point x="108" y="686"/>
      <point x="103" y="691"/>
      <point x="103" y="716" type="curve" smooth="yes"/>
      <point x="103" y="733"/>
      <point x="106" y="753"/>
      <point x="108" y="773" type="curve"/>
      <point x="36" y="759" type="line"/>
      <point x="32" y="737"/>
      <point x="30" y="722"/>
      <point x="30" y="707" type="curve" smooth="yes"/>
      <point x="30" y="650"/>
      <point x="43" y="604"/>
    </contour>
  </outline>
</glyph>
<glyph name="madda-ar" format="2">
  <unicode hex="0653"/>
  <anchor x="177" y="587" name="_top"/>
  <anchor x="177" y="550" name="_top.dot"/>
  <anchor x="188" y="738" name="top"/>
  <outline>
    <contour>
      <point x="237" y="609" type="curve" smooth="yes"/>
      <point x="281" y="609"/>
      <point x="323" y="636"/>
      <point x="357" y="675" type="curve"/>
      <point x="313" y="736" type="line"/>
      <point x="287" y="714"/>
      <point x="265" y="697"/>
      <point x="236" y="697" type="curve" smooth="yes"/>
      <point x="191" y="697"/>
      <point x="162" y="735"/>
      <point x="112" y="735" type="curve" smooth="yes"/>
      <point x="71" y="735"/>
      <point x="36" y="706"/>
      <point x="7" y="667" type="curve"/>
      <point x="50" y="611" type="line"/>
      <point x="73" y="633"/>
      <point x="91" y="648"/>
      <point x="116" y="648" type="curve" smooth="yes"/>
      <point x="149" y="648"/>
      <point x="185" y="609"/>
    </contour>
  </outline>
</glyph>
<glyph name="noonghunnaabove-ar" format="2">
  <unicode hex="0658"/>
  <anchor x="144" y="587" name="_top"/>
  <anchor x="151" y="820" name="top"/>
  <outline>
    <contour>
      <point x="142" y="600" type="curve" smooth="yes"/>
      <point x="241" y="600"/>
      <point x="285" y="662"/>
      <point x="285" y="737" type="curve" smooth="yes"/>
      <point x="285" y="774"/>
      <point x="279" y="801"/>
      <point x="272" y="826" type="curve"/>
      <point x="204" y="814" type="line"/>
      <point x="209" y="789"/>
      <point x="214" y="762"/>
      <point x="214" y="733" type="curve" smooth="yes"/>
      <point x="214" y="689"/>
      <point x="193" y="670"/>
      <point x="149" y="670" type="curve" smooth="yes"/>
      <point x="106" y="670"/>
      <point x="85" y="686"/>
      <point x="85" y="727" type="curve" smooth="yes"/>
      <point x="85" y="745"/>
      <point x="88" y="767"/>
      <point x="91" y="785" type="curve"/>
      <point x="29" y="794" type="line"/>
      <point x="23" y="771"/>
      <point x="18" y="743"/>
      <point x="18" y="715" type="curve" smooth="yes"/>
      <point x="18" y="642"/>
      <point x="60" y="600"/>
    </contour>
  </outline>
</glyph>
<glyph name="fathaHorizont-ar" format="2">
  <unicode hex="0659"/>
  <anchor x="163" y="587" name="_top"/>
  <anchor x="159" y="740" name="top"/>
  <outline>
    <contour>
      <point x="30" y="633" type="line"/>
      <point x="284" y="633" type="line"/>
      <point x="284" y="697" type="line"/>
      <point x="30" y="696" type="line"/>
    </contour>
  </outline>
</glyph>
<glyph name="fathatwodots-ar" format="2">
  <unicode hex="065E"/>
  <anchor x="165" y="587" name="_top"/>
  <anchor x="172" y="945" name="top"/>
  <outline>
    <contour>
      <point x="40" y="625" type="line"/>
      <point x="286" y="809" type="line"/>
      <point x="286" y="895" type="line"/>
      <point x="40" y="710" type="line"/>
    </contour>
    <contour>
      <point x="231" y="589" type="curve"/>
      <point x="300" y="657" type="line"/>
      <point x="271" y="689"/>
      <point x="255" y="703"/>
      <point x="227" y="727" type="curve"/>
      <point x="159" y="656" type="line"/>
      <point x="190" y="629"/>
      <point x="204" y="615"/>
    </contour>
    <contour>
      <point x="106" y="799" type="curve"/>
      <point x="175" y="867" type="line"/>
      <point x="146" y="899"/>
      <point x="130" y="913"/>
      <point x="102" y="937" type="curve"/>
      <point x="34" y="866" type="line"/>
      <point x="65" y="839"/>
      <point x="79" y="825"/>
    </contour>
  </outline>
</glyph>
<glyph name="zero-ar" format="2">
  <advance width="361"/>
  <unicode hex="0660"/>
  <outline>
    <contour>
      <point x="186" y="99" type="curve"/>
      <point x="311" y="225" type="line"/>
      <point x="272" y="269"/>
      <point x="224" y="318"/>
      <point x="172" y="361" type="curve"/>
      <point x="50" y="231" type="line"/>
      <point x="102" y="184"/>
      <point x="132" y="153"/>
    </contour>
  </outline>
</glyph>
<glyph name="one-ar" format="2">
  <advance width="370"/>
  <unicode hex="0661"/>
  <outline>
    <contour>
      <point x="124" y="-7" type="curve"/>
      <point x="300" y="0" type="line"/>
      <point x="300" y="217"/>
      <point x="277" y="476"/>
      <point x="211" y="692" type="curve"/>
      <point x="35" y="646" type="line"/>
      <point x="95" y="436"/>
      <point x="120" y="197"/>
    </contour>
  </outline>
</glyph>
<glyph name="two-ar" format="2">
  <advance width="543"/>
  <unicode hex="0662"/>
  <outline>
    <contour>
      <point x="131" y="-10" type="curve"/>
      <point x="303" y="0" type="line"/>
      <point x="282" y="227"/>
      <point x="228" y="405"/>
      <point x="228" y="470" type="curve" smooth="yes"/>
      <point x="228" y="511"/>
      <point x="258" y="525"/>
      <point x="348" y="525" type="curve" smooth="yes"/>
      <point x="396" y="525"/>
      <point x="449" y="520"/>
      <point x="489" y="515" type="curve"/>
      <point x="498" y="689" type="line"/>
      <point x="452" y="698"/>
      <point x="405" y="704"/>
      <point x="336" y="704" type="curve" smooth="yes"/>
      <point x="154" y="704"/>
      <point x="44" y="640"/>
      <point x="44" y="511" type="curve" smooth="yes"/>
      <point x="44" y="405"/>
      <point x="103" y="213"/>
    </contour>
  </outline>
</glyph>
<glyph name="three-ar" format="2">
  <advance width="681"/>
  <unicode hex="0663"/>
  <outline>
    <contour>
      <point x="134" y="-7" type="curve"/>
      <point x="298" y="0" type="line"/>
      <point x="295" y="139"/>
      <point x="272" y="411"/>
      <point x="211" y="579" type="curve"/>
      <point x="163" y="446" type="line"/>
      <point x="184" y="413"/>
      <point x="236" y="375"/>
      <point x="276" y="373" type="curve" smooth="yes"/>
      <point x="333" y="370"/>
      <point x="381" y="391"/>
      <point x="406" y="457" type="curve"/>
      <point x="370" y="457" type="line"/>
      <point x="379" y="411"/>
      <point x="414" y="375"/>
      <point x="489" y="373" type="curve" smooth="yes"/>
      <point x="586" y="375"/>
      <point x="646" y="436"/>
      <point x="646" y="551" type="curve" smooth="yes"/>
      <point x="646" y="579"/>
      <point x="638" y="646"/>
      <point x="620" y="704" type="curve"/>
      <point x="494" y="676" type="line"/>
      <point x="501" y="642"/>
      <point x="508" y="611"/>
      <point x="508" y="577" type="curve" smooth="yes"/>
      <point x="508" y="548"/>
      <point x="502" y="531"/>
      <point x="475" y="531" type="curve" smooth="yes"/>
      <point x="451" y="531"/>
      <point x="440" y="539"/>
      <point x="437" y="563" type="curve" smooth="yes"/>
      <point x="433" y="592"/>
      <point x="434" y="626"/>
      <point x="434" y="676" type="curve"/>
      <point x="305" y="677" type="line"/>
      <point x="305" y="612"/>
      <point x="304" y="582"/>
      <point x="300" y="561" type="curve" smooth="yes"/>
      <point x="296" y="541"/>
      <point x="285" y="530"/>
      <point x="265" y="530" type="curve" smooth="yes"/>
      <point x="242" y="530"/>
      <point x="231" y="545"/>
      <point x="223" y="575" type="curve" smooth="yes"/>
      <point x="216" y="600"/>
      <point x="210" y="629"/>
      <point x="193" y="692" type="curve"/>
      <point x="25" y="650" type="line"/>
      <point x="84" y="422"/>
      <point x="116" y="207"/>
    </contour>
  </outline>
</glyph>
<glyph name="four-ar" format="2">
  <advance width="529"/>
  <unicode hex="0664"/>
  <outline>
    <contour>
      <point x="291" y="-10" type="curve" smooth="yes"/>
      <point x="369" y="-10"/>
      <point x="439" y="9"/>
      <point x="489" y="37" type="curve"/>
      <point x="472" y="183" type="line"/>
      <point x="433" y="170"/>
      <point x="369" y="156"/>
      <point x="314" y="156" type="curve" smooth="yes"/>
      <point x="267" y="156"/>
      <point x="233" y="161"/>
      <point x="233" y="192" type="curve" smooth="yes"/>
      <point x="233" y="224"/>
      <point x="285" y="256"/>
      <point x="381" y="284" type="curve"/>
      <point x="372" y="416" type="line"/>
      <point x="255" y="411"/>
      <point x="217" y="429"/>
      <point x="217" y="455" type="curve" smooth="yes"/>
      <point x="217" y="486"/>
      <point x="265" y="517"/>
      <point x="387" y="538" type="curve"/>
      <point x="372" y="696" type="line"/>
      <point x="151" y="642"/>
      <point x="56" y="544"/>
      <point x="56" y="447" type="curve" smooth="yes"/>
      <point x="56" y="367"/>
      <point x="126" y="315"/>
      <point x="243" y="298" type="curve"/>
      <point x="240" y="356" type="line"/>
      <point x="128" y="306"/>
      <point x="50" y="238"/>
      <point x="50" y="150" type="curve" smooth="yes"/>
      <point x="50" y="58"/>
      <point x="116" y="-10"/>
    </contour>
  </outline>
</glyph>
<glyph name="five-ar" format="2">
  <advance width="547"/>
  <unicode hex="0665"/>
  <outline>
    <contour>
      <point x="270" y="0" type="curve" smooth="yes"/>
      <point x="413" y="0"/>
      <point x="507" y="84"/>
      <point x="507" y="262" type="curve" smooth="yes"/>
      <point x="507" y="432"/>
      <point x="430" y="567"/>
      <point x="282" y="567" type="curve" smooth="yes"/>
      <point x="139" y="567"/>
      <point x="40" y="430"/>
      <point x="40" y="249" type="curve" smooth="yes"/>
      <point x="40" y="83"/>
      <point x="125" y="0"/>
    </contour>
    <contour>
      <point x="271" y="164" type="curve" smooth="yes"/>
      <point x="221" y="164"/>
      <point x="190" y="195"/>
      <point x="190" y="266" type="curve" smooth="yes"/>
      <point x="190" y="347"/>
      <point x="223" y="403"/>
      <point x="278" y="403" type="curve" smooth="yes"/>
      <point x="328" y="403"/>
      <point x="354" y="354"/>
      <point x="354" y="265" type="curve" smooth="yes"/>
      <point x="354" y="190"/>
      <point x="318" y="164"/>
    </contour>
  </outline>
</glyph>
<glyph name="six-ar" format="2">
  <advance width="548"/>
  <unicode hex="0666"/>
  <outline>
    <contour>
      <point x="329" y="-10" type="curve"/>
      <point x="507" y="4" type="line"/>
      <point x="475" y="205"/>
      <point x="441" y="488"/>
      <point x="429" y="683" type="curve"/>
      <point x="361" y="677"/>
      <point x="297" y="676"/>
      <point x="237" y="676" type="curve" smooth="yes"/>
      <point x="155" y="676"/>
      <point x="95" y="681"/>
      <point x="30" y="689" type="curve"/>
      <point x="25" y="523" type="line"/>
      <point x="94" y="513"/>
      <point x="147" y="511"/>
      <point x="207" y="511" type="curve" smooth="yes"/>
      <point x="261" y="511"/>
      <point x="315" y="515"/>
      <point x="353" y="521" type="curve"/>
      <point x="283" y="552" type="line"/>
      <point x="286" y="384"/>
      <point x="301" y="182"/>
    </contour>
  </outline>
</glyph>
<glyph name="seven-ar" format="2">
  <advance width="643"/>
  <unicode hex="0667"/>
  <outline>
    <contour>
      <point x="244" y="-10" type="curve"/>
      <point x="410" y="-2" type="line"/>
      <point x="475" y="207"/>
      <point x="561" y="474"/>
      <point x="627" y="650" type="curve"/>
      <point x="475" y="699" type="line"/>
      <point x="419" y="523"/>
      <point x="339" y="273"/>
      <point x="311" y="91" type="curve"/>
      <point x="355" y="91" type="line"/>
      <point x="324" y="278"/>
      <point x="241" y="527"/>
      <point x="170" y="699" type="curve"/>
      <point x="16" y="646" type="line"/>
      <point x="96" y="455"/>
      <point x="190" y="205"/>
    </contour>
  </outline>
</glyph>
<glyph name="nine-ar" format="2">
  <advance width="573"/>
  <unicode hex="0669"/>
  <outline>
    <contour>
      <point x="372" y="0" type="curve"/>
      <point x="540" y="28" type="line"/>
      <point x="523" y="166"/>
      <point x="508" y="274"/>
      <point x="491" y="407" type="curve" smooth="yes"/>
      <point x="467" y="598"/>
      <point x="406" y="702"/>
      <point x="258" y="702" type="curve" smooth="yes"/>
      <point x="118" y="702"/>
      <point x="15" y="577"/>
      <point x="15" y="431" type="curve" smooth="yes"/>
      <point x="15" y="293"/>
      <point x="101" y="230"/>
      <point x="241" y="231" type="curve" smooth="yes"/>
      <point x="285" y="231"/>
      <point x="335" y="241"/>
      <point x="384" y="262" type="curve"/>
      <point x="357" y="420" type="line"/>
      <point x="327" y="406"/>
      <point x="292" y="396"/>
      <point x="257" y="396" type="curve" smooth="yes"/>
      <point x="208" y="396"/>
      <point x="180" y="412"/>
      <point x="180" y="458" type="curve" smooth="yes"/>
      <point x="180" y="498"/>
      <point x="204" y="536"/>
      <point x="249" y="536" type="curve" smooth="yes"/>
      <point x="292" y="536"/>
      <point x="315" y="498"/>
      <point x="323" y="403" type="curve" smooth="yes"/>
      <point x="335" y="266"/>
      <point x="354" y="122"/>
    </contour>
  </outline>
</glyph>
<glyph name="thousandseparator-ar" format="2">
  <advance width="272"/>
  <unicode hex="066C"/>
  <outline>
    <contour>
      <point x="141" y="0" type="curve" smooth="yes"/>
      <point x="188" y="0"/>
      <point x="221" y="31"/>
      <point x="221" y="71" type="curve" smooth="yes"/>
      <point x="221" y="99"/>
      <point x="209" y="115"/>
      <point x="188" y="135" type="curve" smooth="yes"/>
      <point x="167" y="155"/>
      <point x="161" y="169"/>
      <point x="161" y="188" type="curve" smooth="yes"/>
      <point x="161" y="218"/>
      <point x="183" y="248"/>
      <point x="226" y="295" type="curve"/>
      <point x="165" y="346" type="line"/>
      <point x="86" y="282"/>
      <point x="40" y="198"/>
      <point x="40" y="124" type="curve" smooth="yes"/>
      <point x="40" y="49"/>
      <point x="78" y="0"/>
    </contour>
  </outline>
</glyph>
<glyph name="asterisk-ar" format="2">
  <advance width="498"/>
  <unicode hex="066D"/>
  <outline>
    <contour>
      <point x="91" y="0" type="line"/>
      <point x="249" y="109" type="line"/>
      <point x="409" y="-1" type="line"/>
      <point x="414" y="3" type="line"/>
      <point x="353" y="181" type="line"/>
      <point x="488" y="279" type="line"/>
      <point x="486" y="287" type="line"/>
      <point x="314" y="287" type="line"/>
      <point x="253" y="458" type="line"/>
      <point x="246" y="458" type="line"/>
      <point x="182" y="287" type="line"/>
      <point x="12" y="287" type="line"/>
      <point x="10" y="279" type="line"/>
      <point x="144" y="182" type="line"/>
      <point x="85" y="4" type="line"/>
    </contour>
  </outline>
</glyph>
<glyph name="dotlessbeh-ar" format="2">
  <advance width="1028"/>
  <unicode hex="066E"/>
  <anchor x="508" y="-111" name="bottom"/>
  <anchor x="508" y="-20" name="bottom.dot"/>
  <anchor x="513" y="518" name="top"/>
  <anchor x="513" y="329" name="top.dot"/>
  <outline>
    <contour>
      <point x="448" y="-15" type="line"/>
      <point x="842" y="-15"/>
      <point x="973" y="81"/>
      <point x="973" y="254" type="curve" smooth="yes"/>
      <point x="973" y="321"/>
      <point x="953" y="404"/>
      <point x="927" y="474" type="curve"/>
      <point x="776" y="426" type="line"/>
      <point x="798" y="360"/>
      <point x="815" y="312"/>
      <point x="815" y="264" type="curve" smooth="yes"/>
      <point x="815" y="192"/>
      <point x="721" y="165"/>
      <point x="474" y="165" type="curve"/>
    </contour>
    <component base="_part.beh.fina" xOffset="6"/>
  </outline>
</glyph>
<glyph name="dotlessqaf-ar" format="2">
  <advance width="847"/>
  <unicode hex="066F"/>
  <anchor x="397" y="-309" name="bottom"/>
  <anchor x="397" y="-249" name="bottom.dot"/>
  <anchor x="397" y="619" name="top"/>
  <anchor x="579" y="430" name="top.dot"/>
  <outline>
    <contour>
      <point x="408" y="-264" type="curve" smooth="yes"/>
      <point x="673" y="-264"/>
      <point x="802" y="-167"/>
      <point x="802" y="83" type="curve" smooth="yes"/>
      <point x="802" y="329"/>
      <point x="712" y="442"/>
      <point x="580" y="442" type="curve" smooth="yes"/>
      <point x="453" y="442"/>
      <point x="368" y="324"/>
      <point x="368" y="180" type="curve" smooth="yes"/>
      <point x="368" y="48"/>
      <point x="433" y="-1"/>
      <point x="565" y="-1" type="curve" smooth="yes"/>
      <point x="611" y="-1"/>
      <point x="687" y="13"/>
      <point x="724" y="35" type="curve"/>
      <point x="723" y="175" type="line"/>
      <point x="670" y="158"/>
      <point x="641" y="151"/>
      <point x="601" y="151" type="curve" smooth="yes"/>
      <point x="533" y="151"/>
      <point x="508" y="165"/>
      <point x="508" y="205" type="curve" smooth="yes"/>
      <point x="508" y="246"/>
      <point x="532" y="281"/>
      <point x="575" y="281" type="curve" smooth="yes"/>
      <point x="622" y="281"/>
      <point x="665" y="244"/>
      <point x="665" y="74" type="curve" smooth="yes"/>
      <point x="665" y="-56"/>
      <point x="598" y="-86"/>
      <point x="434" y="-86" type="curve" smooth="yes"/>
      <point x="272" y="-86"/>
      <point x="201" y="-57"/>
      <point x="201" y="51" type="curve" smooth="yes"/>
      <point x="201" y="110"/>
      <point x="209" y="157"/>
      <point x="225" y="226" type="curve"/>
      <point x="99" y="253" type="line"/>
      <point x="63" y="176"/>
      <point x="44" y="79"/>
      <point x="44" y="3" type="curve" smooth="yes"/>
      <point x="44" y="-178"/>
      <point x="165" y="-264"/>
    </contour>
  </outline>
</glyph>
<glyph name="dotlessfeh-ar" format="2">
  <advance width="1066"/>
  <unicode hex="06A1"/>
  <anchor x="512" y="-111" name="bottom"/>
  <anchor x="767" y="-20" name="bottom.dot"/>
  <anchor x="388" y="621" name="top"/>
  <anchor x="770" y="595" name="top.dot"/>
  <outline>
    <contour>
      <point x="450" y="-15" type="line"/>
      <point x="694" y="-15"/>
      <point x="830" y="6"/>
      <point x="900" y="44" type="curve" smooth="yes"/>
      <point x="979" y="87"/>
      <point x="1011" y="156"/>
      <point x="1011" y="286" type="curve" smooth="yes"/>
      <point x="1011" y="475"/>
      <point x="928" y="607"/>
      <point x="782" y="607" type="curve" smooth="yes"/>
      <point x="655" y="607"/>
      <point x="572" y="497"/>
      <point x="572" y="380" type="curve" smooth="yes"/>
      <point x="572" y="267"/>
      <point x="643" y="215"/>
      <point x="759" y="215" type="curve" smooth="yes"/>
      <point x="824" y="215"/>
      <point x="892" y="232"/>
      <point x="927" y="259" type="curve"/>
      <point x="916" y="371" type="line"/>
      <point x="869" y="348"/>
      <point x="828" y="340"/>
      <point x="780" y="340" type="curve" smooth="yes"/>
      <point x="736" y="340"/>
      <point x="706" y="349"/>
      <point x="706" y="389" type="curve" smooth="yes"/>
      <point x="706" y="428"/>
      <point x="734" y="454"/>
      <point x="774" y="454" type="curve" smooth="yes"/>
      <point x="835" y="454"/>
      <point x="871" y="398"/>
      <point x="871" y="284" type="curve" smooth="yes"/>
      <point x="871" y="220"/>
      <point x="869" y="208"/>
      <point x="848" y="193" type="curve" smooth="yes"/>
      <point x="814" y="168"/>
      <point x="662" y="165"/>
      <point x="476" y="165" type="curve"/>
    </contour>
    <component base="_part.beh.fina" xOffset="6"/>
  </outline>
</glyph>
<glyph name="keheh-ar" format="2">
  <advance width="955"/>
  <unicode hex="06A9"/>
  <anchor x="420" y="-111" name="bottom"/>
  <anchor x="420" y="-20" name="bottom.dot"/>
  <anchor x="778" y="579" name="center"/>
  <anchor x="305" y="619" name="top"/>
  <anchor x="601" y="612" name="top.dot"/>
  <outline>
    <contour>
      <point x="450" y="-15" type="line"/>
      <point x="716" y="-15"/>
      <point x="834" y="53"/>
      <point x="834" y="207" type="curve" smooth="yes"/>
      <point x="834" y="341"/>
      <point x="752" y="418"/>
      <point x="574" y="530" type="curve"/>
      <point x="536" y="440" type="line"/>
      <point x="935" y="586" type="line"/>
      <point x="934" y="764" type="line"/>
      <point x="471" y="564" type="line"/>
      <point x="443" y="418" type="line"/>
      <point x="611" y="321"/>
      <point x="669" y="256"/>
      <point x="669" y="213" type="curve" smooth="yes"/>
      <point x="669" y="178"/>
      <point x="627" y="165"/>
      <point x="460" y="165" type="curve"/>
    </contour>
    <component base="_part.beh.fina" xOffset="6"/>
  </outline>
</glyph>
<glyph name="kafswash-ar" format="2">
  <advance width="1151"/>
  <unicode hex="06AA"/>
  <anchor x="566" y="-111" name="bottom"/>
  <anchor x="315" y="601" name="top"/>
  <outline>
    <contour>
      <point x="450" y="-15" type="line"/>
      <point x="530" y="-15"/>
      <point x="659" y="-14"/>
      <point x="739" y="-13" type="curve" smooth="yes"/>
      <point x="1002" y="-11"/>
      <point x="1121" y="66"/>
      <point x="1121" y="202" type="curve" smooth="yes"/>
      <point x="1121" y="310"/>
      <point x="1047" y="373"/>
      <point x="854" y="373" type="curve" smooth="yes"/>
      <point x="596" y="373" type="line" smooth="yes"/>
      <point x="533" y="373"/>
      <point x="494" y="375"/>
      <point x="494" y="391" type="curve" smooth="yes"/>
      <point x="494" y="411"/>
      <point x="556" y="442"/>
      <point x="758" y="499" type="curve"/>
      <point x="758" y="667" type="line"/>
      <point x="476" y="592"/>
      <point x="325" y="475"/>
      <point x="325" y="361" type="curve" smooth="yes"/>
      <point x="325" y="262"/>
      <point x="408" y="219"/>
      <point x="614" y="219" type="curve" smooth="yes"/>
      <point x="899" y="219" type="line" smooth="yes"/>
      <point x="953" y="219"/>
      <point x="965" y="211"/>
      <point x="965" y="193" type="curve" smooth="yes"/>
      <point x="965" y="178"/>
      <point x="946" y="172"/>
      <point x="893" y="170" type="curve" smooth="yes"/>
      <point x="759" y="165"/>
      <point x="594" y="165"/>
      <point x="460" y="165" type="curve"/>
    </contour>
    <component base="_part.beh.fina" xOffset="6"/>
  </outline>
</glyph>
<glyph name="noonghunna-ar" format="2">
  <advance width="737"/>
  <unicode hex="06BA"/>
  <anchor x="343" y="-274" name="bottom"/>
  <anchor x="344" y="-214" name="bottom.dot"/>
  <anchor x="363" y="280" name="top.dot"/>
  <outline>
    <contour>
      <point x="338" y="-232" type="curve" smooth="yes"/>
      <point x="543" y="-232"/>
      <point x="692" y="-127"/>
      <point x="692" y="113" type="curve" smooth="yes"/>
      <point x="692" y="229"/>
      <point x="677" y="270"/>
      <point x="658" y="340" type="curve"/>
      <point x="511" y="305" type="line"/>
      <point x="525" y="224"/>
      <point x="536" y="177"/>
      <point x="536" y="108" type="curve" smooth="yes"/>
      <point x="536" y="-10"/>
      <point x="465" y="-52"/>
      <point x="354" y="-52" type="curve" smooth="yes"/>
      <point x="262" y="-52"/>
      <point x="201" y="-27"/>
      <point x="201" y="71" type="curve" smooth="yes"/>
      <point x="201" y="123"/>
      <point x="209" y="167"/>
      <point x="225" y="236" type="curve"/>
      <point x="99" y="263" type="line"/>
      <point x="60" y="176"/>
      <point x="44" y="99"/>
      <point x="44" y="33" type="curve" smooth="yes"/>
      <point x="44" y="-148"/>
      <point x="165" y="-232"/>
    </contour>
  </outline>
</glyph>
<glyph name="hehDoachashmee-ar" format="2">
  <advance width="830"/>
  <unicode hex="06BE"/>
  <anchor x="415" y="-111" name="bottom"/>
  <anchor x="415" y="659" name="top"/>
  <anchor x="415" y="604" name="top.dot"/>
  <outline>
    <contour>
      <point x="172" y="-10" type="curve" smooth="yes"/>
      <point x="265" y="-10"/>
      <point x="354" y="13"/>
      <point x="424" y="55" type="curve" smooth="yes"/>
      <point x="509" y="106"/>
      <point x="566" y="185"/>
      <point x="566" y="285" type="curve" smooth="yes"/>
      <point x="566" y="405"/>
      <point x="492" y="494"/>
      <point x="381" y="494" type="curve" smooth="yes"/>
      <point x="284" y="494"/>
      <point x="193" y="403"/>
      <point x="193" y="288" type="curve" smooth="yes"/>
      <point x="193" y="104"/>
      <point x="387" y="-10"/>
      <point x="553" y="-10" type="curve" smooth="yes"/>
      <point x="711" y="-10"/>
      <point x="785" y="73"/>
      <point x="785" y="196" type="curve" smooth="yes"/>
      <point x="785" y="358"/>
      <point x="633" y="485"/>
      <point x="288" y="597" type="curve"/>
      <point x="247" y="456" type="line"/>
      <point x="551" y="351"/>
      <point x="647" y="282"/>
      <point x="647" y="212" type="curve" smooth="yes"/>
      <point x="647" y="172"/>
      <point x="613" y="157"/>
      <point x="567" y="157" type="curve" smooth="yes"/>
      <point x="444" y="157"/>
      <point x="317" y="199"/>
      <point x="317" y="296" type="curve" smooth="yes"/>
      <point x="317" y="340"/>
      <point x="346" y="368"/>
      <point x="383" y="368" type="curve" smooth="yes"/>
      <point x="423" y="368"/>
      <point x="450" y="337"/>
      <point x="450" y="297" type="curve" smooth="yes"/>
      <point x="450" y="235"/>
      <point x="411" y="201"/>
      <point x="336" y="184" type="curve" smooth="yes"/>
      <point x="293" y="174"/>
      <point x="235" y="170"/>
      <point x="178" y="170" type="curve" smooth="yes"/>
      <point x="152" y="170"/>
      <point x="92" y="173"/>
      <point x="46" y="178" type="curve"/>
      <point x="30" y="14" type="line"/>
      <point x="74" y="-2"/>
      <point x="117" y="-10"/>
    </contour>
  </outline>
</glyph>
<glyph name="yehTail-ar" format="2">
  <advance width="1003"/>
  <unicode hex="06CD"/>
  <anchor x="515" y="-261" name="bottom"/>
  <anchor x="515" y="-196" name="bottom.dot"/>
  <anchor x="436" y="416" name="top"/>
  <anchor x="296" y="215" name="top.dot"/>
  <outline>
    <contour>
      <point x="514" y="-232" type="curve" smooth="yes"/>
      <point x="781" y="-232"/>
      <point x="929" y="-80"/>
      <point x="929" y="60" type="curve" smooth="yes"/>
      <point x="929" y="151"/>
      <point x="875" y="179"/>
      <point x="747" y="206" type="curve" smooth="yes"/>
      <point x="672" y="222"/>
      <point x="652" y="232"/>
      <point x="652" y="254" type="curve" smooth="yes"/>
      <point x="652" y="293"/>
      <point x="704" y="343"/>
      <point x="800" y="343" type="curve" smooth="yes"/>
      <point x="849" y="343"/>
      <point x="885" y="333"/>
      <point x="927" y="316" type="curve"/>
      <point x="963" y="481" type="line"/>
      <point x="929" y="505"/>
      <point x="874" y="521"/>
      <point x="815" y="521" type="curve" smooth="yes"/>
      <point x="639" y="521"/>
      <point x="500" y="377"/>
      <point x="500" y="223" type="curve" smooth="yes"/>
      <point x="500" y="137"/>
      <point x="536" y="79"/>
      <point x="675" y="49" type="curve" smooth="yes"/>
      <point x="748" y="33"/>
      <point x="759" y="30"/>
      <point x="759" y="15" type="curve" smooth="yes"/>
      <point x="759" y="-14"/>
      <point x="686" y="-52"/>
      <point x="540" y="-52" type="curve" smooth="yes"/>
      <point x="421" y="-52"/>
      <point x="359" y="-27"/>
      <point x="359" y="71" type="curve" smooth="yes"/>
      <point x="359" y="123"/>
      <point x="367" y="167"/>
      <point x="383" y="236" type="curve"/>
      <point x="282" y="285" type="line"/>
      <point x="20" y="213" type="line"/>
      <point x="47" y="62" type="line"/>
      <point x="246" y="120" type="line"/>
      <point x="220" y="161" type="line"/>
      <point x="208" y="115"/>
      <point x="202" y="72"/>
      <point x="202" y="33" type="curve" smooth="yes"/>
      <point x="202" y="-148"/>
      <point x="321" y="-232"/>
    </contour>
  </outline>
</glyph>
<glyph name="yehbarree-ar" format="2">
  <advance width="962"/>
  <unicode hex="06D2"/>
  <anchor x="426" y="-111" name="bottom"/>
  <anchor x="434" y="622" name="top"/>
  <anchor x="433" y="558" name="top_1"/>
  <outline>
    <contour>
      <point x="479" y="-21" type="curve" smooth="yes"/>
      <point x="653" y="-21"/>
      <point x="834" y="-2"/>
      <point x="913" y="17" type="curve"/>
      <point x="927" y="191" type="line"/>
      <point x="853" y="179"/>
      <point x="697" y="159"/>
      <point x="482" y="159" type="curve" smooth="yes"/>
      <point x="265" y="159"/>
      <point x="222" y="162"/>
      <point x="222" y="196" type="curve" smooth="yes"/>
      <point x="222" y="222"/>
      <point x="269" y="238"/>
      <point x="314" y="285" type="curve" smooth="yes"/>
      <point x="361" y="335"/>
      <point x="384" y="359"/>
      <point x="419" y="359" type="curve" smooth="yes"/>
      <point x="460" y="359"/>
      <point x="479" y="323"/>
      <point x="508" y="252" type="curve"/>
      <point x="638" y="300" type="line"/>
      <point x="592" y="459"/>
      <point x="532" y="534"/>
      <point x="434" y="534" type="curve" smooth="yes"/>
      <point x="328" y="534"/>
      <point x="271" y="444"/>
      <point x="189" y="365" type="curve" smooth="yes"/>
      <point x="118" y="296"/>
      <point x="32" y="248"/>
      <point x="32" y="151" type="curve" smooth="yes"/>
      <point x="32" y="9"/>
      <point x="199" y="-21"/>
    </contour>
  </outline>
</glyph>
<glyph name="fullstop-ar" format="2">
  <advance width="341"/>
  <unicode hex="06D4"/>
  <outline>
    <contour>
      <point x="30" y="0" type="line"/>
      <point x="300" y="0" type="line"/>
      <point x="311" y="97" type="line"/>
      <point x="41" y="97" type="line"/>
    </contour>
  </outline>
</glyph>
<glyph name="threedotsabove-ar" format="2">
  <unicode hex="06DB"/>
  <anchor x="157" y="550" name="_top.dot"/>
  <anchor x="157" y="896" name="top"/>
  <outline>
    <contour>
      <point x="81" y="612" type="curve"/>
      <point x="150" y="680" type="line"/>
      <point x="121" y="712"/>
      <point x="105" y="726"/>
      <point x="77" y="750" type="curve"/>
      <point x="9" y="679" type="line"/>
      <point x="40" y="652"/>
      <point x="54" y="638"/>
    </contour>
    <contour>
      <point x="239" y="612" type="curve"/>
      <point x="308" y="680" type="line"/>
      <point x="279" y="712"/>
      <point x="263" y="726"/>
      <point x="235" y="750" type="curve"/>
      <point x="167" y="679" type="line"/>
      <point x="198" y="652"/>
      <point x="212" y="638"/>
    </contour>
    <contour>
      <point x="158" y="749" type="curve"/>
      <point x="224" y="814" type="line"/>
      <point x="196" y="845"/>
      <point x="181" y="858"/>
      <point x="154" y="881" type="curve"/>
      <point x="89" y="813" type="line"/>
      <point x="119" y="787"/>
      <point x="132" y="774"/>
    </contour>
  </outline>
</glyph>
<glyph name="seenabove-ar" format="2">
  <unicode hex="06DC"/>
  <anchor x="259" y="590" name="_top"/>
  <anchor x="255" y="873" name="top"/>
  <outline>
    <contour>
      <point x="133" y="620" type="curve" smooth="yes"/>
      <point x="203" y="620"/>
      <point x="268" y="657"/>
      <point x="260" y="741" type="curve"/>
      <point x="238" y="739" type="line"/>
      <point x="248" y="707"/>
      <point x="272" y="698"/>
      <point x="295" y="698" type="curve" smooth="yes"/>
      <point x="324" y="698"/>
      <point x="347" y="710"/>
      <point x="355" y="751" type="curve"/>
      <point x="338" y="751" type="line"/>
      <point x="344" y="711"/>
      <point x="371" y="698"/>
      <point x="398" y="698" type="curve" smooth="yes"/>
      <point x="449" y="698"/>
      <point x="473" y="733"/>
      <point x="473" y="784" type="curve" smooth="yes"/>
      <point x="473" y="806"/>
      <point x="469" y="836"/>
      <point x="456" y="867" type="curve"/>
      <point x="402" y="851" type="line"/>
      <point x="409" y="828"/>
      <point x="413" y="814"/>
      <point x="413" y="795" type="curve" smooth="yes"/>
      <point x="413" y="776"/>
      <point x="407" y="768"/>
      <point x="392" y="768" type="curve" smooth="yes"/>
      <point x="380" y="768"/>
      <point x="373" y="772"/>
      <point x="370" y="790" type="curve" smooth="yes"/>
      <point x="368" y="803"/>
      <point x="368" y="809"/>
      <point x="367" y="837" type="curve"/>
      <point x="313" y="833" type="line"/>
      <point x="313" y="807"/>
      <point x="313" y="797"/>
      <point x="310" y="786" type="curve" smooth="yes"/>
      <point x="306" y="772"/>
      <point x="300" y="768"/>
      <point x="287" y="768" type="curve" smooth="yes"/>
      <point x="277" y="768"/>
      <point x="268" y="771"/>
      <point x="263" y="781" type="curve" smooth="yes"/>
      <point x="257" y="793"/>
      <point x="255" y="806"/>
      <point x="249" y="834" type="curve"/>
      <point x="189" y="820" type="line"/>
      <point x="195" y="792"/>
      <point x="200" y="765"/>
      <point x="200" y="740" type="curve" smooth="yes"/>
      <point x="200" y="704"/>
      <point x="182" y="689"/>
      <point x="138" y="689" type="curve" smooth="yes"/>
      <point x="106" y="689"/>
      <point x="93" y="700"/>
      <point x="93" y="727" type="curve" smooth="yes"/>
      <point x="93" y="745"/>
      <point x="96" y="761"/>
      <point x="102" y="785" type="curve"/>
      <point x="49" y="795" type="line"/>
      <point x="36" y="765"/>
      <point x="30" y="737"/>
      <point x="30" y="713" type="curve" smooth="yes"/>
      <point x="30" y="649"/>
      <point x="71" y="620"/>
    </contour>
  </outline>
</glyph>
<glyph name="sukunoval-ar" format="2">
  <unicode hex="06E0"/>
  <anchor x="137" y="590" name="_top"/>
  <anchor x="137" y="892" name="top"/>
  <outline>
    <contour>
      <point x="136" y="618" type="curve" smooth="yes"/>
      <point x="197" y="618"/>
      <point x="239" y="657"/>
      <point x="239" y="753" type="curve" smooth="yes"/>
      <point x="239" y="838"/>
      <point x="201" y="875"/>
      <point x="136" y="875" type="curve" smooth="yes"/>
      <point x="72" y="875"/>
      <point x="30" y="832"/>
      <point x="30" y="747" type="curve" smooth="yes"/>
      <point x="30" y="657"/>
      <point x="71" y="618"/>
    </contour>
    <contour>
      <point x="134" y="662" type="curve" smooth="yes"/>
      <point x="107" y="662"/>
      <point x="96" y="680"/>
      <point x="96" y="753" type="curve" smooth="yes"/>
      <point x="96" y="812"/>
      <point x="106" y="831"/>
      <point x="134" y="831" type="curve" smooth="yes"/>
      <point x="159" y="831"/>
      <point x="171" y="815"/>
      <point x="171" y="754" type="curve" smooth="yes"/>
      <point x="171" y="679"/>
      <point x="157" y="662"/>
    </contour>
  </outline>
</glyph>
<glyph name="hahabove-ar" format="2">
  <unicode hex="06E1"/>
  <anchor x="141" y="590" name="_top"/>
  <anchor x="157" y="830" name="top"/>
  <outline>
    <contour>
      <point x="67" y="621" type="line"/>
      <point x="174" y="621"/>
      <point x="224" y="665"/>
      <point x="271" y="727" type="curve"/>
      <point x="267" y="775" type="line"/>
      <point x="229" y="794"/>
      <point x="196" y="810"/>
      <point x="159" y="810" type="curve" smooth="yes"/>
      <point x="120" y="810"/>
      <point x="83" y="796"/>
      <point x="56" y="777" type="curve"/>
      <point x="77" y="724" type="line"/>
      <point x="99" y="736"/>
      <point x="122" y="744"/>
      <point x="149" y="744" type="curve" smooth="yes"/>
      <point x="178" y="744"/>
      <point x="201" y="735"/>
      <point x="226" y="723" type="curve"/>
      <point x="226" y="750" type="line"/>
      <point x="190" y="709"/>
      <point x="144" y="680"/>
      <point x="56" y="677" type="curve"/>
    </contour>
  </outline>
</glyph>
<glyph name="meemStopabove-ar" format="2">
  <unicode hex="06E2"/>
  <anchor x="125" y="550" name="_top.dot"/>
  <anchor x="125" y="886" name="top"/>
  <outline>
    <contour>
      <point x="43" y="619" type="curve"/>
      <point x="101" y="621" type="line"/>
      <point x="99" y="646"/>
      <point x="98" y="658"/>
      <point x="98" y="675" type="curve" smooth="yes"/>
      <point x="98" y="704"/>
      <point x="108" y="716"/>
      <point x="142" y="716" type="curve" smooth="yes"/>
      <point x="163" y="716"/>
      <point x="187" y="712"/>
      <point x="206" y="709" type="curve"/>
      <point x="222" y="764" type="line"/>
      <point x="205" y="834"/>
      <point x="175" y="872"/>
      <point x="129" y="872" type="curve" smooth="yes"/>
      <point x="96" y="872"/>
      <point x="68" y="850"/>
      <point x="54" y="808" type="curve"/>
      <point x="96" y="787" type="line"/>
      <point x="104" y="803"/>
      <point x="114" y="809"/>
      <point x="125" y="809" type="curve" smooth="yes"/>
      <point x="143" y="809"/>
      <point x="154" y="794"/>
      <point x="166" y="758" type="curve"/>
      <point x="189" y="769" type="line"/>
      <point x="176" y="771"/>
      <point x="148" y="774"/>
      <point x="127" y="774" type="curve" smooth="yes"/>
      <point x="65" y="774"/>
      <point x="39" y="742"/>
      <point x="39" y="687" type="curve" smooth="yes"/>
      <point x="39" y="658"/>
      <point x="41" y="646"/>
    </contour>
  </outline>
</glyph>
<glyph name="maddalong-ar" format="2">
  <unicode hex="06E4"/>
  <anchor x="201" y="550" name="_top"/>
  <anchor x="228" y="771" name="top"/>
  <outline>
    <contour>
      <point x="286" y="635" type="curve" smooth="yes"/>
      <point x="317" y="635"/>
      <point x="361" y="642"/>
      <point x="401" y="684" type="curve"/>
      <point x="368" y="751" type="line"/>
      <point x="342" y="736"/>
      <point x="313" y="728"/>
      <point x="292" y="728" type="curve" smooth="yes"/>
      <point x="217" y="728"/>
      <point x="194" y="768"/>
      <point x="125" y="768" type="curve" smooth="yes"/>
      <point x="80" y="768"/>
      <point x="43" y="749"/>
      <point x="3" y="700" type="curve"/>
      <point x="51" y="641" type="line"/>
      <point x="72" y="662"/>
      <point x="99" y="676"/>
      <point x="123" y="676" type="curve" smooth="yes"/>
      <point x="174" y="676"/>
      <point x="202" y="635"/>
    </contour>
  </outline>
</glyph>
<glyph name="yehabove-ar" format="2">
  <unicode hex="06E7"/>
  <anchor x="175" y="590" name="_top"/>
  <anchor x="180" y="829" name="top"/>
  <outline>
    <contour>
      <point x="168" y="614" type="curve" smooth="yes"/>
      <point x="248" y="614"/>
      <point x="302" y="626"/>
      <point x="324" y="631" type="curve"/>
      <point x="325" y="689" type="line"/>
      <point x="303" y="685"/>
      <point x="230" y="674"/>
      <point x="168" y="674" type="curve" smooth="yes"/>
      <point x="108" y="674"/>
      <point x="88" y="679"/>
      <point x="88" y="691" type="curve" smooth="yes"/>
      <point x="88" y="701"/>
      <point x="101" y="704"/>
      <point x="120" y="721" type="curve" smooth="yes"/>
      <point x="135" y="735"/>
      <point x="144" y="749"/>
      <point x="156" y="749" type="curve" smooth="yes"/>
      <point x="168" y="749"/>
      <point x="174" y="743"/>
      <point x="190" y="711" type="curve"/>
      <point x="239" y="741" type="line"/>
      <point x="218" y="790"/>
      <point x="197" y="814"/>
      <point x="165" y="814" type="curve" smooth="yes"/>
      <point x="134" y="814"/>
      <point x="109" y="787"/>
      <point x="79" y="758" type="curve" smooth="yes"/>
      <point x="57" y="736"/>
      <point x="20" y="717"/>
      <point x="20" y="682" type="curve" smooth="yes"/>
      <point x="20" y="627"/>
      <point x="75" y="614"/>
    </contour>
  </outline>
</glyph>
<glyph name="noonabove-ar" format="2">
  <unicode hex="06E8"/>
  <anchor x="140" y="550" name="_top.dot"/>
  <anchor x="143" y="921" name="top"/>
  <outline>
    <contour>
      <point x="139" y="610" type="curve" smooth="yes"/>
      <point x="218" y="610"/>
      <point x="265" y="651"/>
      <point x="265" y="731" type="curve" smooth="yes"/>
      <point x="265" y="763"/>
      <point x="257" y="790"/>
      <point x="247" y="815" type="curve"/>
      <point x="184" y="796" type="line"/>
      <point x="192" y="768"/>
      <point x="197" y="746"/>
      <point x="197" y="724" type="curve" smooth="yes"/>
      <point x="197" y="691"/>
      <point x="175" y="679"/>
      <point x="144" y="679" type="curve" smooth="yes"/>
      <point x="109" y="679"/>
      <point x="93" y="694"/>
      <point x="93" y="721" type="curve" smooth="yes"/>
      <point x="93" y="737"/>
      <point x="96" y="750"/>
      <point x="102" y="770" type="curve"/>
      <point x="44" y="785" type="line"/>
      <point x="33" y="761"/>
      <point x="27" y="735"/>
      <point x="27" y="708" type="curve" smooth="yes"/>
      <point x="27" y="639"/>
      <point x="74" y="610"/>
    </contour>
    <contour>
      <point x="144" y="817" type="curve"/>
      <point x="184" y="858" type="line"/>
      <point x="168" y="874"/>
      <point x="159" y="884"/>
      <point x="141" y="898" type="curve"/>
      <point x="102" y="857" type="line"/>
      <point x="118" y="841"/>
      <point x="128" y="832"/>
    </contour>
  </outline>
</glyph>
<glyph name="sajdah-ar" format="2">
  <advance width="608"/>
  <unicode hex="06E9"/>
  <outline>
    <contour>
      <point x="63" y="0" type="line"/>
      <point x="543" y="0" type="line"/>
      <point x="542" y="81" type="line"/>
      <point x="498" y="105"/>
      <point x="486" y="123"/>
      <point x="486" y="201" type="curve" smooth="yes"/>
      <point x="486" y="364" type="line"/>
      <point x="547" y="396"/>
      <point x="568" y="430"/>
      <point x="568" y="497" type="curve" smooth="yes"/>
      <point x="568" y="604"/>
      <point x="430" y="657"/>
      <point x="302" y="734" type="curve"/>
      <point x="186" y="660"/>
      <point x="40" y="607"/>
      <point x="40" y="494" type="curve" smooth="yes"/>
      <point x="40" y="427"/>
      <point x="63" y="395"/>
      <point x="123" y="363" type="curve"/>
      <point x="123" y="201" type="line" smooth="yes"/>
      <point x="123" y="123"/>
      <point x="108" y="102"/>
      <point x="64" y="78" type="curve"/>
    </contour>
    <contour>
      <point x="147" y="64" type="line"/>
      <point x="181" y="99"/>
      <point x="189" y="147"/>
      <point x="189" y="207" type="curve" smooth="yes"/>
      <point x="189" y="403" type="line"/>
      <point x="148" y="425"/>
      <point x="119" y="450"/>
      <point x="119" y="496" type="curve" smooth="yes"/>
      <point x="119" y="563"/>
      <point x="218" y="591"/>
      <point x="302" y="658" type="curve"/>
      <point x="388" y="591"/>
      <point x="491" y="559"/>
      <point x="491" y="493" type="curve" smooth="yes"/>
      <point x="491" y="447"/>
      <point x="461" y="426"/>
      <point x="419" y="404" type="curve"/>
      <point x="419" y="206" type="line" smooth="yes"/>
      <point x="419" y="128"/>
      <point x="425" y="92"/>
      <point x="458" y="64" type="curve"/>
    </contour>
  </outline>
</glyph>
<glyph name="rhombusStopabove-ar" format="2">
  <unicode hex="06EB"/>
  <anchor x="160" y="590" name="_top"/>
  <anchor x="161" y="901" name="top"/>
  <outline>
    <contour>
      <point x="158" y="621" type="line"/>
      <point x="291" y="750" type="line"/>
      <point x="161" y="878" type="line"/>
      <point x="30" y="747" type="line"/>
    </contour>
    <contour>
      <point x="159" y="693" type="line"/>
      <point x="106" y="745" type="line"/>
      <point x="161" y="802" type="line"/>
      <point x="214" y="748" type="line"/>
    </contour>
  </outline>
</glyph>
<glyph name="dotStopabove-ar" format="2">
  <unicode hex="06EC"/>
  <anchor x="123" y="590" name="_top"/>
  <anchor x="123" y="818" name="top"/>
  <outline>
    <contour>
      <point x="123" y="623" type="curve" smooth="yes"/>
      <point x="176" y="623"/>
      <point x="216" y="663"/>
      <point x="216" y="716" type="curve" smooth="yes"/>
      <point x="216" y="770"/>
      <point x="176" y="809"/>
      <point x="123" y="809" type="curve" smooth="yes"/>
      <point x="70" y="809"/>
      <point x="30" y="770"/>
      <point x="30" y="716" type="curve" smooth="yes"/>
      <point x="30" y="663"/>
      <point x="70" y="623"/>
    </contour>
  </outline>
</glyph>
<glyph name="four-persian" format="2">
  <advance width="616"/>
  <unicode hex="06F4"/>
  <outline>
    <contour>
      <point x="143" y="-7" type="curve"/>
      <point x="307" y="0" type="line"/>
      <point x="304" y="139"/>
      <point x="285" y="339"/>
      <point x="244" y="490" type="curve"/>
      <point x="189" y="441" type="line"/>
      <point x="232" y="362"/>
      <point x="269" y="316"/>
      <point x="407" y="316" type="curve" smooth="yes"/>
      <point x="464" y="316"/>
      <point x="519" y="327"/>
      <point x="581" y="351" type="curve"/>
      <point x="573" y="480" type="line"/>
      <point x="548" y="473"/>
      <point x="518" y="467"/>
      <point x="493" y="467" type="curve" smooth="yes"/>
      <point x="460" y="467"/>
      <point x="431" y="479"/>
      <point x="431" y="513" type="curve" smooth="yes"/>
      <point x="431" y="537"/>
      <point x="450" y="554"/>
      <point x="487" y="554" type="curve" smooth="yes"/>
      <point x="514" y="554"/>
      <point x="525" y="551"/>
      <point x="544" y="548" type="curve"/>
      <point x="552" y="677" type="line"/>
      <point x="530" y="685"/>
      <point x="506" y="691"/>
      <point x="473" y="691" type="curve" smooth="yes"/>
      <point x="372" y="691"/>
      <point x="288" y="632"/>
      <point x="288" y="535" type="curve" smooth="yes"/>
      <point x="288" y="461"/>
      <point x="326" y="426"/>
      <point x="364" y="411" type="curve"/>
      <point x="399" y="458" type="line"/>
      <point x="376" y="453"/>
      <point x="357" y="451"/>
      <point x="329" y="451" type="curve" smooth="yes"/>
      <point x="301" y="451"/>
      <point x="284" y="458"/>
      <point x="265" y="485" type="curve" smooth="yes"/>
      <point x="240" y="520"/>
      <point x="227" y="592"/>
      <point x="201" y="692" type="curve"/>
      <point x="34" y="650" type="line"/>
      <point x="93" y="423"/>
      <point x="125" y="207"/>
    </contour>
  </outline>
</glyph>
<glyph name="five-persian" format="2">
  <advance width="646"/>
  <unicode hex="06F5"/>
  <outline>
    <contour>
      <point x="195" y="-10" type="curve" smooth="yes"/>
      <point x="271" y="-10"/>
      <point x="329" y="42"/>
      <point x="329" y="103" type="curve"/>
      <point x="300" y="100" type="line"/>
      <point x="300" y="48"/>
      <point x="361" y="-10"/>
      <point x="435" y="-10" type="curve" smooth="yes"/>
      <point x="549" y="-10"/>
      <point x="606" y="80"/>
      <point x="606" y="187" type="curve" smooth="yes"/>
      <point x="606" y="352"/>
      <point x="500" y="516"/>
      <point x="288" y="688" type="curve"/>
      <point x="182" y="568" type="line"/>
      <point x="376" y="400"/>
      <point x="444" y="304"/>
      <point x="446" y="203" type="curve" smooth="yes"/>
      <point x="447" y="163"/>
      <point x="433" y="148"/>
      <point x="411" y="148" type="curve" smooth="yes"/>
      <point x="387" y="148"/>
      <point x="377" y="172"/>
      <point x="377" y="224" type="curve"/>
      <point x="269" y="219" type="line"/>
      <point x="270" y="167"/>
      <point x="258" y="148"/>
      <point x="233" y="148" type="curve" smooth="yes"/>
      <point x="207" y="148"/>
      <point x="198" y="169"/>
      <point x="198" y="201" type="curve" smooth="yes"/>
      <point x="198" y="301"/>
      <point x="281" y="403"/>
      <point x="392" y="500" type="curve"/>
      <point x="289" y="597" type="line"/>
      <point x="168" y="488"/>
      <point x="40" y="351"/>
      <point x="40" y="183" type="curve" smooth="yes"/>
      <point x="40" y="60"/>
      <point x="96" y="-10"/>
    </contour>
  </outline>
</glyph>
<glyph name="six-persian" format="2">
  <advance width="514"/>
  <unicode hex="06F6"/>
  <outline>
    <contour>
      <point x="154" y="-10" type="line"/>
      <point x="253" y="115"/>
      <point x="379" y="224"/>
      <point x="496" y="295" type="curve"/>
      <point x="435" y="439" type="line"/>
      <point x="372" y="409"/>
      <point x="331" y="394"/>
      <point x="283" y="394" type="curve" smooth="yes"/>
      <point x="234" y="394"/>
      <point x="205" y="422"/>
      <point x="205" y="463" type="curve" smooth="yes"/>
      <point x="205" y="510"/>
      <point x="240" y="533"/>
      <point x="300" y="533" type="curve" smooth="yes"/>
      <point x="337" y="533"/>
      <point x="362" y="530"/>
      <point x="399" y="523" type="curve"/>
      <point x="409" y="667" type="line"/>
      <point x="375" y="680"/>
      <point x="335" y="689"/>
      <point x="281" y="689" type="curve" smooth="yes"/>
      <point x="145" y="689"/>
      <point x="48" y="592"/>
      <point x="48" y="467" type="curve" smooth="yes"/>
      <point x="48" y="346"/>
      <point x="118" y="265"/>
      <point x="220" y="265" type="curve" smooth="yes"/>
      <point x="251" y="265"/>
      <point x="294" y="272"/>
      <point x="326" y="292" type="curve"/>
      <point x="291" y="364" type="line"/>
      <point x="218" y="311"/>
      <point x="97" y="190"/>
      <point x="31" y="89" type="curve"/>
    </contour>
  </outline>
</glyph>
<glyph name="rehLoop-ar" format="2">
  <advance width="628"/>
  <unicode hex="08AA"/>
  <anchor x="286" y="-338" name="bottom"/>
  <anchor x="375" y="513" name="top"/>
  <outline>
    <contour>
      <point x="283" y="-344" type="line"/>
      <point x="300" y="-254"/>
      <point x="313" y="-197"/>
      <point x="313" y="-66" type="curve" smooth="yes"/>
      <point x="313" y="56"/>
      <point x="274" y="153"/>
      <point x="180" y="153" type="curve" smooth="yes"/>
      <point x="82" y="153"/>
      <point x="30" y="46"/>
      <point x="30" y="-62" type="curve" smooth="yes"/>
      <point x="30" y="-192"/>
      <point x="118" y="-266"/>
      <point x="245" y="-266" type="curve" smooth="yes"/>
      <point x="439" y="-266"/>
      <point x="580" y="-143"/>
      <point x="580" y="66" type="curve" smooth="yes"/>
      <point x="580" y="183"/>
      <point x="527" y="293"/>
      <point x="459" y="394" type="curve"/>
      <point x="318" y="305" type="line"/>
      <point x="380" y="202"/>
      <point x="420" y="125"/>
      <point x="420" y="52" type="curve" smooth="yes"/>
      <point x="420" y="-53"/>
      <point x="354" y="-107"/>
      <point x="240" y="-107" type="curve" smooth="yes"/>
      <point x="164" y="-107"/>
      <point x="114" y="-81"/>
      <point x="81" y="-43" type="curve"/>
      <point x="102" y="-104" type="line"/>
      <point x="106" y="-33"/>
      <point x="126" y="5"/>
      <point x="158" y="5" type="curve" smooth="yes"/>
      <point x="199" y="5"/>
      <point x="217" y="-44"/>
      <point x="216" y="-111" type="curve" smooth="yes"/>
      <point x="215" y="-190"/>
      <point x="211" y="-246"/>
      <point x="203" y="-335" type="curve"/>
    </contour>
  </outline>
</glyph>
<glyph name="aleflow-ar" format="2">
  <advance width="310"/>
  <unicode hex="08AD"/>
  <anchor x="162" y="-291" name="bottom"/>
  <anchor x="152" y="248" name="top"/>
  <outline>
    <contour>
      <point x="87" y="-223" type="curve"/>
      <point x="245" y="-223" type="line"/>
      <point x="255" y="-90"/>
      <point x="251" y="44"/>
      <point x="231" y="177" type="curve"/>
      <point x="60" y="157" type="line"/>
      <point x="83" y="27"/>
      <point x="93" y="-90"/>
    </contour>
  </outline>
</glyph>
<glyph name="fathaCurly-ar" format="2">
  <unicode hex="08E4"/>
  <anchor x="164" y="590" name="_top"/>
  <anchor x="162" y="769" name="top"/>
  <outline>
    <contour>
      <point x="47" y="586" type="curve"/>
      <point x="107" y="602" type="line"/>
      <point x="105" y="613"/>
      <point x="103" y="619"/>
      <point x="103" y="628" type="curve" smooth="yes"/>
      <point x="103" y="640"/>
      <point x="109" y="649"/>
      <point x="127" y="654" type="curve" smooth="yes"/>
      <point x="158" y="663"/>
      <point x="208" y="673"/>
      <point x="242" y="684" type="curve" smooth="yes"/>
      <point x="280" y="696"/>
      <point x="299" y="713"/>
      <point x="299" y="753" type="curve" smooth="yes"/>
      <point x="299" y="784"/>
      <point x="291" y="808"/>
      <point x="282" y="829" type="curve"/>
      <point x="219" y="813" type="line"/>
      <point x="223" y="797"/>
      <point x="227" y="788"/>
      <point x="227" y="777" type="curve" smooth="yes"/>
      <point x="227" y="764"/>
      <point x="222" y="758"/>
      <point x="209" y="754" type="curve" smooth="yes"/>
      <point x="184" y="746"/>
      <point x="132" y="735"/>
      <point x="95" y="724" type="curve" smooth="yes"/>
      <point x="48" y="710"/>
      <point x="30" y="684"/>
      <point x="30" y="650" type="curve" smooth="yes"/>
      <point x="30" y="627"/>
      <point x="37" y="607"/>
    </contour>
  </outline>
</glyph>
<glyph name="dammaCurly-ar" format="2">
  <unicode hex="08E5"/>
  <anchor x="178" y="590" name="_top"/>
  <anchor x="197" y="912" name="top"/>
  <outline>
    <contour>
      <point x="124" y="606" type="line"/>
      <point x="235" y="631"/>
      <point x="360" y="699"/>
      <point x="360" y="794" type="curve" smooth="yes"/>
      <point x="360" y="846"/>
      <point x="328" y="893"/>
      <point x="263" y="893" type="curve" smooth="yes"/>
      <point x="205" y="893"/>
      <point x="161" y="855"/>
      <point x="161" y="799" type="curve" smooth="yes"/>
      <point x="161" y="751"/>
      <point x="190" y="718"/>
      <point x="229" y="702" type="curve"/>
      <point x="277" y="742" type="line"/>
      <point x="250" y="750"/>
      <point x="231" y="771"/>
      <point x="231" y="794" type="curve" smooth="yes"/>
      <point x="231" y="814"/>
      <point x="245" y="826"/>
      <point x="263" y="826" type="curve" smooth="yes"/>
      <point x="281" y="826"/>
      <point x="291" y="811"/>
      <point x="291" y="790" type="curve" smooth="yes"/>
      <point x="291" y="731"/>
      <point x="164" y="685"/>
      <point x="112" y="673" type="curve"/>
      <point x="138" y="655" type="line"/>
      <point x="117" y="697"/>
      <point x="104" y="737"/>
      <point x="92" y="776" type="curve"/>
      <point x="30" y="755" type="line"/>
      <point x="41" y="715"/>
      <point x="57" y="671"/>
      <point x="74" y="634" type="curve"/>
    </contour>
  </outline>
</glyph>
<glyph name="toneloopabove-ar" format="2">
  <unicode hex="08EC"/>
  <anchor x="152" y="590" name="_top"/>
  <anchor x="153" y="810" name="top"/>
  <outline>
    <contour>
      <point x="125" y="616" type="curve" smooth="yes"/>
      <point x="191" y="616"/>
      <point x="246" y="676"/>
      <point x="295" y="764" type="curve"/>
      <point x="249" y="792" type="line"/>
      <point x="212" y="723"/>
      <point x="170" y="678"/>
      <point x="132" y="678" type="curve" smooth="yes"/>
      <point x="104" y="678"/>
      <point x="93" y="689"/>
      <point x="93" y="703" type="curve" smooth="yes"/>
      <point x="93" y="715"/>
      <point x="101" y="725"/>
      <point x="118" y="725" type="curve" smooth="yes"/>
      <point x="154" y="725"/>
      <point x="194" y="704"/>
      <point x="268" y="636" type="curve"/>
      <point x="304" y="682" type="line"/>
      <point x="222" y="761"/>
      <point x="168" y="787"/>
      <point x="120" y="787" type="curve" smooth="yes"/>
      <point x="67" y="787"/>
      <point x="30" y="753"/>
      <point x="30" y="703" type="curve" smooth="yes"/>
      <point x="30" y="641"/>
      <point x="73" y="616"/>
    </contour>
  </outline>
</glyph>
<glyph name="highwaw-ar" format="2">
  <unicode hex="08F3"/>
  <anchor x="109" y="590" name="_top"/>
  <anchor x="117" y="898" name="top"/>
  <outline>
    <contour>
      <point x="74" y="618" type="curve" smooth="yes"/>
      <point x="153" y="618"/>
      <point x="200" y="659"/>
      <point x="200" y="755" type="curve" smooth="yes"/>
      <point x="200" y="829"/>
      <point x="165" y="870"/>
      <point x="118" y="870" type="curve" smooth="yes"/>
      <point x="66" y="870"/>
      <point x="35" y="826"/>
      <point x="35" y="778" type="curve" smooth="yes"/>
      <point x="35" y="723"/>
      <point x="70" y="709"/>
      <point x="110" y="709" type="curve" smooth="yes"/>
      <point x="131" y="709"/>
      <point x="150" y="713"/>
      <point x="165" y="721" type="curve"/>
      <point x="162" y="772" type="line"/>
      <point x="146" y="767"/>
      <point x="134" y="764"/>
      <point x="120" y="764" type="curve" smooth="yes"/>
      <point x="104" y="764"/>
      <point x="91" y="767"/>
      <point x="91" y="783" type="curve" smooth="yes"/>
      <point x="91" y="800"/>
      <point x="100" y="812"/>
      <point x="115" y="812" type="curve" smooth="yes"/>
      <point x="132" y="812"/>
      <point x="145" y="797"/>
      <point x="145" y="748" type="curve" smooth="yes"/>
      <point x="145" y="689"/>
      <point x="117" y="676"/>
      <point x="69" y="676" type="curve" smooth="yes"/>
      <point x="55" y="676"/>
      <point x="43" y="678"/>
      <point x="30" y="679" type="curve"/>
      <point x="32" y="623" type="line"/>
      <point x="46" y="620"/>
      <point x="61" y="618"/>
    </contour>
  </outline>
</glyph>
<glyph name="fathaRing-ar" format="2">
  <unicode hex="08F4"/>
  <anchor x="137" y="590" name="_top"/>
  <anchor x="138" y="831" name="top"/>
  <outline>
    <contour>
      <point x="140" y="618" type="curve" smooth="yes"/>
      <point x="196" y="618"/>
      <point x="239" y="651"/>
      <point x="239" y="712" type="curve" smooth="yes"/>
      <point x="239" y="782"/>
      <point x="191" y="817"/>
      <point x="144" y="817" type="curve" smooth="yes"/>
      <point x="85" y="817"/>
      <point x="40" y="766"/>
      <point x="40" y="710" type="curve" smooth="yes"/>
      <point x="40" y="651"/>
      <point x="80" y="618"/>
    </contour>
    <contour>
      <point x="139" y="675" type="curve" smooth="yes"/>
      <point x="114" y="675"/>
      <point x="98" y="692"/>
      <point x="98" y="714" type="curve" smooth="yes"/>
      <point x="98" y="738"/>
      <point x="116" y="759"/>
      <point x="139" y="759" type="curve" smooth="yes"/>
      <point x="158" y="759"/>
      <point x="179" y="745"/>
      <point x="179" y="714" type="curve" smooth="yes"/>
      <point x="179" y="689"/>
      <point x="162" y="675"/>
    </contour>
    <contour>
      <point x="5" y="654" type="line"/>
      <point x="277" y="739" type="line"/>
      <point x="277" y="784" type="line"/>
      <point x="5" y="698" type="line"/>
    </contour>
  </outline>
</glyph>
<glyph name="leftarrowheadabove-ar" format="2">
  <unicode hex="08F7"/>
  <anchor x="112" y="590" name="_top"/>
  <anchor x="113" y="825" name="top"/>
  <outline>
    <contour>
      <point x="178" y="600" type="curve"/>
      <point x="202" y="657" type="line"/>
      <point x="154" y="682"/>
      <point x="107" y="705"/>
      <point x="59" y="726" type="curve"/>
      <point x="65" y="689" type="line"/>
      <point x="109" y="713"/>
      <point x="155" y="737"/>
      <point x="199" y="763" type="curve"/>
      <point x="169" y="820" type="line"/>
      <point x="123" y="791"/>
      <point x="77" y="765"/>
      <point x="30" y="740" type="curve"/>
      <point x="35" y="671" type="line"/>
      <point x="83" y="649"/>
      <point x="131" y="626"/>
    </contour>
  </outline>
</glyph>
<glyph name="marksidewaysnoonghunna-ar" format="2">
  <unicode hex="08FF"/>
  <anchor x="126" y="590" name="_top"/>
  <anchor x="130" y="929" name="top"/>
  <outline>
    <contour>
      <point x="64" y="604" type="line"/>
      <point x="151" y="614"/>
      <point x="243" y="686"/>
      <point x="243" y="786" type="curve" smooth="yes"/>
      <point x="243" y="862"/>
      <point x="197" y="914"/>
      <point x="133" y="914" type="curve" smooth="yes"/>
      <point x="75" y="914"/>
      <point x="34" y="870"/>
      <point x="34" y="823" type="curve" smooth="yes"/>
      <point x="34" y="783"/>
      <point x="61" y="743"/>
      <point x="120" y="743" type="curve" smooth="yes"/>
      <point x="146" y="743"/>
      <point x="171" y="750"/>
      <point x="200" y="794" type="curve"/>
      <point x="147" y="812" type="line"/>
      <point x="147" y="744"/>
      <point x="122" y="714"/>
      <point x="30" y="679" type="curve"/>
    </contour>
  </outline>
</glyph>
<glyph name="keheh-ar.fina" format="2">
  <advance width="964"/>
  <unicode hex="FB8F"/>
  <anchor x="400" y="-111" name="bottom"/>
  <anchor x="400" y="-20" name="bottom.dot"/>
  <anchor x="843" y="584" name="center"/>
  <anchor x="405" y="709" name="top"/>
  <anchor x="621" y="612" name="top.dot"/>
  <outline>
    <contour>
      <point x="964" y="-10" type="curve" smooth="yes"/>
      <point x="1030" y="-10"/>
      <point x="1064" y="30"/>
      <point x="1064" y="81" type="curve" smooth="yes"/>
      <point x="1064" y="126"/>
      <point x="1038" y="170"/>
      <point x="974" y="170" type="curve" smooth="yes"/>
      <point x="912" y="170"/>
      <point x="861" y="204"/>
      <point x="810" y="261" type="curve" smooth="yes"/>
      <point x="568" y="529" type="line"/>
      <point x="546" y="437" type="line"/>
      <point x="935" y="586" type="line"/>
      <point x="934" y="764" type="line"/>
      <point x="481" y="564" type="line"/>
      <point x="453" y="418" type="line"/>
      <point x="541" y="323"/>
      <point x="621" y="229"/>
      <point x="703" y="134" type="curve" smooth="yes"/>
      <point x="770" y="56"/>
      <point x="845" y="-10"/>
    </contour>
    <contour>
      <point x="449" y="-15" type="line"/>
      <point x="595" y="-15"/>
      <point x="693" y="37"/>
      <point x="742" y="163" type="curve"/>
      <point x="653" y="256" type="line"/>
      <point x="611" y="196"/>
      <point x="562" y="165"/>
      <point x="459" y="165" type="curve"/>
    </contour>
    <component base="_part.beh.fina" xOffset="6"/>
  </outline>
</glyph>
<glyph name="noonghunna-ar.fina" format="2">
  <advance width="773"/>
  <unicode hex="FB9F"/>
  <anchor x="343" y="-274" name="bottom"/>
  <anchor x="344" y="-214" name="bottom.dot"/>
  <anchor x="363" y="280" name="top.dot"/>
  <outline>
    <contour>
      <point x="328" y="-232" type="curve" smooth="yes"/>
      <point x="526" y="-232"/>
      <point x="705" y="-129"/>
      <point x="686" y="111" type="curve"/>
      <point x="624" y="67" type="line"/>
      <point x="651" y="3"/>
      <point x="713" y="-10"/>
      <point x="773" y="-10" type="curve" smooth="yes"/>
      <point x="839" y="-10"/>
      <point x="873" y="30"/>
      <point x="873" y="81" type="curve" smooth="yes"/>
      <point x="873" y="126"/>
      <point x="847" y="170"/>
      <point x="783" y="170" type="curve" smooth="yes"/>
      <point x="731" y="170"/>
      <point x="704" y="179"/>
      <point x="691" y="207" type="curve" smooth="yes"/>
      <point x="677" y="238"/>
      <point x="671" y="276"/>
      <point x="657" y="350" type="curve"/>
      <point x="510" y="315" type="line"/>
      <point x="524" y="234"/>
      <point x="536" y="177"/>
      <point x="536" y="108" type="curve" smooth="yes"/>
      <point x="536" y="-10"/>
      <point x="464" y="-52"/>
      <point x="344" y="-52" type="curve" smooth="yes"/>
      <point x="252" y="-52"/>
      <point x="201" y="-27"/>
      <point x="201" y="71" type="curve" smooth="yes"/>
      <point x="201" y="123"/>
      <point x="209" y="167"/>
      <point x="225" y="236" type="curve"/>
      <point x="99" y="263" type="line"/>
      <point x="60" y="176"/>
      <point x="44" y="99"/>
      <point x="44" y="33" type="curve" smooth="yes"/>
      <point x="44" y="-148"/>
      <point x="155" y="-232"/>
    </contour>
  </outline>
</glyph>
<glyph name="hehgoal-ar.fina" format="2">
  <advance width="615"/>
  <unicode hex="FBA7"/>
  <anchor x="285" y="-111" name="bottom"/>
  <anchor x="298" y="508" name="top"/>
  <anchor x="298" y="404" name="top.dot"/>
  <outline>
    <contour>
      <point x="615" y="-10" type="curve" smooth="yes"/>
      <point x="681" y="-10"/>
      <point x="715" y="30"/>
      <point x="715" y="81" type="curve" smooth="yes"/>
      <point x="715" y="126"/>
      <point x="689" y="170"/>
      <point x="625" y="170" type="curve" smooth="yes"/>
      <point x="585" y="170"/>
      <point x="564" y="185"/>
      <point x="495" y="275" type="curve" smooth="yes"/>
      <point x="430" y="359"/>
      <point x="377" y="389"/>
      <point x="303" y="389" type="curve" smooth="yes"/>
      <point x="204" y="389"/>
      <point x="103" y="310"/>
      <point x="20" y="165" type="curve"/>
      <point x="137" y="76" type="line"/>
      <point x="202" y="164"/>
      <point x="238" y="201"/>
      <point x="285" y="201" type="curve" smooth="yes"/>
      <point x="322" y="201"/>
      <point x="348" y="182"/>
      <point x="396" y="121" type="curve" smooth="yes"/>
      <point x="469" y="29"/>
      <point x="522" y="-10"/>
    </contour>
  </outline>
</glyph>
<glyph name="hehgoal-ar.medi" format="2">
  <advance width="530"/>
  <unicode hex="FBA9"/>
  <anchor x="325" y="-358" name="bottom"/>
  <anchor x="302" y="398" name="top"/>
  <outline>
    <contour>
      <point x="309" y="-320" type="curve"/>
      <point x="428" y="-226" type="line"/>
      <point x="417" y="-192"/>
      <point x="410" y="-159"/>
      <point x="410" y="-124" type="curve" smooth="yes"/>
      <point x="410" y="-46"/>
      <point x="448" y="-10"/>
      <point x="530" y="-10" type="curve" smooth="yes"/>
      <point x="596" y="-10"/>
      <point x="630" y="30"/>
      <point x="630" y="81" type="curve" smooth="yes"/>
      <point x="630" y="126"/>
      <point x="604" y="170"/>
      <point x="540" y="170" type="curve" smooth="yes"/>
      <point x="375" y="170"/>
      <point x="282" y="60"/>
      <point x="282" y="-76" type="curve" smooth="yes"/>
      <point x="282" y="-111"/>
      <point x="286" y="-146"/>
      <point x="290" y="-172" type="curve"/>
      <point x="326" y="-142" type="line"/>
      <point x="258" y="-101"/>
      <point x="232" y="-33"/>
      <point x="232" y="53" type="curve" smooth="yes"/>
      <point x="232" y="112"/>
      <point x="244" y="179"/>
      <point x="264" y="253" type="curve"/>
      <point x="133" y="285" type="line"/>
      <point x="100" y="190"/>
      <point x="69" y="170"/>
      <point x="0" y="170" type="curve"/>
      <point x="-10" y="-10" type="line"/>
      <point x="65" y="-10"/>
      <point x="106" y="6"/>
      <point x="163" y="65" type="curve"/>
      <point x="99" y="119" type="line"/>
      <point x="91" y="83"/>
      <point x="82" y="61"/>
      <point x="82" y="14" type="curve" smooth="yes"/>
      <point x="82" y="-139"/>
      <point x="174" y="-256"/>
    </contour>
  </outline>
</glyph>
<glyph name="hehDoachashmee-ar.fina" format="2">
  <advance width="701"/>
  <unicode hex="FBAB"/>
  <anchor x="443" y="-285" name="bottom"/>
  <anchor x="443" y="593" name="top"/>
  <anchor x="443" y="529" name="top.dot"/>
  <outline>
    <contour>
      <point x="445" y="-240" type="curve" smooth="yes"/>
      <point x="576" y="-240"/>
      <point x="654" y="-141"/>
      <point x="654" y="-38" type="curve" smooth="yes"/>
      <point x="654" y="5"/>
      <point x="643" y="45"/>
      <point x="624" y="77" type="curve"/>
      <point x="590" y="18" type="line"/>
      <point x="625" y="-1"/>
      <point x="640" y="-10"/>
      <point x="701" y="-10" type="curve" smooth="yes"/>
      <point x="767" y="-10"/>
      <point x="801" y="30"/>
      <point x="801" y="81" type="curve" smooth="yes"/>
      <point x="801" y="126"/>
      <point x="775" y="170"/>
      <point x="711" y="170" type="curve" smooth="yes"/>
      <point x="588" y="170"/>
      <point x="518" y="181"/>
      <point x="455" y="200" type="curve"/>
      <point x="413" y="63" type="line"/>
      <point x="489" y="50"/>
      <point x="512" y="6"/>
      <point x="512" y="-31" type="curve" smooth="yes"/>
      <point x="512" y="-71"/>
      <point x="487" y="-89"/>
      <point x="452" y="-89" type="curve" smooth="yes"/>
      <point x="377" y="-89"/>
      <point x="343" y="-3"/>
      <point x="343" y="128" type="curve" smooth="yes"/>
      <point x="343" y="266"/>
      <point x="406" y="350"/>
      <point x="444" y="350" type="curve" smooth="yes"/>
      <point x="468" y="350"/>
      <point x="485" y="317"/>
      <point x="485" y="284" type="curve" smooth="yes"/>
      <point x="485" y="246"/>
      <point x="475" y="217"/>
      <point x="426" y="196" type="curve" smooth="yes"/>
      <point x="379" y="176"/>
      <point x="292" y="170"/>
      <point x="196" y="170" type="curve" smooth="yes"/>
      <point x="150" y="170"/>
      <point x="96" y="172"/>
      <point x="46" y="177" type="curve"/>
      <point x="30" y="13" type="line"/>
      <point x="79" y="-1"/>
      <point x="129" y="-10"/>
      <point x="186" y="-10" type="curve" smooth="yes"/>
      <point x="317" y="-10"/>
      <point x="407" y="18"/>
      <point x="486" y="69" type="curve" smooth="yes"/>
      <point x="555" y="114"/>
      <point x="627" y="195"/>
      <point x="627" y="310" type="curve" smooth="yes"/>
      <point x="627" y="417"/>
      <point x="557" y="510"/>
      <point x="472" y="510" type="curve" smooth="yes"/>
      <point x="354" y="510"/>
      <point x="204" y="355"/>
      <point x="204" y="87" type="curve" smooth="yes"/>
      <point x="204" y="-111"/>
      <point x="303" y="-240"/>
    </contour>
  </outline>
</glyph>
<glyph name="yehbarree-ar.fina" format="2">
  <advance width="651"/>
  <unicode hex="FBAF"/>
  <anchor x="337" y="-341" name="bottom"/>
  <anchor x="218" y="176" name="top"/>
  <outline>
    <contour>
      <point x="354" y="-298" type="curve" smooth="yes"/>
      <point x="478" y="-298"/>
      <point x="588" y="-289"/>
      <point x="663" y="-276" type="curve"/>
      <point x="677" y="-102" type="line"/>
      <point x="603" y="-110"/>
      <point x="517" y="-118"/>
      <point x="382" y="-118" type="curve" smooth="yes"/>
      <point x="265" y="-118"/>
      <point x="193" y="-102"/>
      <point x="193" y="-71" type="curve" smooth="yes"/>
      <point x="193" y="-38"/>
      <point x="233" y="-10"/>
      <point x="382" y="-10" type="curve" smooth="yes"/>
      <point x="450" y="-10"/>
      <point x="554" y="-10"/>
      <point x="651" y="-10" type="curve" smooth="yes"/>
      <point x="717" y="-10"/>
      <point x="751" y="30"/>
      <point x="751" y="81" type="curve" smooth="yes"/>
      <point x="751" y="126"/>
      <point x="725" y="170"/>
      <point x="661" y="170" type="curve" smooth="yes"/>
      <point x="572" y="170"/>
      <point x="500" y="170"/>
      <point x="429" y="170" type="curve" smooth="yes"/>
      <point x="172" y="170"/>
      <point x="22" y="79"/>
      <point x="22" y="-83" type="curve" smooth="yes"/>
      <point x="22" y="-245"/>
      <point x="164" y="-298"/>
    </contour>
  </outline>
</glyph>
<glyph name="kaf_alefMaksura-ar" format="2">
  <advance width="1084"/>
  <unicode hex="FC3D"/>
  <anchor x="357" y="-241" name="bottom.dot"/>
  <anchor x="858" y="-111" name="bottom_1"/>
  <anchor x="357" y="-281" name="bottom_2"/>
  <anchor x="168" y="225" name="top.dot_2"/>
  <anchor x="783" y="709" name="top_1"/>
  <anchor x="365" y="299" name="top_2"/>
  <outline>
    <contour>
      <point x="368" y="-252" type="curve" smooth="yes"/>
      <point x="625" y="-252"/>
      <point x="765" y="-114"/>
      <point x="765" y="-14" type="curve" smooth="yes"/>
      <point x="765" y="13"/>
      <point x="760" y="58"/>
      <point x="734" y="90" type="curve"/>
      <point x="689" y="17" type="line"/>
      <point x="711" y="7"/>
      <point x="734" y="3"/>
      <point x="764" y="3" type="curve" smooth="yes"/>
      <point x="890" y="3"/>
      <point x="973" y="80"/>
      <point x="973" y="207" type="curve" smooth="yes"/>
      <point x="973" y="331"/>
      <point x="881" y="418"/>
      <point x="703" y="520" type="curve"/>
      <point x="665" y="440" type="line"/>
      <point x="1064" y="586" type="line"/>
      <point x="1063" y="764" type="line"/>
      <point x="600" y="564" type="line"/>
      <point x="572" y="418" type="line"/>
      <point x="740" y="321"/>
      <point x="808" y="261"/>
      <point x="808" y="216" type="curve" smooth="yes"/>
      <point x="808" y="184"/>
      <point x="775" y="176"/>
      <point x="728" y="176" type="curve" smooth="yes"/>
      <point x="673" y="176"/>
      <point x="618" y="186"/>
      <point x="557" y="202" type="curve"/>
      <point x="517" y="55" type="line"/>
      <point x="592" y="37"/>
      <point x="632" y="27"/>
      <point x="632" y="4" type="curve" smooth="yes"/>
      <point x="632" y="-29"/>
      <point x="558" y="-72"/>
      <point x="392" y="-72" type="curve" smooth="yes"/>
      <point x="253" y="-72"/>
      <point x="201" y="-37"/>
      <point x="201" y="51" type="curve" smooth="yes"/>
      <point x="201" y="103"/>
      <point x="209" y="147"/>
      <point x="225" y="216" type="curve"/>
      <point x="99" y="243" type="line"/>
      <point x="60" y="156"/>
      <point x="44" y="79"/>
      <point x="44" y="13" type="curve" smooth="yes"/>
      <point x="44" y="-168"/>
      <point x="165" y="-252"/>
    </contour>
  </outline>
</glyph>
<glyph name="kaf_alefMaksura-ar.fina" format="2">
  <advance width="1093"/>
  <unicode hex="FC83"/>
  <anchor x="357" y="-241" name="bottom.dot"/>
  <anchor x="858" y="-111" name="bottom_1"/>
  <anchor x="357" y="-281" name="bottom_2"/>
  <anchor x="168" y="225" name="top.dot_2"/>
  <anchor x="783" y="709" name="top_1"/>
  <anchor x="365" y="299" name="top_2"/>
  <outline>
    <contour>
      <point x="1093" y="-10" type="curve" smooth="yes"/>
      <point x="1159" y="-10"/>
      <point x="1193" y="30"/>
      <point x="1193" y="81" type="curve" smooth="yes"/>
      <point x="1193" y="126"/>
      <point x="1167" y="170"/>
      <point x="1103" y="170" type="curve" smooth="yes"/>
      <point x="1041" y="170"/>
      <point x="990" y="204"/>
      <point x="939" y="261" type="curve" smooth="yes"/>
      <point x="697" y="529" type="line"/>
      <point x="675" y="437" type="line"/>
      <point x="1064" y="586" type="line"/>
      <point x="1063" y="764" type="line"/>
      <point x="610" y="564" type="line"/>
      <point x="582" y="418" type="line"/>
      <point x="670" y="323"/>
      <point x="750" y="229"/>
      <point x="832" y="134" type="curve" smooth="yes"/>
      <point x="899" y="56"/>
      <point x="974" y="-10"/>
    </contour>
    <contour>
      <point x="368" y="-252" type="curve" smooth="yes"/>
      <point x="625" y="-252"/>
      <point x="765" y="-122"/>
      <point x="765" y="-14" type="curve" smooth="yes"/>
      <point x="765" y="27"/>
      <point x="757" y="58"/>
      <point x="729" y="87" type="curve"/>
      <point x="683" y="37" type="line"/>
      <point x="696" y="31"/>
      <point x="705" y="27"/>
      <point x="729" y="27" type="curve" smooth="yes"/>
      <point x="780" y="27"/>
      <point x="840" y="66"/>
      <point x="861" y="163" type="curve"/>
      <point x="782" y="252" type="line"/>
      <point x="757" y="216"/>
      <point x="719" y="189"/>
      <point x="655" y="189" type="curve" smooth="yes"/>
      <point x="622" y="189"/>
      <point x="594" y="192"/>
      <point x="557" y="202" type="curve"/>
      <point x="517" y="55" type="line"/>
      <point x="592" y="37"/>
      <point x="632" y="27"/>
      <point x="632" y="4" type="curve" smooth="yes"/>
      <point x="632" y="-29"/>
      <point x="558" y="-72"/>
      <point x="392" y="-72" type="curve" smooth="yes"/>
      <point x="253" y="-72"/>
      <point x="201" y="-37"/>
      <point x="201" y="51" type="curve" smooth="yes"/>
      <point x="201" y="103"/>
      <point x="209" y="147"/>
      <point x="225" y="216" type="curve"/>
      <point x="99" y="243" type="line"/>
      <point x="60" y="156"/>
      <point x="44" y="79"/>
      <point x="44" y="13" type="curve" smooth="yes"/>
      <point x="44" y="-168"/>
      <point x="165" y="-252"/>
    </contour>
  </outline>
</glyph>
<glyph name="sad_alefMaksura-ar" format="2">
  <advance width="1626"/>
  <unicode hex="FD05"/>
  <anchor x="357" y="-241" name="bottom.dot_2"/>
  <anchor x="1200" y="-111" name="bottom_1"/>
  <anchor x="357" y="-281" name="bottom_2"/>
  <anchor x="1286" y="499" name="top.dot_1"/>
  <anchor x="168" y="215" name="top.dot_2"/>
  <anchor x="1208" y="596" name="top_1"/>
  <anchor x="278" y="396" name="top_2"/>
  <outline>
    <contour>
      <point x="356" y="-252" type="curve" smooth="yes"/>
      <point x="623" y="-252"/>
      <point x="759" y="-131"/>
      <point x="759" y="2" type="curve" smooth="yes"/>
      <point x="759" y="89"/>
      <point x="713" y="127"/>
      <point x="589" y="168" type="curve" smooth="yes"/>
      <point x="534" y="186"/>
      <point x="514" y="192"/>
      <point x="514" y="214" type="curve" smooth="yes"/>
      <point x="514" y="241"/>
      <point x="562" y="265"/>
      <point x="631" y="265" type="curve" smooth="yes"/>
      <point x="697" y="265"/>
      <point x="732" y="243"/>
      <point x="765" y="177" type="curve" smooth="yes"/>
      <point x="844" y="17"/>
      <point x="967" y="-10"/>
      <point x="1175" y="-10" type="curve" smooth="yes"/>
      <point x="1459" y="-10"/>
      <point x="1581" y="88"/>
      <point x="1581" y="252" type="curve" smooth="yes"/>
      <point x="1581" y="389"/>
      <point x="1491" y="502"/>
      <point x="1347" y="502" type="curve" smooth="yes"/>
      <point x="1193" y="502"/>
      <point x="1033" y="378"/>
      <point x="903" y="142" type="curve"/>
      <point x="1041" y="96" type="line"/>
      <point x="1112" y="225"/>
      <point x="1202" y="322"/>
      <point x="1307" y="322" type="curve" smooth="yes"/>
      <point x="1374" y="322"/>
      <point x="1417" y="280"/>
      <point x="1417" y="237" type="curve" smooth="yes"/>
      <point x="1417" y="183"/>
      <point x="1359" y="170"/>
      <point x="1183" y="170" type="curve" smooth="yes"/>
      <point x="971" y="170"/>
      <point x="940" y="202"/>
      <point x="903" y="278" type="curve" smooth="yes"/>
      <point x="847" y="393"/>
      <point x="789" y="441"/>
      <point x="666" y="441" type="curve" smooth="yes"/>
      <point x="510" y="441"/>
      <point x="362" y="327"/>
      <point x="362" y="184" type="curve" smooth="yes"/>
      <point x="362" y="106"/>
      <point x="400" y="59"/>
      <point x="517" y="22" type="curve" smooth="yes"/>
      <point x="580" y="2"/>
      <point x="601" y="-4"/>
      <point x="601" y="-19" type="curve" smooth="yes"/>
      <point x="601" y="-44"/>
      <point x="518" y="-72"/>
      <point x="382" y="-72" type="curve" smooth="yes"/>
      <point x="263" y="-72"/>
      <point x="201" y="-47"/>
      <point x="201" y="51" type="curve" smooth="yes"/>
      <point x="201" y="103"/>
      <point x="209" y="147"/>
      <point x="225" y="216" type="curve"/>
      <point x="99" y="243" type="line"/>
      <point x="60" y="156"/>
      <point x="44" y="79"/>
      <point x="44" y="13" type="curve" smooth="yes"/>
      <point x="44" y="-168"/>
      <point x="163" y="-252"/>
    </contour>
  </outline>
</glyph>
<glyph name="sad_reh-ar" format="2">
  <advance width="1404"/>
  <unicode hex="FD0F"/>
  <anchor x="978" y="-111" name="bottom_1"/>
  <anchor x="148" y="-308" name="bottom_2"/>
  <anchor x="1064" y="499" name="top.dot_1"/>
  <anchor x="261" y="340" name="top.dot_2"/>
  <anchor x="986" y="596" name="top_1"/>
  <anchor x="257" y="513" name="top_2"/>
  <outline>
    <contour>
      <point x="107" y="-266" type="curve" smooth="yes"/>
      <point x="308" y="-266"/>
      <point x="430" y="-161"/>
      <point x="430" y="45" type="curve" smooth="yes"/>
      <point x="430" y="94"/>
      <point x="428" y="134"/>
      <point x="423" y="176" type="curve"/>
      <point x="370" y="130" type="line"/>
      <point x="458" y="135"/>
      <point x="545" y="157"/>
      <point x="633" y="182" type="curve"/>
      <point x="574" y="197" type="line"/>
      <point x="593" y="43"/>
      <point x="675" y="-10"/>
      <point x="943" y="-10" type="curve" smooth="yes"/>
      <point x="1237" y="-10"/>
      <point x="1359" y="88"/>
      <point x="1359" y="252" type="curve" smooth="yes"/>
      <point x="1359" y="389"/>
      <point x="1269" y="502"/>
      <point x="1125" y="502" type="curve" smooth="yes"/>
      <point x="971" y="502"/>
      <point x="811" y="378"/>
      <point x="681" y="142" type="curve"/>
      <point x="819" y="96" type="line"/>
      <point x="890" y="225"/>
      <point x="980" y="322"/>
      <point x="1085" y="322" type="curve" smooth="yes"/>
      <point x="1152" y="322"/>
      <point x="1195" y="280"/>
      <point x="1195" y="237" type="curve" smooth="yes"/>
      <point x="1195" y="183"/>
      <point x="1137" y="170"/>
      <point x="961" y="170" type="curve" smooth="yes"/>
      <point x="756" y="170"/>
      <point x="721" y="177"/>
      <point x="701" y="233" type="curve" smooth="yes"/>
      <point x="693" y="256"/>
      <point x="690" y="292"/>
      <point x="687" y="340" type="curve"/>
      <point x="583" y="338" type="line"/>
      <point x="493" y="312"/>
      <point x="413" y="296"/>
      <point x="323" y="290" type="curve"/>
      <point x="257" y="170" type="line"/>
      <point x="264" y="136"/>
      <point x="272" y="106"/>
      <point x="272" y="64" type="curve" smooth="yes"/>
      <point x="272" y="-38"/>
      <point x="206" y="-102"/>
      <point x="82" y="-102" type="curve" smooth="yes"/>
      <point x="41" y="-102"/>
      <point x="2" y="-98"/>
      <point x="-42" y="-89" type="curve"/>
      <point x="-35" y="-238" type="line"/>
      <point x="1" y="-257"/>
      <point x="53" y="-266"/>
    </contour>
  </outline>
</glyph>
<glyph name="seen_alefMaksura-ar.fina" format="2">
  <advance width="1635"/>
  <unicode hex="FD17"/>
  <anchor x="357" y="-241" name="bottom.dot_2"/>
  <anchor x="1168" y="-111" name="bottom_1"/>
  <anchor x="357" y="-281" name="bottom_2"/>
  <anchor x="1168" y="377" name="top.dot_1"/>
  <anchor x="168" y="215" name="top.dot_2"/>
  <anchor x="1166" y="518" name="top_1"/>
  <anchor x="278" y="396" name="top_2"/>
  <outline>
    <contour>
      <point x="356" y="-252" type="curve" smooth="yes"/>
      <point x="623" y="-252"/>
      <point x="759" y="-131"/>
      <point x="759" y="2" type="curve" smooth="yes"/>
      <point x="759" y="89"/>
      <point x="713" y="127"/>
      <point x="589" y="168" type="curve" smooth="yes"/>
      <point x="534" y="186"/>
      <point x="514" y="192"/>
      <point x="514" y="214" type="curve" smooth="yes"/>
      <point x="514" y="241"/>
      <point x="562" y="265"/>
      <point x="631" y="265" type="curve" smooth="yes"/>
      <point x="697" y="265"/>
      <point x="736" y="246"/>
      <point x="765" y="177" type="curve" smooth="yes"/>
      <point x="828" y="27"/>
      <point x="895" y="-10"/>
      <point x="1002" y="-10" type="curve" smooth="yes"/>
      <point x="1083" y="-10"/>
      <point x="1170" y="23"/>
      <point x="1200" y="141" type="curve"/>
      <point x="1161" y="141" type="line"/>
      <point x="1179" y="26"/>
      <point x="1246" y="-10"/>
      <point x="1323" y="-10" type="curve" smooth="yes"/>
      <point x="1416" y="-10"/>
      <point x="1478" y="48"/>
      <point x="1488" y="138" type="curve"/>
      <point x="1450" y="134" type="line"/>
      <point x="1481" y="28"/>
      <point x="1552" y="-10"/>
      <point x="1635" y="-10" type="curve" smooth="yes"/>
      <point x="1702" y="-10"/>
      <point x="1735" y="30"/>
      <point x="1735" y="81" type="curve" smooth="yes"/>
      <point x="1735" y="126"/>
      <point x="1709" y="170"/>
      <point x="1645" y="170" type="curve" smooth="yes"/>
      <point x="1599" y="170"/>
      <point x="1564" y="178"/>
      <point x="1544" y="219" type="curve" smooth="yes"/>
      <point x="1525" y="258"/>
      <point x="1512" y="346"/>
      <point x="1494" y="455" type="curve"/>
      <point x="1348" y="423" type="line"/>
      <point x="1362" y="335"/>
      <point x="1368" y="295"/>
      <point x="1368" y="252" type="curve" smooth="yes"/>
      <point x="1368" y="198"/>
      <point x="1352" y="170"/>
      <point x="1303" y="170" type="curve" smooth="yes"/>
      <point x="1264" y="170"/>
      <point x="1248" y="187"/>
      <point x="1241" y="236" type="curve" smooth="yes"/>
      <point x="1236" y="273"/>
      <point x="1235" y="305"/>
      <point x="1232" y="381" type="curve"/>
      <point x="1089" y="368" type="line"/>
      <point x="1094" y="192"/>
      <point x="1047" y="170"/>
      <point x="1002" y="170" type="curve" smooth="yes"/>
      <point x="960" y="170"/>
      <point x="938" y="191"/>
      <point x="903" y="278" type="curve" smooth="yes"/>
      <point x="855" y="397"/>
      <point x="789" y="441"/>
      <point x="666" y="441" type="curve" smooth="yes"/>
      <point x="510" y="441"/>
      <point x="362" y="327"/>
      <point x="362" y="184" type="curve" smooth="yes"/>
      <point x="362" y="106"/>
      <point x="400" y="59"/>
      <point x="517" y="22" type="curve" smooth="yes"/>
      <point x="580" y="2"/>
      <point x="601" y="-4"/>
      <point x="601" y="-19" type="curve" smooth="yes"/>
      <point x="601" y="-44"/>
      <point x="518" y="-72"/>
      <point x="382" y="-72" type="curve" smooth="yes"/>
      <point x="263" y="-72"/>
      <point x="201" y="-47"/>
      <point x="201" y="51" type="curve" smooth="yes"/>
      <point x="201" y="103"/>
      <point x="209" y="147"/>
      <point x="225" y="216" type="curve"/>
      <point x="99" y="243" type="line"/>
      <point x="60" y="156"/>
      <point x="44" y="79"/>
      <point x="44" y="13" type="curve" smooth="yes"/>
      <point x="44" y="-168"/>
      <point x="163" y="-252"/>
    </contour>
  </outline>
</glyph>
<glyph name="seen_reh-ar.fina" format="2">
  <advance width="1404"/>
  <unicode hex="FD2A"/>
  <anchor x="936" y="-111" name="bottom_1"/>
  <anchor x="148" y="-308" name="bottom_2"/>
  <anchor x="936" y="377" name="top.dot_1"/>
  <anchor x="261" y="340" name="top.dot_2"/>
  <anchor x="934" y="518" name="top_1"/>
  <anchor x="257" y="513" name="top_2"/>
  <outline>
    <contour>
      <point x="107" y="-266" type="curve" smooth="yes"/>
      <point x="298" y="-266"/>
      <point x="434" y="-170"/>
      <point x="434" y="36" type="curve" smooth="yes"/>
      <point x="434" y="85"/>
      <point x="429" y="137"/>
      <point x="421" y="188" type="curve"/>
      <point x="370" y="130" type="line"/>
      <point x="458" y="135"/>
      <point x="545" y="155"/>
      <point x="633" y="180" type="curve"/>
      <point x="580" y="217" type="line"/>
      <point x="579" y="204"/>
      <point x="577" y="186"/>
      <point x="577" y="157" type="curve" smooth="yes"/>
      <point x="577" y="54"/>
      <point x="632" y="-10"/>
      <point x="769" y="-10" type="curve" smooth="yes"/>
      <point x="843" y="-10"/>
      <point x="931" y="21"/>
      <point x="969" y="141" type="curve"/>
      <point x="930" y="141" type="line"/>
      <point x="948" y="26"/>
      <point x="1015" y="-10"/>
      <point x="1092" y="-10" type="curve" smooth="yes"/>
      <point x="1185" y="-10"/>
      <point x="1247" y="48"/>
      <point x="1257" y="138" type="curve"/>
      <point x="1219" y="134" type="line"/>
      <point x="1250" y="28"/>
      <point x="1321" y="-10"/>
      <point x="1404" y="-10" type="curve" smooth="yes"/>
      <point x="1471" y="-10"/>
      <point x="1504" y="30"/>
      <point x="1504" y="81" type="curve" smooth="yes"/>
      <point x="1504" y="126"/>
      <point x="1478" y="170"/>
      <point x="1414" y="170" type="curve" smooth="yes"/>
      <point x="1368" y="170"/>
      <point x="1333" y="178"/>
      <point x="1313" y="219" type="curve" smooth="yes"/>
      <point x="1294" y="258"/>
      <point x="1281" y="346"/>
      <point x="1263" y="455" type="curve"/>
      <point x="1117" y="423" type="line"/>
      <point x="1131" y="335"/>
      <point x="1137" y="295"/>
      <point x="1137" y="252" type="curve" smooth="yes"/>
      <point x="1137" y="198"/>
      <point x="1121" y="170"/>
      <point x="1072" y="170" type="curve" smooth="yes"/>
      <point x="1033" y="170"/>
      <point x="1017" y="187"/>
      <point x="1010" y="236" type="curve" smooth="yes"/>
      <point x="1005" y="273"/>
      <point x="1004" y="305"/>
      <point x="1001" y="381" type="curve"/>
      <point x="858" y="368" type="line"/>
      <point x="861" y="182"/>
      <point x="816" y="170"/>
      <point x="764" y="170" type="curve" smooth="yes"/>
      <point x="720" y="170"/>
      <point x="696" y="192"/>
      <point x="696" y="242" type="curve" smooth="yes"/>
      <point x="696" y="276"/>
      <point x="697" y="304"/>
      <point x="700" y="340" type="curve"/>
      <point x="594" y="338" type="line"/>
      <point x="504" y="312"/>
      <point x="413" y="296"/>
      <point x="323" y="290" type="curve"/>
      <point x="257" y="170" type="line"/>
      <point x="264" y="136"/>
      <point x="272" y="106"/>
      <point x="272" y="64" type="curve" smooth="yes"/>
      <point x="272" y="-38"/>
      <point x="206" y="-102"/>
      <point x="82" y="-102" type="curve" smooth="yes"/>
      <point x="41" y="-102"/>
      <point x="2" y="-98"/>
      <point x="-42" y="-89" type="curve"/>
      <point x="-35" y="-238" type="line"/>
      <point x="1" y="-257"/>
      <point x="53" y="-266"/>
    </contour>
  </outline>
</glyph>
<glyph name="sad_lam_yeh-ar" format="2">
  <advance width="1651"/>
  <unicode hex="FDF0"/>
  <outline>
    <contour>
      <point x="526" y="-298" type="curve" smooth="yes"/>
      <point x="650" y="-298"/>
      <point x="910" y="-289"/>
      <point x="1115" y="-276" type="curve"/>
      <point x="1129" y="-102" type="line"/>
      <point x="925" y="-110"/>
      <point x="689" y="-118"/>
      <point x="554" y="-118" type="curve" smooth="yes"/>
      <point x="269" y="-118"/>
      <point x="215" y="-105"/>
      <point x="215" y="-61" type="curve" smooth="yes"/>
      <point x="215" y="-25"/>
      <point x="248" y="-11"/>
      <point x="324" y="-10" type="curve" smooth="yes"/>
      <point x="453" y="-8"/>
      <point x="526" y="27"/>
      <point x="565" y="129" type="curve"/>
      <point x="495" y="137" type="line"/>
      <point x="513" y="20"/>
      <point x="603" y="-10"/>
      <point x="685" y="-10" type="curve" smooth="yes"/>
      <point x="778" y="-10"/>
      <point x="864" y="16"/>
      <point x="913" y="137" type="curve"/>
      <point x="843" y="137" type="line"/>
      <point x="872" y="13"/>
      <point x="1022" y="-10"/>
      <point x="1200" y="-10" type="curve" smooth="yes"/>
      <point x="1484" y="-10"/>
      <point x="1606" y="88"/>
      <point x="1606" y="252" type="curve" smooth="yes"/>
      <point x="1606" y="389"/>
      <point x="1516" y="502"/>
      <point x="1372" y="502" type="curve" smooth="yes"/>
      <point x="1218" y="502"/>
      <point x="1058" y="378"/>
      <point x="928" y="142" type="curve"/>
      <point x="1066" y="96" type="line"/>
      <point x="1137" y="225"/>
      <point x="1227" y="322"/>
      <point x="1332" y="322" type="curve" smooth="yes"/>
      <point x="1399" y="322"/>
      <point x="1442" y="280"/>
      <point x="1442" y="237" type="curve" smooth="yes"/>
      <point x="1442" y="183"/>
      <point x="1384" y="170"/>
      <point x="1208" y="170" type="curve" smooth="yes"/>
      <point x="996" y="170"/>
      <point x="958" y="182"/>
      <point x="950" y="231" type="curve" smooth="yes"/>
      <point x="944" y="266"/>
      <point x="947" y="306"/>
      <point x="948" y="363" type="curve"/>
      <point x="806" y="356" type="line"/>
      <point x="790" y="199"/>
      <point x="748" y="170"/>
      <point x="688" y="170" type="curve" smooth="yes"/>
      <point x="626" y="170"/>
      <point x="598" y="187"/>
      <point x="595" y="273" type="curve" smooth="yes"/>
      <point x="578" y="760" type="line"/>
      <point x="417" y="760" type="line"/>
      <point x="430" y="279" type="line" smooth="yes"/>
      <point x="432" y="197"/>
      <point x="415" y="170"/>
      <point x="346" y="170" type="curve" smooth="yes"/>
      <point x="149" y="170"/>
      <point x="44" y="78"/>
      <point x="44" y="-74" type="curve" smooth="yes"/>
      <point x="44" y="-236"/>
      <point x="186" y="-298"/>
    </contour>
  </outline>
</glyph>
<glyph name="qaf_lam_yeh-ar" format="2">
  <advance width="1234"/>
  <unicode hex="FDF1"/>
  <outline>
    <contour>
      <point x="527" y="-298" type="curve" smooth="yes"/>
      <point x="651" y="-298"/>
      <point x="911" y="-289"/>
      <point x="1116" y="-276" type="curve"/>
      <point x="1130" y="-102" type="line"/>
      <point x="926" y="-110"/>
      <point x="690" y="-118"/>
      <point x="555" y="-118" type="curve" smooth="yes"/>
      <point x="270" y="-118"/>
      <point x="216" y="-105"/>
      <point x="216" y="-61" type="curve" smooth="yes"/>
      <point x="216" y="-25"/>
      <point x="249" y="-11"/>
      <point x="325" y="-10" type="curve" smooth="yes"/>
      <point x="454" y="-8"/>
      <point x="527" y="27"/>
      <point x="566" y="129" type="curve"/>
      <point x="496" y="137" type="line"/>
      <point x="514" y="20"/>
      <point x="604" y="-10"/>
      <point x="706" y="-10" type="curve" smooth="yes"/>
      <point x="940" y="-10"/>
      <point x="1012" y="1"/>
      <point x="1080" y="38" type="curve" smooth="yes"/>
      <point x="1158" y="80"/>
      <point x="1189" y="158"/>
      <point x="1189" y="286" type="curve" smooth="yes"/>
      <point x="1189" y="475"/>
      <point x="1106" y="607"/>
      <point x="960" y="607" type="curve" smooth="yes"/>
      <point x="833" y="607"/>
      <point x="750" y="497"/>
      <point x="750" y="380" type="curve" smooth="yes"/>
      <point x="750" y="267"/>
      <point x="821" y="215"/>
      <point x="937" y="215" type="curve" smooth="yes"/>
      <point x="1002" y="215"/>
      <point x="1070" y="232"/>
      <point x="1105" y="259" type="curve"/>
      <point x="1094" y="371" type="line"/>
      <point x="1047" y="348"/>
      <point x="1006" y="340"/>
      <point x="958" y="340" type="curve" smooth="yes"/>
      <point x="914" y="340"/>
      <point x="884" y="349"/>
      <point x="884" y="389" type="curve" smooth="yes"/>
      <point x="884" y="428"/>
      <point x="912" y="454"/>
      <point x="952" y="454" type="curve" smooth="yes"/>
      <point x="1013" y="454"/>
      <point x="1049" y="398"/>
      <point x="1049" y="284" type="curve" smooth="yes"/>
      <point x="1049" y="220"/>
      <point x="1045" y="206"/>
      <point x="1026" y="193" type="curve" smooth="yes"/>
      <point x="991" y="170"/>
      <point x="907" y="170"/>
      <point x="704" y="170" type="curve" smooth="yes"/>
      <point x="632" y="170"/>
      <point x="599" y="187"/>
      <point x="596" y="273" type="curve" smooth="yes"/>
      <point x="579" y="760" type="line"/>
      <point x="418" y="760" type="line"/>
      <point x="431" y="279" type="line" smooth="yes"/>
      <point x="433" y="197"/>
      <point x="416" y="170"/>
      <point x="347" y="170" type="curve" smooth="yes"/>
      <point x="150" y="170"/>
      <point x="45" y="78"/>
      <point x="45" y="-74" type="curve" smooth="yes"/>
      <point x="45" y="-236"/>
      <point x="187" y="-298"/>
    </contour>
    <contour>
      <point x="871.82" y="646.7" type="curve"/>
      <point x="966.88" y="742.74" type="line"/>
      <point x="926.7" y="787.82"/>
      <point x="906.12" y="807.42"/>
      <point x="864.96" y="840.74" type="curve"/>
      <point x="770.88" y="740.78" type="line"/>
      <point x="814" y="703.54"/>
      <point x="834.58" y="683.94"/>
    </contour>
    <contour>
      <point x="1047.82" y="646.7" type="curve"/>
      <point x="1142.88" y="742.74" type="line"/>
      <point x="1102.7" y="787.82"/>
      <point x="1082.12" y="807.42"/>
      <point x="1040.96" y="840.74" type="curve"/>
      <point x="946.88" y="740.78" type="line"/>
      <point x="990" y="703.54"/>
      <point x="1010.58" y="683.94"/>
    </contour>
  </outline>
</glyph>
<glyph name="allahlong-ar" format="2">
  <advance width="1125"/>
  <unicode hex="FDFA"/>
  <outline>
    <contour>
      <point x="464" y="295" type="curve" smooth="yes"/>
      <point x="556" y="295"/>
      <point x="606" y="344"/>
      <point x="606" y="380" type="curve" smooth="yes"/>
      <point x="606" y="394"/>
      <point x="605" y="404"/>
      <point x="595" y="420" type="curve"/>
      <point x="586" y="405" type="line"/>
      <point x="627" y="410"/>
      <point x="648" y="444"/>
      <point x="657" y="474" type="curve"/>
      <point x="637" y="464" type="line"/>
      <point x="644" y="422"/>
      <point x="698" y="411"/>
      <point x="727" y="411" type="curve" smooth="yes"/>
      <point x="777" y="411"/>
      <point x="815" y="421"/>
      <point x="841" y="464" type="curve"/>
      <point x="816" y="464" type="line"/>
      <point x="826" y="419"/>
      <point x="880" y="411"/>
      <point x="944" y="411" type="curve" smooth="yes"/>
      <point x="1045" y="411"/>
      <point x="1089" y="447"/>
      <point x="1089" y="505" type="curve" smooth="yes"/>
      <point x="1089" y="554"/>
      <point x="1056" y="595"/>
      <point x="1005" y="595" type="curve" smooth="yes"/>
      <point x="950" y="595"/>
      <point x="893" y="550"/>
      <point x="847" y="466" type="curve"/>
      <point x="896" y="449" type="line"/>
      <point x="921" y="496"/>
      <point x="954" y="530"/>
      <point x="991" y="530" type="curve" smooth="yes"/>
      <point x="1015" y="530"/>
      <point x="1031" y="515"/>
      <point x="1031" y="500" type="curve" smooth="yes"/>
      <point x="1031" y="481"/>
      <point x="1009" y="476"/>
      <point x="946" y="476" type="curve" smooth="yes"/>
      <point x="871" y="476"/>
      <point x="858" y="480"/>
      <point x="854" y="498" type="curve" smooth="yes"/>
      <point x="851" y="510"/>
      <point x="853" y="524"/>
      <point x="853" y="545" type="curve"/>
      <point x="803" y="542" type="line"/>
      <point x="797" y="487"/>
      <point x="784" y="476"/>
      <point x="736" y="476" type="curve" smooth="yes"/>
      <point x="708" y="476"/>
      <point x="671" y="480"/>
      <point x="670" y="520" type="curve" smooth="yes"/>
      <point x="664" y="727" type="line"/>
      <point x="606" y="727" type="line"/>
      <point x="611" y="520" type="line" smooth="yes"/>
      <point x="612" y="477"/>
      <point x="580" y="454"/>
      <point x="532" y="461" type="curve"/>
      <point x="517" y="408" type="line"/>
      <point x="545" y="401"/>
      <point x="558" y="395"/>
      <point x="558" y="387" type="curve" smooth="yes"/>
      <point x="558" y="375"/>
      <point x="532" y="360"/>
      <point x="473" y="360" type="curve" smooth="yes"/>
      <point x="423" y="360"/>
      <point x="404" y="371"/>
      <point x="404" y="403" type="curve" smooth="yes"/>
      <point x="404" y="422"/>
      <point x="407" y="438"/>
      <point x="413" y="462" type="curve"/>
      <point x="368" y="472" type="line"/>
      <point x="354" y="441"/>
      <point x="348" y="413"/>
      <point x="348" y="389" type="curve" smooth="yes"/>
      <point x="348" y="325"/>
      <point x="391" y="295"/>
    </contour>
    <contour>
      <point x="504" y="477" type="line"/>
      <point x="562" y="477" type="line"/>
      <point x="557" y="728" type="line"/>
      <point x="499" y="728" type="line"/>
    </contour>
    <contour>
      <point x="254" y="411" type="curve" smooth="yes"/>
      <point x="294" y="411"/>
      <point x="320" y="419"/>
      <point x="333" y="464" type="curve"/>
      <point x="312" y="464" type="line"/>
      <point x="319" y="424"/>
      <point x="349" y="411"/>
      <point x="378" y="411" type="curve" smooth="yes"/>
      <point x="440" y="411"/>
      <point x="466" y="446"/>
      <point x="463" y="522" type="curve" smooth="yes"/>
      <point x="457" y="653" type="line"/>
      <point x="401" y="653" type="line"/>
      <point x="405" y="519" type="line" smooth="yes"/>
      <point x="406" y="485"/>
      <point x="399" y="476"/>
      <point x="378" y="476" type="curve" smooth="yes"/>
      <point x="355" y="476"/>
      <point x="347" y="484"/>
      <point x="346" y="519" type="curve" smooth="yes"/>
      <point x="341" y="650" type="line"/>
      <point x="283" y="650" type="line"/>
      <point x="289" y="519" type="line" smooth="yes"/>
      <point x="291" y="484"/>
      <point x="281" y="476"/>
      <point x="261" y="476" type="curve" smooth="yes"/>
      <point x="239" y="476"/>
      <point x="232" y="484"/>
      <point x="231" y="510" type="curve" smooth="yes"/>
      <point x="225" y="637" type="line"/>
      <point x="170" y="637" type="line"/>
      <point x="177" y="484" type="line" smooth="yes"/>
      <point x="179" y="439"/>
      <point x="209" y="411"/>
    </contour>
    <contour>
      <point x="150" y="448" type="curve" smooth="yes"/>
      <point x="165" y="448"/>
      <point x="180" y="449"/>
      <point x="197" y="453" type="curve"/>
      <point x="194" y="509" type="line"/>
      <point x="183" y="504"/>
      <point x="170" y="502"/>
      <point x="157" y="502" type="curve" smooth="yes"/>
      <point x="137" y="502"/>
      <point x="122" y="505"/>
      <point x="122" y="519" type="curve" smooth="yes"/>
      <point x="122" y="536"/>
      <point x="145" y="550"/>
      <point x="191" y="561" type="curve"/>
      <point x="186" y="613" type="line"/>
      <point x="116" y="593"/>
      <point x="65" y="561"/>
      <point x="65" y="511" type="curve" smooth="yes"/>
      <point x="65" y="463"/>
      <point x="102" y="448"/>
    </contour>
    <contour>
      <point x="399" y="160" type="curve" smooth="yes"/>
      <point x="512" y="160"/>
      <point x="589" y="177"/>
      <point x="617" y="227" type="curve"/>
      <point x="602" y="228" type="line"/>
      <point x="606" y="188"/>
      <point x="629" y="163"/>
      <point x="678" y="163" type="curve" smooth="yes"/>
      <point x="709" y="163"/>
      <point x="749" y="176"/>
      <point x="762" y="219" type="curve"/>
      <point x="740" y="219" type="line"/>
      <point x="744" y="189"/>
      <point x="770" y="163"/>
      <point x="844" y="163" type="curve" smooth="yes"/>
      <point x="918" y="163"/>
      <point x="1009" y="174"/>
      <point x="1075" y="201" type="curve"/>
      <point x="1060" y="260" type="line"/>
      <point x="1029" y="249"/>
      <point x="1006" y="247"/>
      <point x="996" y="247" type="curve" smooth="yes"/>
      <point x="969" y="247"/>
      <point x="955" y="258"/>
      <point x="955" y="277" type="curve" smooth="yes"/>
      <point x="955" y="292"/>
      <point x="966" y="304"/>
      <point x="996" y="304" type="curve" smooth="yes"/>
      <point x="1011" y="304"/>
      <point x="1027" y="301"/>
      <point x="1043" y="298" type="curve"/>
      <point x="1048" y="357" type="line"/>
      <point x="1033" y="365"/>
      <point x="1012" y="370"/>
      <point x="992" y="370" type="curve" smooth="yes"/>
      <point x="930" y="370"/>
      <point x="894" y="331"/>
      <point x="894" y="281" type="curve" smooth="yes"/>
      <point x="894" y="252"/>
      <point x="912" y="231"/>
      <point x="922" y="221" type="curve"/>
      <point x="929" y="235" type="line"/>
      <point x="906" y="232"/>
      <point x="898" y="229"/>
      <point x="857" y="229" type="curve" smooth="yes"/>
      <point x="800" y="229"/>
      <point x="776" y="235"/>
      <point x="775" y="276" type="curve" smooth="yes"/>
      <point x="765" y="577" type="line"/>
      <point x="707" y="577" type="line"/>
      <point x="714" y="272" type="line" smooth="yes"/>
      <point x="715" y="240"/>
      <point x="702" y="229"/>
      <point x="681" y="229" type="curve" smooth="yes"/>
      <point x="658" y="229"/>
      <point x="650" y="241"/>
      <point x="648" y="258" type="curve" smooth="yes"/>
      <point x="646" y="272"/>
      <point x="646" y="285"/>
      <point x="646" y="308" type="curve"/>
      <point x="589" y="303" type="line"/>
      <point x="588" y="283"/>
      <point x="581" y="267"/>
      <point x="568" y="255" type="curve" smooth="yes"/>
      <point x="543" y="234"/>
      <point x="493" y="226"/>
      <point x="403" y="226" type="curve" smooth="yes"/>
      <point x="343" y="226"/>
      <point x="306" y="228"/>
      <point x="282" y="234" type="curve" smooth="yes"/>
      <point x="250" y="243"/>
      <point x="243" y="261"/>
      <point x="241" y="296" type="curve" smooth="yes"/>
      <point x="235" y="399" type="line"/>
      <point x="177" y="399" type="line"/>
      <point x="185" y="261" type="line" smooth="yes"/>
      <point x="188" y="213"/>
      <point x="205" y="187"/>
      <point x="250" y="173" type="curve" smooth="yes"/>
      <point x="283" y="163"/>
      <point x="331" y="160"/>
    </contour>
    <contour>
      <point x="158" y="201" type="curve" smooth="yes"/>
      <point x="174" y="201"/>
      <point x="188" y="203"/>
      <point x="207" y="207" type="curve"/>
      <point x="204" y="265" type="line"/>
      <point x="192" y="259"/>
      <point x="177" y="257"/>
      <point x="164" y="257" type="curve" smooth="yes"/>
      <point x="144" y="257"/>
      <point x="129" y="261"/>
      <point x="129" y="276" type="curve" smooth="yes"/>
      <point x="129" y="292"/>
      <point x="153" y="309"/>
      <point x="199" y="320" type="curve"/>
      <point x="195" y="374" type="line"/>
      <point x="122" y="351"/>
      <point x="70" y="319"/>
      <point x="70" y="267" type="curve" smooth="yes"/>
      <point x="70" y="218"/>
      <point x="107" y="201"/>
    </contour>
    <contour>
      <point x="959" y="-132" type="curve" smooth="yes"/>
      <point x="1031" y="-132"/>
      <point x="1078" y="-79"/>
      <point x="1078" y="-4" type="curve" smooth="yes"/>
      <point x="1078" y="78"/>
      <point x="1045" y="126"/>
      <point x="998" y="126" type="curve" smooth="yes"/>
      <point x="952" y="126"/>
      <point x="920" y="80"/>
      <point x="920" y="29" type="curve" smooth="yes"/>
      <point x="920" y="-20"/>
      <point x="947" y="-42"/>
      <point x="998" y="-42" type="curve" smooth="yes"/>
      <point x="1018" y="-42"/>
      <point x="1037" y="-38"/>
      <point x="1050" y="-29" type="curve"/>
      <point x="1050" y="26" type="line"/>
      <point x="1031" y="21"/>
      <point x="1019" y="20"/>
      <point x="1005" y="20" type="curve" smooth="yes"/>
      <point x="981" y="20"/>
      <point x="972" y="24"/>
      <point x="972" y="39" type="curve" smooth="yes"/>
      <point x="972" y="54"/>
      <point x="979" y="67"/>
      <point x="994" y="67" type="curve" smooth="yes"/>
      <point x="1008" y="67"/>
      <point x="1029" y="57"/>
      <point x="1029" y="-1" type="curve" smooth="yes"/>
      <point x="1029" y="-54"/>
      <point x="1004" y="-75"/>
      <point x="951" y="-75" type="curve" smooth="yes"/>
      <point x="935" y="-75"/>
      <point x="920" y="-73"/>
      <point x="906" y="-69" type="curve"/>
      <point x="909" y="-123" type="line"/>
      <point x="920" y="-128"/>
      <point x="940" y="-132"/>
    </contour>
    <contour>
      <point x="220" y="-87" type="curve" smooth="yes"/>
      <point x="268" y="-87"/>
      <point x="286" y="-59"/>
      <point x="286" y="-18" type="curve" smooth="yes"/>
      <point x="286" y="18"/>
      <point x="275" y="55"/>
      <point x="247" y="76" type="curve"/>
      <point x="243" y="40" type="line"/>
      <point x="283" y="40"/>
      <point x="307" y="46"/>
      <point x="319" y="81" type="curve"/>
      <point x="305" y="90" type="line"/>
      <point x="308" y="58"/>
      <point x="312" y="29"/>
      <point x="321" y="7" type="curve" smooth="yes"/>
      <point x="338" y="-35"/>
      <point x="387" y="-58"/>
      <point x="478" y="-58" type="curve" smooth="yes"/>
      <point x="549" y="-58"/>
      <point x="620" y="-47"/>
      <point x="639" y="-3" type="curve"/>
      <point x="623" y="-3" type="line"/>
      <point x="633" y="-48"/>
      <point x="664" y="-58"/>
      <point x="689" y="-58" type="curve" smooth="yes"/>
      <point x="715" y="-58"/>
      <point x="745" y="-46"/>
      <point x="759" y="-2" type="curve"/>
      <point x="745" y="-2" type="line"/>
      <point x="751" y="-44"/>
      <point x="775" y="-58"/>
      <point x="803" y="-58" type="curve" smooth="yes"/>
      <point x="855" y="-58"/>
      <point x="879" y="-22"/>
      <point x="879" y="30" type="curve" smooth="yes"/>
      <point x="879" y="54"/>
      <point x="873" y="85"/>
      <point x="860" y="115" type="curve"/>
      <point x="809" y="99" type="line"/>
      <point x="816" y="74"/>
      <point x="820" y="57"/>
      <point x="820" y="38" type="curve" smooth="yes"/>
      <point x="820" y="19"/>
      <point x="814" y="8"/>
      <point x="797" y="8" type="curve" smooth="yes"/>
      <point x="782" y="8"/>
      <point x="776" y="15"/>
      <point x="774" y="31" type="curve" smooth="yes"/>
      <point x="772" y="46"/>
      <point x="772" y="57"/>
      <point x="771" y="86" type="curve"/>
      <point x="718" y="79" type="line"/>
      <point x="720" y="13"/>
      <point x="704" y="8"/>
      <point x="685" y="8" type="curve" smooth="yes"/>
      <point x="669" y="8"/>
      <point x="660" y="15"/>
      <point x="659" y="31" type="curve" smooth="yes"/>
      <point x="658" y="46"/>
      <point x="659" y="59"/>
      <point x="659" y="78" type="curve"/>
      <point x="608" y="76" type="line"/>
      <point x="602" y="19"/>
      <point x="572" y="8"/>
      <point x="493" y="8" type="curve" smooth="yes"/>
      <point x="383" y="8"/>
      <point x="363" y="23"/>
      <point x="361" y="93" type="curve" smooth="yes"/>
      <point x="354" y="332" type="line"/>
      <point x="296" y="332" type="line"/>
      <point x="300" y="161" type="line" smooth="yes"/>
      <point x="301" y="117"/>
      <point x="281" y="93"/>
      <point x="226" y="93" type="curve" smooth="yes"/>
      <point x="163" y="93"/>
      <point x="125" y="57"/>
      <point x="125" y="-6" type="curve" smooth="yes"/>
      <point x="125" y="-53"/>
      <point x="166" y="-87"/>
    </contour>
    <contour>
      <point x="216" y="-21" type="curve" smooth="yes"/>
      <point x="199" y="-21"/>
      <point x="176" y="-10"/>
      <point x="176" y="7" type="curve" smooth="yes"/>
      <point x="176" y="28"/>
      <point x="191" y="41"/>
      <point x="207" y="41" type="curve" smooth="yes"/>
      <point x="222" y="41"/>
      <point x="234" y="17"/>
      <point x="234" y="-3" type="curve" smooth="yes"/>
      <point x="234" y="-16"/>
      <point x="229" y="-21"/>
    </contour>
    <contour>
      <point x="58" y="-135" type="line"/>
      <point x="113" y="-126"/>
      <point x="149" y="-99"/>
      <point x="160" y="-42" type="curve"/>
      <point x="125" y="-6" type="line"/>
      <point x="125" y="-48"/>
      <point x="90" y="-73"/>
      <point x="36" y="-84" type="curve"/>
    </contour>
    <contour>
      <point x="880" y="620" type="line"/>
      <point x="1054" y="671" type="line"/>
      <point x="1054" y="702" type="line"/>
      <point x="880" y="651" type="line"/>
    </contour>
    <contour>
      <point x="696" y="640" type="line"/>
      <point x="870" y="691" type="line"/>
      <point x="870" y="722" type="line"/>
      <point x="696" y="671" type="line"/>
    </contour>
    <contour>
      <point x="286" y="672" type="curve" smooth="yes"/>
      <point x="301" y="672"/>
      <point x="316" y="683"/>
      <point x="316" y="706" type="curve"/>
      <point x="307" y="709" type="line"/>
      <point x="307" y="691"/>
      <point x="319" y="682"/>
      <point x="330" y="682" type="curve" smooth="yes"/>
      <point x="352" y="682"/>
      <point x="361" y="698"/>
      <point x="361" y="721" type="curve" smooth="yes"/>
      <point x="361" y="730"/>
      <point x="357" y="742"/>
      <point x="353" y="752" type="curve"/>
      <point x="330" y="747" type="line"/>
      <point x="333" y="738"/>
      <point x="335" y="731"/>
      <point x="335" y="722" type="curve" smooth="yes"/>
      <point x="335" y="714"/>
      <point x="333" y="709"/>
      <point x="328" y="709" type="curve" smooth="yes"/>
      <point x="323" y="709"/>
      <point x="321" y="712"/>
      <point x="321" y="721" type="curve" smooth="yes"/>
      <point x="321" y="742" type="line"/>
      <point x="300" y="736" type="line"/>
      <point x="300" y="726" type="line" smooth="yes"/>
      <point x="300" y="704"/>
      <point x="296" y="698"/>
      <point x="291" y="698" type="curve" smooth="yes"/>
      <point x="287" y="698"/>
      <point x="286" y="701"/>
      <point x="286" y="710" type="curve" smooth="yes"/>
      <point x="286" y="716"/>
      <point x="286" y="723"/>
      <point x="287" y="731" type="curve"/>
      <point x="262" y="726" type="line"/>
      <point x="260" y="719"/>
      <point x="260" y="713"/>
      <point x="260" y="707" type="curve" smooth="yes"/>
      <point x="260" y="687"/>
      <point x="264" y="672"/>
    </contour>
    <contour>
      <point x="455" y="63" type="curve"/>
      <point x="489" y="98" type="line"/>
      <point x="476" y="114"/>
      <point x="467" y="123"/>
      <point x="453" y="135" type="curve"/>
      <point x="418" y="98" type="line"/>
      <point x="432" y="85"/>
      <point x="440" y="77"/>
    </contour>
    <contour>
      <point x="531" y="63" type="curve"/>
      <point x="566" y="98" type="line"/>
      <point x="552" y="114"/>
      <point x="544" y="123"/>
      <point x="529" y="135" type="curve"/>
      <point x="495" y="98" type="line"/>
      <point x="509" y="85"/>
      <point x="517" y="77"/>
    </contour>
  </outline>
</glyph>
<glyph name="jallajalalouhou-ar" format="2">
  <advance width="1248"/>
  <unicode hex="FDFB"/>
  <outline>
    <contour>
      <point x="423" y="-99" type="curve" smooth="yes"/>
      <point x="599" y="-99"/>
      <point x="739" y="-57"/>
      <point x="766" y="57" type="curve"/>
      <point x="740" y="60" type="line"/>
      <point x="750" y="1"/>
      <point x="792" y="-23"/>
      <point x="851" y="-23" type="curve" smooth="yes"/>
      <point x="994" y="-23"/>
      <point x="1057" y="80"/>
      <point x="1189" y="103" type="curve"/>
      <point x="1194" y="186" type="line"/>
      <point x="1173" y="186"/>
      <point x="1161" y="187"/>
      <point x="1136" y="189" type="curve" smooth="yes"/>
      <point x="1053" y="196"/>
      <point x="993" y="247"/>
      <point x="920" y="247" type="curve" smooth="yes"/>
      <point x="897" y="247"/>
      <point x="875" y="243"/>
      <point x="854" y="233" type="curve"/>
      <point x="849" y="148" type="line"/>
      <point x="869" y="153"/>
      <point x="888" y="155"/>
      <point x="911" y="155" type="curve" smooth="yes"/>
      <point x="962" y="155"/>
      <point x="1008" y="134"/>
      <point x="1094" y="118" type="curve"/>
      <point x="1094" y="146" type="line"/>
      <point x="955" y="83"/>
      <point x="916" y="74"/>
      <point x="858" y="74" type="curve" smooth="yes"/>
      <point x="802" y="74"/>
      <point x="785" y="97"/>
      <point x="781" y="156" type="curve" smooth="yes"/>
      <point x="756" y="561" type="line"/>
      <point x="672" y="561" type="line"/>
      <point x="693" y="140" type="line" smooth="yes"/>
      <point x="698" y="34"/>
      <point x="639" y="-5"/>
      <point x="422" y="-5" type="curve" smooth="yes"/>
      <point x="302" y="-5"/>
      <point x="194" y="13"/>
      <point x="85" y="48" type="curve"/>
      <point x="75" y="-45" type="line"/>
      <point x="185" y="-82"/>
      <point x="299" y="-99"/>
    </contour>
    <contour>
      <point x="756" y="182" type="curve" smooth="yes"/>
      <point x="900" y="182"/>
      <point x="1005" y="285"/>
      <point x="1138" y="305" type="curve"/>
      <point x="1143" y="388" type="line"/>
      <point x="1122" y="388"/>
      <point x="1109" y="389"/>
      <point x="1085" y="391" type="curve" smooth="yes"/>
      <point x="1001" y="398"/>
      <point x="942" y="449"/>
      <point x="869" y="449" type="curve" smooth="yes"/>
      <point x="845" y="449"/>
      <point x="823" y="445"/>
      <point x="803" y="435" type="curve"/>
      <point x="797" y="350" type="line"/>
      <point x="818" y="355"/>
      <point x="836" y="357"/>
      <point x="859" y="357" type="curve" smooth="yes"/>
      <point x="911" y="357"/>
      <point x="957" y="336"/>
      <point x="1043" y="320" type="curve"/>
      <point x="1043" y="348" type="line"/>
      <point x="881" y="284"/>
      <point x="804" y="279"/>
      <point x="732" y="279" type="curve" smooth="yes"/>
      <point x="665" y="279"/>
      <point x="636" y="301"/>
      <point x="631" y="374" type="curve" smooth="yes"/>
      <point x="617" y="587" type="line"/>
      <point x="535" y="587" type="line"/>
      <point x="543" y="404" type="line"/>
      <point x="557" y="347" type="line" smooth="yes"/>
      <point x="590" y="211"/>
      <point x="634" y="182"/>
    </contour>
    <contour>
      <point x="313" y="32" type="line"/>
      <point x="333" y="33"/>
      <point x="349" y="34"/>
      <point x="369" y="38" type="curve" smooth="yes"/>
      <point x="505" y="65"/>
      <point x="603" y="145"/>
      <point x="603" y="346" type="curve"/>
      <point x="543" y="404" type="line"/>
      <point x="547" y="306"/>
      <point x="539" y="168"/>
      <point x="370" y="127" type="curve" smooth="yes"/>
      <point x="345" y="121"/>
      <point x="317" y="117"/>
      <point x="297" y="115" type="curve"/>
    </contour>
    <contour>
      <point x="513" y="193" type="curve"/>
      <point x="581" y="232" type="line"/>
      <point x="490" y="367"/>
      <point x="423" y="450"/>
      <point x="330" y="555" type="curve"/>
      <point x="271" y="500" type="line"/>
      <point x="365" y="396"/>
      <point x="434" y="307"/>
    </contour>
    <contour>
      <point x="316" y="162" type="curve" smooth="yes"/>
      <point x="422" y="162"/>
      <point x="477" y="213"/>
      <point x="471" y="329" type="curve" smooth="yes"/>
      <point x="458" y="581" type="line"/>
      <point x="377" y="581" type="line"/>
      <point x="388" y="338" type="line" smooth="yes"/>
      <point x="391" y="276"/>
      <point x="374" y="256"/>
      <point x="331" y="256" type="curve" smooth="yes"/>
      <point x="289" y="256"/>
      <point x="276" y="271"/>
      <point x="273" y="323" type="curve" smooth="yes"/>
      <point x="264" y="488" type="line"/>
      <point x="180" y="488" type="line"/>
      <point x="191" y="274" type="line" smooth="yes"/>
      <point x="195" y="187"/>
      <point x="243" y="162"/>
    </contour>
    <contour>
      <point x="150" y="208" type="curve" smooth="yes"/>
      <point x="173" y="208"/>
      <point x="196" y="210"/>
      <point x="223" y="216" type="curve"/>
      <point x="219" y="301" type="line"/>
      <point x="201" y="293"/>
      <point x="180" y="290"/>
      <point x="161" y="290" type="curve" smooth="yes"/>
      <point x="131" y="290"/>
      <point x="107" y="296"/>
      <point x="107" y="317" type="curve" smooth="yes"/>
      <point x="107" y="342"/>
      <point x="143" y="365"/>
      <point x="212" y="382" type="curve"/>
      <point x="205" y="461" type="line"/>
      <point x="99" y="429"/>
      <point x="22" y="381"/>
      <point x="22" y="305" type="curve" smooth="yes"/>
      <point x="22" y="232"/>
      <point x="77" y="208"/>
    </contour>
    <contour>
      <point x="932" y="462" type="line"/>
      <point x="1167" y="532" type="line"/>
      <point x="1167" y="577" type="line"/>
      <point x="932" y="506" type="line"/>
    </contour>
    <contour>
      <point x="792" y="503" type="line"/>
      <point x="1027" y="573" type="line"/>
      <point x="1027" y="618" type="line"/>
      <point x="792" y="547" type="line"/>
    </contour>
    <contour>
      <point x="1021" y="-118" type="curve"/>
      <point x="1072" y="-65" type="line"/>
      <point x="1053" y="-42"/>
      <point x="1041" y="-29"/>
      <point x="1018" y="-11" type="curve"/>
      <point x="968" y="-65" type="line"/>
      <point x="989" y="-86"/>
      <point x="999" y="-97"/>
    </contour>
    <contour>
      <point x="1181" y="-54" type="curve"/>
      <point x="1234" y="-1" type="line"/>
      <point x="1213" y="22"/>
      <point x="1200" y="37"/>
      <point x="1179" y="53" type="curve"/>
      <point x="1128" y="-1" type="line"/>
      <point x="1148" y="-19"/>
      <point x="1161" y="-33"/>
    </contour>
  </outline>
</glyph>
<glyph name="rial" format="2">
  <advance width="1806"/>
  <unicode hex="FDFC"/>
  <outline>
    <contour>
      <point x="1423" y="-266" type="curve" smooth="yes"/>
      <point x="1636" y="-266"/>
      <point x="1758" y="-143"/>
      <point x="1758" y="66" type="curve" smooth="yes"/>
      <point x="1758" y="183"/>
      <point x="1705" y="293"/>
      <point x="1637" y="394" type="curve"/>
      <point x="1492" y="305" type="line"/>
      <point x="1554" y="202"/>
      <point x="1597" y="125"/>
      <point x="1597" y="52" type="curve" smooth="yes"/>
      <point x="1597" y="-53"/>
      <point x="1522" y="-102"/>
      <point x="1398" y="-102" type="curve" smooth="yes"/>
      <point x="1357" y="-102"/>
      <point x="1318" y="-98"/>
      <point x="1274" y="-89" type="curve"/>
      <point x="1281" y="-238" type="line"/>
      <point x="1317" y="-257"/>
      <point x="1369" y="-266"/>
    </contour>
    <contour>
      <point x="1053" y="-10" type="curve" smooth="yes"/>
      <point x="1222" y="-10"/>
      <point x="1325" y="44"/>
      <point x="1325" y="231" type="curve" smooth="yes"/>
      <point x="1325" y="315"/>
      <point x="1308" y="389"/>
      <point x="1284" y="460" type="curve"/>
      <point x="1124" y="417" type="line"/>
      <point x="1143" y="348"/>
      <point x="1156" y="302"/>
      <point x="1156" y="247" type="curve" smooth="yes"/>
      <point x="1156" y="190"/>
      <point x="1136" y="170"/>
      <point x="1063" y="170" type="curve" smooth="yes"/>
      <point x="982" y="170"/>
      <point x="968" y="191"/>
      <point x="964" y="271" type="curve" smooth="yes"/>
      <point x="941" y="760" type="line"/>
      <point x="781" y="760" type="line"/>
      <point x="804" y="221" type="line" smooth="yes"/>
      <point x="810" y="83"/>
      <point x="870" y="-10"/>
    </contour>
    <contour>
      <point x="338" y="-232" type="curve" smooth="yes"/>
      <point x="563" y="-232"/>
      <point x="692" y="-108"/>
      <point x="680" y="177" type="curve" smooth="yes"/>
      <point x="655" y="760" type="line"/>
      <point x="493" y="760" type="line"/>
      <point x="522" y="162" type="line" smooth="yes"/>
      <point x="530" y="4"/>
      <point x="476" y="-52"/>
      <point x="354" y="-52" type="curve" smooth="yes"/>
      <point x="262" y="-52"/>
      <point x="201" y="-27"/>
      <point x="201" y="71" type="curve" smooth="yes"/>
      <point x="201" y="123"/>
      <point x="209" y="167"/>
      <point x="225" y="236" type="curve"/>
      <point x="99" y="263" type="line"/>
      <point x="60" y="176"/>
      <point x="44" y="99"/>
      <point x="44" y="33" type="curve" smooth="yes"/>
      <point x="44" y="-148"/>
      <point x="165" y="-232"/>
    </contour>
    <contour>
      <point x="975.651" y="-255.093" type="curve"/>
      <point x="1060.772" y="-162.058" type="line"/>
      <point x="1024.793" y="-118.389"/>
      <point x="1006.365" y="-99.403"/>
      <point x="969.508" y="-67.125" type="curve"/>
      <point x="885.265" y="-163.957" type="line"/>
      <point x="923.877" y="-200.032"/>
      <point x="942.305" y="-219.018"/>
    </contour>
    <contour>
      <point x="1118.651" y="-255.093" type="curve"/>
      <point x="1203.772" y="-162.058" type="line"/>
      <point x="1167.793" y="-118.389"/>
      <point x="1149.365" y="-99.403"/>
      <point x="1112.508" y="-67.125" type="curve"/>
      <point x="1028.265" y="-163.957" type="line"/>
      <point x="1066.877" y="-200.032"/>
      <point x="1085.305" y="-219.018"/>
    </contour>
  </outline>
</glyph>
